<svg width="132" height="32" viewBox="0 0 132 32" fill="none" xmlns="http://www.w3.org/2000/svg">
<path d="M127 0H31V32H127C129.761 32 132 29.7614 132 27V5C132 2.23858 129.761 0 127 0Z" fill="#0F1418"/>
<path d="M53.3265 21H51.0615V16.38H46.8165V21H44.5515V10.29H46.8165V14.49H51.0615V10.29H53.3265V21ZM59.3813 12.645C60.4813 12.645 61.3213 12.885 61.9013 13.365C62.4913 13.835 62.7863 14.56 62.7863 15.54V21H61.2263L60.7913 19.89H60.7313C60.5013 20.18 60.2613 20.42 60.0113 20.61C59.7713 20.8 59.4913 20.935 59.1713 21.015C58.8613 21.105 58.4763 21.15 58.0163 21.15C57.5363 21.15 57.1013 21.06 56.7113 20.88C56.3313 20.69 56.0313 20.405 55.8113 20.025C55.5913 19.635 55.4813 19.145 55.4813 18.555C55.4813 17.685 55.7863 17.045 56.3963 16.635C57.0063 16.215 57.9213 15.985 59.1413 15.945L60.5663 15.9V15.54C60.5663 15.11 60.4513 14.795 60.2213 14.595C60.0013 14.395 59.6913 14.295 59.2913 14.295C58.8913 14.295 58.5013 14.355 58.1213 14.475C57.7413 14.585 57.3613 14.725 56.9813 14.895L56.2463 13.38C56.6863 13.15 57.1713 12.97 57.7013 12.84C58.2413 12.71 58.8013 12.645 59.3813 12.645ZM59.6963 17.235C58.9763 17.255 58.4763 17.385 58.1963 17.625C57.9163 17.865 57.7763 18.18 57.7763 18.57C57.7763 18.91 57.8763 19.155 58.0763 19.305C58.2763 19.445 58.5363 19.515 58.8563 19.515C59.3363 19.515 59.7413 19.375 60.0713 19.095C60.4013 18.805 60.5663 18.4 60.5663 17.88V17.205L59.6963 17.235ZM70.969 18.57C70.969 19.12 70.839 19.59 70.579 19.98C70.319 20.36 69.929 20.65 69.409 20.85C68.889 21.05 68.244 21.15 67.474 21.15C66.904 21.15 66.414 21.11 66.004 21.03C65.594 20.96 65.184 20.84 64.774 20.67V18.825C65.214 19.025 65.689 19.19 66.199 19.32C66.709 19.45 67.159 19.515 67.549 19.515C67.989 19.515 68.299 19.45 68.479 19.32C68.669 19.19 68.764 19.02 68.764 18.81C68.764 18.67 68.724 18.545 68.644 18.435C68.574 18.325 68.414 18.2 68.164 18.06C67.914 17.92 67.524 17.74 66.994 17.52C66.484 17.3 66.064 17.085 65.734 16.875C65.404 16.655 65.159 16.395 64.999 16.095C64.839 15.785 64.759 15.4 64.759 14.94C64.759 14.18 65.054 13.61 65.644 13.23C66.234 12.85 67.019 12.66 67.999 12.66C68.509 12.66 68.994 12.71 69.454 12.81C69.914 12.91 70.389 13.075 70.879 13.305L70.204 14.91C69.934 14.79 69.674 14.685 69.424 14.595C69.174 14.505 68.929 14.435 68.689 14.385C68.459 14.335 68.219 14.31 67.969 14.31C67.639 14.31 67.389 14.355 67.219 14.445C67.059 14.535 66.979 14.67 66.979 14.85C66.979 14.98 67.019 15.1 67.099 15.21C67.189 15.31 67.354 15.42 67.594 15.54C67.844 15.66 68.209 15.82 68.689 16.02C69.159 16.21 69.564 16.41 69.904 16.62C70.244 16.82 70.504 17.075 70.684 17.385C70.874 17.685 70.969 18.08 70.969 18.57ZM75.1251 11.925C75.1251 12.325 75.1101 12.71 75.0801 13.08C75.0601 13.45 75.0401 13.71 75.0201 13.86H75.1401C75.3201 13.58 75.5301 13.355 75.7701 13.185C76.0101 13.005 76.2751 12.875 76.5651 12.795C76.8651 12.705 77.1801 12.66 77.5101 12.66C78.1001 12.66 78.6151 12.765 79.0551 12.975C79.4951 13.185 79.8351 13.51 80.0751 13.95C80.3251 14.39 80.4501 14.96 80.4501 15.66V21H78.2151V16.215C78.2151 15.625 78.1051 15.185 77.8851 14.895C77.6751 14.595 77.3451 14.445 76.8951 14.445C76.4451 14.445 76.0901 14.55 75.8301 14.76C75.5801 14.97 75.4001 15.275 75.2901 15.675C75.1801 16.075 75.1251 16.565 75.1251 17.145V21H72.8901V9.6H75.1251V11.925ZM87.5785 12.66C88.4585 12.66 89.1635 12.9 89.6935 13.38C90.2235 13.85 90.4885 14.61 90.4885 15.66V21H88.2535V16.215C88.2535 15.625 88.1485 15.185 87.9385 14.895C87.7285 14.595 87.3935 14.445 86.9335 14.445C86.2535 14.445 85.7885 14.68 85.5385 15.15C85.2885 15.61 85.1635 16.275 85.1635 17.145V21H82.9285V12.81H84.6385L84.9385 13.86H85.0585C85.2385 13.58 85.4585 13.355 85.7185 13.185C85.9785 13.005 86.2685 12.875 86.5885 12.795C86.9085 12.705 87.2385 12.66 87.5785 12.66ZM100.407 16.89C100.407 17.57 100.312 18.175 100.122 18.705C99.9419 19.235 99.6769 19.685 99.3269 20.055C98.9869 20.415 98.5719 20.69 98.0819 20.88C97.5919 21.06 97.0369 21.15 96.4169 21.15C95.8469 21.15 95.3169 21.06 94.8269 20.88C94.3469 20.69 93.9319 20.415 93.5819 20.055C93.2319 19.685 92.9569 19.235 92.7569 18.705C92.5669 18.175 92.4719 17.57 92.4719 16.89C92.4719 15.98 92.6319 15.215 92.9519 14.595C93.2719 13.965 93.7319 13.485 94.3319 13.155C94.9319 12.825 95.6419 12.66 96.4619 12.66C97.2319 12.66 97.9119 12.825 98.5019 13.155C99.0919 13.485 99.5569 13.965 99.8969 14.595C100.237 15.215 100.407 15.98 100.407 16.89ZM94.7519 16.89C94.7519 17.43 94.8069 17.885 94.9169 18.255C95.0369 18.615 95.2219 18.89 95.4719 19.08C95.7219 19.26 96.0469 19.35 96.4469 19.35C96.8469 19.35 97.1669 19.26 97.4069 19.08C97.6569 18.89 97.8369 18.615 97.9469 18.255C98.0669 17.885 98.1269 17.43 98.1269 16.89C98.1269 16.35 98.0669 15.9 97.9469 15.54C97.8369 15.18 97.6569 14.91 97.4069 14.73C97.1569 14.55 96.8319 14.46 96.4319 14.46C95.8419 14.46 95.4119 14.665 95.1419 15.075C94.8819 15.475 94.7519 16.08 94.7519 16.89ZM105.029 21.15C104.119 21.15 103.374 20.795 102.794 20.085C102.224 19.365 101.939 18.31 101.939 16.92C101.939 15.52 102.229 14.46 102.809 13.74C103.389 13.02 104.149 12.66 105.089 12.66C105.479 12.66 105.824 12.715 106.124 12.825C106.424 12.925 106.679 13.065 106.889 13.245C107.109 13.425 107.294 13.63 107.444 13.86H107.519C107.489 13.7 107.454 13.47 107.414 13.17C107.374 12.86 107.354 12.545 107.354 12.225V9.6H109.589V21H107.879L107.444 19.935H107.354C107.214 20.155 107.034 20.36 106.814 20.55C106.604 20.73 106.354 20.875 106.064 20.985C105.774 21.095 105.429 21.15 105.029 21.15ZM105.809 19.365C106.429 19.365 106.864 19.185 107.114 18.825C107.364 18.455 107.494 17.905 107.504 17.175V16.935C107.504 16.135 107.379 15.525 107.129 15.105C106.889 14.685 106.439 14.475 105.779 14.475C105.289 14.475 104.904 14.69 104.624 15.12C104.344 15.54 104.204 16.15 104.204 16.95C104.204 17.75 104.344 18.355 104.624 18.765C104.904 19.165 105.299 19.365 105.809 19.365ZM115.481 12.66C116.241 12.66 116.891 12.805 117.431 13.095C117.981 13.385 118.406 13.805 118.706 14.355C119.006 14.905 119.156 15.58 119.156 16.38V17.46H113.876C113.896 18.09 114.081 18.585 114.431 18.945C114.791 19.305 115.286 19.485 115.916 19.485C116.446 19.485 116.926 19.435 117.356 19.335C117.786 19.225 118.231 19.06 118.691 18.84V20.565C118.291 20.765 117.866 20.91 117.416 21C116.976 21.1 116.441 21.15 115.811 21.15C114.991 21.15 114.266 21 113.636 20.7C113.006 20.39 112.511 19.925 112.151 19.305C111.791 18.685 111.611 17.905 111.611 16.965C111.611 16.005 111.771 15.21 112.091 14.58C112.421 13.94 112.876 13.46 113.456 13.14C114.036 12.82 114.711 12.66 115.481 12.66ZM115.496 14.25C115.066 14.25 114.706 14.39 114.416 14.67C114.136 14.95 113.971 15.385 113.921 15.975H117.056C117.056 15.645 116.996 15.35 116.876 15.09C116.766 14.83 116.596 14.625 116.366 14.475C116.136 14.325 115.846 14.25 115.496 14.25Z" fill="white"/>
<path d="M127 0H5C2.23858 0 0 2.23858 0 5V27C0 29.7614 2.23858 32 5 32H127C129.761 32 132 29.7614 132 27V5C132 2.23858 129.761 0 127 0Z" fill="url(#paint0_linear_22_6)"/>
<g clip-path="url(#clip0_22_6)">
<path d="M0 10C0 4.47715 4.47715 0 10 0H21C26.5228 0 31 4.47715 31 10V22C31 27.5228 26.5228 32 21 32H10C4.47715 32 0 27.5228 0 22V10Z" fill="#2962FF"/>
<path fill-rule="evenodd" clip-rule="evenodd" d="M2.1302 10.6918C-0.710067 13.6236 -0.710067 18.3766 2.1302 21.3082L10.3576 29.8013C13.1979 32.7329 17.8023 32.7329 20.6423 29.8013L28.87 21.3082C31.71 18.3764 31.71 13.6234 28.87 10.6918L20.6423 2.19895C17.8021 -0.732659 13.1976 -0.732659 10.3576 2.19895L2.1302 10.6918ZM19.0995 19.7159C21.0877 17.6636 21.0877 14.3364 19.0995 12.2844C17.1116 10.2321 13.8884 10.2321 11.9005 12.2844C9.91227 14.3367 9.91227 17.6636 11.9005 19.7159C13.8886 21.7679 17.1116 21.7679 19.0997 19.7159H19.0995Z" fill="white"/>
</g>
<defs>
<linearGradient id="paint0_linear_22_6" x1="0" y1="0" x2="0" y2="32" gradientUnits="userSpaceOnUse">
<stop stop-color="#BBBBBB" stop-opacity="0.1"/>
<stop offset="1" stop-opacity="0.1"/>
</linearGradient>
<clipPath id="clip0_22_6">
<path d="M0 10C0 4.47715 4.47715 0 10 0H21C26.5228 0 31 4.47715 31 10V22C31 27.5228 26.5228 32 21 32H10C4.47715 32 0 27.5228 0 22V10Z" fill="white"/>
</clipPath>
</defs>
</svg>
