<svg width="132" height="32" viewBox="0 0 132 32" fill="none" xmlns="http://www.w3.org/2000/svg">
<path d="M127 0H31V32H127C129.761 32 132 29.7614 132 27V5C132 2.23858 129.761 0 127 0Z" fill="#0F1418"/>
<path d="M31 0H5C2.23858 0 0 2.23858 0 5V27C0 29.7614 2.23858 32 5 32H31V0Z" fill="#03A87C"/>
<path d="M5.98593 10.0803C6.0172 9.7728 5.89734 9.46535 5.66806 9.2569L3.31787 6.42209V6H10.6238L16.2725 18.3867L21.2387 6H28.2058V6.42209L26.1944 8.35018C26.0224 8.48046 25.9338 8.69932 25.9703 8.91298V23.087C25.9338 23.3007 26.0224 23.5195 26.1944 23.6498L28.1589 25.5779V26H18.2736V25.5779L20.3111 23.6029C20.5091 23.4049 20.5091 23.3424 20.5091 23.0401V11.5862L14.8447 25.9635H14.0787L7.49192 11.5862V21.2215C7.4346 21.6279 7.57009 22.0344 7.8567 22.3262L10.5039 25.5362V25.9583H3V25.5414L5.64721 22.3262C5.92861 22.0344 6.05888 21.6227 5.98593 21.2215V10.0803Z" fill="white"/>
<path d="M56.095 21L53.515 12.6H53.455C53.465 12.8 53.48 13.1 53.5 13.5C53.52 13.9 53.54 14.33 53.56 14.79C53.58 15.24 53.59 15.65 53.59 16.02V21H51.565V10.29H54.655L57.19 18.48H57.235L59.92 10.29H63.01V21H60.895V15.93C60.895 15.59 60.9 15.2 60.91 14.76C60.93 14.32 60.945 13.905 60.955 13.515C60.975 13.115 60.99 12.815 61 12.615H60.94L58.18 21H56.095ZM69.0904 12.66C69.8504 12.66 70.5004 12.805 71.0404 13.095C71.5904 13.385 72.0154 13.805 72.3154 14.355C72.6154 14.905 72.7654 15.58 72.7654 16.38V17.46H67.4854C67.5054 18.09 67.6904 18.585 68.0404 18.945C68.4004 19.305 68.8954 19.485 69.5254 19.485C70.0554 19.485 70.5354 19.435 70.9654 19.335C71.3954 19.225 71.8404 19.06 72.3004 18.84V20.565C71.9004 20.765 71.4754 20.91 71.0254 21C70.5854 21.1 70.0504 21.15 69.4204 21.15C68.6004 21.15 67.8754 21 67.2454 20.7C66.6154 20.39 66.1204 19.925 65.7604 19.305C65.4004 18.685 65.2204 17.905 65.2204 16.965C65.2204 16.005 65.3804 15.21 65.7004 14.58C66.0304 13.94 66.4854 13.46 67.0654 13.14C67.6454 12.82 68.3204 12.66 69.0904 12.66ZM69.1054 14.25C68.6754 14.25 68.3154 14.39 68.0254 14.67C67.7454 14.95 67.5804 15.385 67.5304 15.975H70.6654C70.6654 15.645 70.6054 15.35 70.4854 15.09C70.3754 14.83 70.2054 14.625 69.9754 14.475C69.7454 14.325 69.4554 14.25 69.1054 14.25ZM77.3527 21.15C76.4427 21.15 75.6977 20.795 75.1177 20.085C74.5477 19.365 74.2627 18.31 74.2627 16.92C74.2627 15.52 74.5527 14.46 75.1327 13.74C75.7127 13.02 76.4727 12.66 77.4127 12.66C77.8027 12.66 78.1477 12.715 78.4477 12.825C78.7477 12.925 79.0027 13.065 79.2127 13.245C79.4327 13.425 79.6177 13.63 79.7677 13.86H79.8427C79.8127 13.7 79.7777 13.47 79.7377 13.17C79.6977 12.86 79.6777 12.545 79.6777 12.225V9.6H81.9127V21H80.2027L79.7677 19.935H79.6777C79.5377 20.155 79.3577 20.36 79.1377 20.55C78.9277 20.73 78.6777 20.875 78.3877 20.985C78.0977 21.095 77.7527 21.15 77.3527 21.15ZM78.1327 19.365C78.7527 19.365 79.1877 19.185 79.4377 18.825C79.6877 18.455 79.8177 17.905 79.8277 17.175V16.935C79.8277 16.135 79.7027 15.525 79.4527 15.105C79.2127 14.685 78.7627 14.475 78.1027 14.475C77.6127 14.475 77.2277 14.69 76.9477 15.12C76.6677 15.54 76.5277 16.15 76.5277 16.95C76.5277 17.75 76.6677 18.355 76.9477 18.765C77.2277 19.165 77.6227 19.365 78.1327 19.365ZM86.6649 12.81V21H84.4299V12.81H86.6649ZM85.5549 9.6C85.8849 9.6 86.1699 9.68 86.4099 9.84C86.6499 9.99 86.7699 10.275 86.7699 10.695C86.7699 11.105 86.6499 11.39 86.4099 11.55C86.1699 11.71 85.8849 11.79 85.5549 11.79C85.2149 11.79 84.9249 11.71 84.6849 11.55C84.4549 11.39 84.3399 11.105 84.3399 10.695C84.3399 10.275 84.4549 9.99 84.6849 9.84C84.9249 9.68 85.2149 9.6 85.5549 9.6ZM96.6952 12.81V21H94.9852L94.6852 19.95H94.5652C94.3952 20.23 94.1752 20.46 93.9052 20.64C93.6452 20.81 93.3552 20.935 93.0352 21.015C92.7152 21.105 92.3852 21.15 92.0452 21.15C91.4652 21.15 90.9552 21.045 90.5152 20.835C90.0752 20.625 89.7352 20.3 89.4952 19.86C89.2552 19.42 89.1352 18.85 89.1352 18.15V12.81H91.3702V17.595C91.3702 18.175 91.4752 18.615 91.6852 18.915C91.8952 19.215 92.2302 19.365 92.6902 19.365C93.1502 19.365 93.5052 19.26 93.7552 19.05C94.0152 18.84 94.1952 18.535 94.2952 18.135C94.4052 17.735 94.4602 17.245 94.4602 16.665V12.81H96.6952ZM108.834 12.66C109.764 12.66 110.464 12.9 110.934 13.38C111.414 13.85 111.654 14.61 111.654 15.66V21H109.419V16.215C109.419 15.625 109.319 15.185 109.119 14.895C108.919 14.595 108.609 14.445 108.189 14.445C107.599 14.445 107.179 14.655 106.929 15.075C106.679 15.495 106.554 16.1 106.554 16.89V21H104.319V16.215C104.319 15.825 104.274 15.5 104.184 15.24C104.094 14.98 103.959 14.785 103.779 14.655C103.599 14.515 103.369 14.445 103.089 14.445C102.679 14.445 102.354 14.55 102.114 14.76C101.874 14.97 101.704 15.275 101.604 15.675C101.504 16.075 101.454 16.565 101.454 17.145V21H99.2186V12.81H100.929L101.229 13.86H101.349C101.519 13.58 101.729 13.355 101.979 13.185C102.229 13.005 102.504 12.875 102.804 12.795C103.114 12.705 103.424 12.66 103.734 12.66C104.334 12.66 104.844 12.76 105.264 12.96C105.684 13.15 106.004 13.45 106.224 13.86H106.419C106.669 13.44 107.014 13.135 107.454 12.945C107.904 12.755 108.364 12.66 108.834 12.66Z" fill="white"/>
<path d="M127 0H5C2.23858 0 0 2.23858 0 5V27C0 29.7614 2.23858 32 5 32H127C129.761 32 132 29.7614 132 27V5C132 2.23858 129.761 0 127 0Z" fill="url(#paint0_linear_23_31)"/>
<defs>
<linearGradient id="paint0_linear_23_31" x1="0" y1="0" x2="0" y2="32" gradientUnits="userSpaceOnUse">
<stop stop-color="#BBBBBB" stop-opacity="0.1"/>
<stop offset="1" stop-opacity="0.1"/>
</linearGradient>
</defs>
</svg>
