<svg width="126" height="32" viewBox="0 0 126 32" fill="none" xmlns="http://www.w3.org/2000/svg">
<path d="M121 0H31V32H121C123.761 32 126 29.7614 126 27V5C126 2.23858 123.761 0 121 0Z" fill="#0F1418"/>
<path d="M45.8383 20H43.8753V15.996H40.1963V20H38.2333V10.718H40.1963V14.358H43.8753V10.718H45.8383V20ZM51.0857 12.759C52.039 12.759 52.767 12.967 53.2697 13.383C53.781 13.7903 54.0367 14.4187 54.0367 15.268V20H52.6847L52.3077 19.038H52.2557C52.0564 19.2893 51.8484 19.4973 51.6317 19.662C51.4237 19.8267 51.181 19.9437 50.9037 20.013C50.635 20.091 50.3014 20.13 49.9027 20.13C49.4867 20.13 49.1097 20.052 48.7717 19.896C48.4424 19.7313 48.1824 19.4843 47.9917 19.155C47.801 18.817 47.7057 18.3923 47.7057 17.881C47.7057 17.127 47.97 16.5723 48.4987 16.217C49.0274 15.853 49.8204 15.6537 50.8777 15.619L52.1127 15.58V15.268C52.1127 14.8953 52.013 14.6223 51.8137 14.449C51.623 14.2757 51.3544 14.189 51.0077 14.189C50.661 14.189 50.323 14.241 49.9937 14.345C49.6644 14.4403 49.335 14.5617 49.0057 14.709L48.3687 13.396C48.75 13.1967 49.1704 13.0407 49.6297 12.928C50.0977 12.8153 50.583 12.759 51.0857 12.759ZM51.3587 16.737C50.7347 16.7543 50.3014 16.867 50.0587 17.075C49.816 17.283 49.6947 17.556 49.6947 17.894C49.6947 18.1887 49.7814 18.401 49.9547 18.531C50.128 18.6523 50.3534 18.713 50.6307 18.713C51.0467 18.713 51.3977 18.5917 51.6837 18.349C51.9697 18.0977 52.1127 17.7467 52.1127 17.296V16.711L51.3587 16.737ZM59.0614 20.13C58.3594 20.13 57.7614 20.0043 57.2674 19.753C56.7734 19.493 56.3964 19.0943 56.1364 18.557C55.8764 18.0197 55.7464 17.3307 55.7464 16.49C55.7464 15.6233 55.8937 14.917 56.1884 14.371C56.4831 13.825 56.8904 13.422 57.4104 13.162C57.9391 12.902 58.5457 12.772 59.2304 12.772C59.7157 12.772 60.1361 12.8197 60.4914 12.915C60.8554 13.0103 61.1717 13.123 61.4404 13.253L60.8684 14.748C60.5651 14.6267 60.2791 14.527 60.0104 14.449C59.7504 14.371 59.4904 14.332 59.2304 14.332C58.8924 14.332 58.6107 14.4143 58.3854 14.579C58.1601 14.735 57.9911 14.9733 57.8784 15.294C57.7744 15.606 57.7224 16.0003 57.7224 16.477C57.7224 16.945 57.7787 17.335 57.8914 17.647C58.0127 17.9503 58.1861 18.18 58.4114 18.336C58.6367 18.4833 58.9097 18.557 59.2304 18.557C59.6377 18.557 59.9974 18.505 60.3094 18.401C60.6214 18.2883 60.9247 18.1367 61.2194 17.946V19.597C60.9247 19.7877 60.6127 19.922 60.2834 20C59.9627 20.0867 59.5554 20.13 59.0614 20.13ZM64.9461 14.54C64.9461 14.8087 64.9331 15.0773 64.9071 15.346C64.8898 15.606 64.8681 15.8703 64.8421 16.139H64.8681C64.9548 16.0177 65.0415 15.8963 65.1281 15.775C65.2235 15.6537 65.3188 15.5323 65.4141 15.411C65.5095 15.2897 65.6091 15.1727 65.7131 15.06L67.7021 12.902H69.8861L67.0651 15.983L70.0551 20H67.8191L65.7781 17.127L64.9461 17.79V20H63.0091V10.12H64.9461V14.54ZM74.1517 12.772C74.8103 12.772 75.3737 12.8977 75.8417 13.149C76.3183 13.4003 76.6867 13.7643 76.9467 14.241C77.2067 14.7177 77.3367 15.3027 77.3367 15.996V16.932H72.7607C72.778 17.478 72.9383 17.907 73.2417 18.219C73.5537 18.531 73.9827 18.687 74.5287 18.687C74.988 18.687 75.404 18.6437 75.7767 18.557C76.1493 18.4617 76.535 18.3187 76.9337 18.128V19.623C76.587 19.7963 76.2187 19.922 75.8287 20C75.4473 20.0867 74.9837 20.13 74.4377 20.13C73.727 20.13 73.0987 20 72.5527 19.74C72.0067 19.4713 71.5777 19.0683 71.2657 18.531C70.9537 17.9937 70.7977 17.3177 70.7977 16.503C70.7977 15.671 70.9363 14.982 71.2137 14.436C71.4997 13.8813 71.894 13.4653 72.3967 13.188C72.8993 12.9107 73.4843 12.772 74.1517 12.772ZM74.1647 14.15C73.792 14.15 73.48 14.2713 73.2287 14.514C72.986 14.7567 72.843 15.1337 72.7997 15.645H75.5167C75.5167 15.359 75.4647 15.1033 75.3607 14.878C75.2653 14.6527 75.118 14.475 74.9187 14.345C74.7193 14.215 74.468 14.15 74.1647 14.15ZM83.0283 12.772C83.1237 12.772 83.2363 12.7763 83.3663 12.785C83.4963 12.7937 83.6003 12.8067 83.6783 12.824L83.5353 14.644C83.4747 14.6267 83.3837 14.6137 83.2623 14.605C83.1496 14.5877 83.05 14.579 82.9633 14.579C82.712 14.579 82.4693 14.6137 82.2353 14.683C82.0013 14.7437 81.789 14.8433 81.5983 14.982C81.4163 15.1207 81.269 15.307 81.1563 15.541C81.0523 15.7663 81.0003 16.048 81.0003 16.386V20H79.0633V12.902H80.5323L80.8183 14.098H80.9093C81.048 13.8553 81.2213 13.6343 81.4293 13.435C81.6373 13.2357 81.8756 13.0753 82.1443 12.954C82.4216 12.8327 82.7163 12.772 83.0283 12.772ZM90.6216 20H85.2786V10.718H90.6216V12.33H87.2416V14.371H90.3876V15.983H87.2416V18.375H90.6216V20ZM95.4651 12.759C96.4184 12.759 97.1464 12.967 97.6491 13.383C98.1604 13.7903 98.4161 14.4187 98.4161 15.268V20H97.0641L96.6871 19.038H96.6351C96.4357 19.2893 96.2277 19.4973 96.0111 19.662C95.8031 19.8267 95.5604 19.9437 95.2831 20.013C95.0144 20.091 94.6807 20.13 94.2821 20.13C93.8661 20.13 93.4891 20.052 93.1511 19.896C92.8217 19.7313 92.5617 19.4843 92.3711 19.155C92.1804 18.817 92.0851 18.3923 92.0851 17.881C92.0851 17.127 92.3494 16.5723 92.8781 16.217C93.4067 15.853 94.1997 15.6537 95.2571 15.619L96.4921 15.58V15.268C96.4921 14.8953 96.3924 14.6223 96.1931 14.449C96.0024 14.2757 95.7337 14.189 95.3871 14.189C95.0404 14.189 94.7024 14.241 94.3731 14.345C94.0437 14.4403 93.7144 14.5617 93.3851 14.709L92.7481 13.396C93.1294 13.1967 93.5497 13.0407 94.0091 12.928C94.4771 12.8153 94.9624 12.759 95.4651 12.759ZM95.7381 16.737C95.1141 16.7543 94.6807 16.867 94.4381 17.075C94.1954 17.283 94.0741 17.556 94.0741 17.894C94.0741 18.1887 94.1607 18.401 94.3341 18.531C94.5074 18.6523 94.7327 18.713 95.0101 18.713C95.4261 18.713 95.7771 18.5917 96.0631 18.349C96.3491 18.0977 96.4921 17.7467 96.4921 17.296V16.711L95.7381 16.737ZM104.52 12.772C104.615 12.772 104.728 12.7763 104.858 12.785C104.988 12.7937 105.092 12.8067 105.17 12.824L105.027 14.644C104.966 14.6267 104.875 14.6137 104.754 14.605C104.641 14.5877 104.541 14.579 104.455 14.579C104.203 14.579 103.961 14.6137 103.727 14.683C103.493 14.7437 103.28 14.8433 103.09 14.982C102.908 15.1207 102.76 15.307 102.648 15.541C102.544 15.7663 102.492 16.048 102.492 16.386V20H100.555V12.902H102.024L102.31 14.098H102.401C102.539 13.8553 102.713 13.6343 102.921 13.435C103.129 13.2357 103.367 13.0753 103.636 12.954C103.913 12.8327 104.208 12.772 104.52 12.772ZM109.604 18.583C109.821 18.583 110.029 18.5613 110.228 18.518C110.427 18.4747 110.627 18.4227 110.826 18.362V19.805C110.618 19.8917 110.358 19.9653 110.046 20.026C109.743 20.0953 109.409 20.13 109.045 20.13C108.62 20.13 108.239 20.0607 107.901 19.922C107.572 19.7833 107.307 19.545 107.108 19.207C106.917 18.8603 106.822 18.3837 106.822 17.777V14.358H105.899V13.539L106.965 12.889L107.524 11.394H108.759V12.902H110.748V14.358H108.759V17.777C108.759 18.0457 108.837 18.2493 108.993 18.388C109.149 18.518 109.353 18.583 109.604 18.583ZM114.344 12.135C114.344 12.4817 114.331 12.8153 114.305 13.136C114.287 13.4567 114.27 13.682 114.253 13.812H114.357C114.513 13.5693 114.695 13.3743 114.903 13.227C115.111 13.071 115.34 12.9583 115.592 12.889C115.852 12.811 116.125 12.772 116.411 12.772C116.922 12.772 117.368 12.863 117.75 13.045C118.131 13.227 118.426 13.5087 118.634 13.89C118.85 14.2713 118.959 14.7653 118.959 15.372V20H117.022V15.853C117.022 15.3417 116.926 14.9603 116.736 14.709C116.554 14.449 116.268 14.319 115.878 14.319C115.488 14.319 115.18 14.41 114.955 14.592C114.738 14.774 114.582 15.0383 114.487 15.385C114.391 15.7317 114.344 16.1563 114.344 16.659V20H112.407V10.12H114.344V12.135Z" fill="white"/>
<path d="M121 0H5C2.23858 0 0 2.23858 0 5V27C0 29.7614 2.23858 32 5 32H121C123.761 32 126 29.7614 126 27V5C126 2.23858 123.761 0 121 0Z" fill="url(#paint0_linear_25_117)"/>
<g clip-path="url(#clip0_25_117)">
<path d="M28.8516 0.00268555H13.0735V8.66135H13.2247C13.7912 7.95611 14.5481 7.41684 15.4114 7.10334C16.2747 6.78985 17.2107 6.71439 18.1156 6.88535L18.084 6.88002C20.7872 7.07202 23.4602 8.66135 23.6115 13.7574V23.8294C23.6074 23.9296 23.5645 24.0246 23.4914 24.0956C23.4182 24.1665 23.3202 24.2081 23.2169 24.212H20.3156C20.2109 24.212 20.1106 24.1717 20.0366 24.0999C19.9626 24.0282 19.921 23.9308 19.921 23.8294V14.0667C19.921 11.696 19.1166 9.91469 16.7021 9.91469H16.6499C16.1592 9.91472 15.6737 10.0125 15.2236 10.2019C14.7734 10.3913 14.3682 10.6684 14.0331 11.0159C13.6979 11.3634 13.4399 11.774 13.2751 12.2222C13.1102 12.6704 13.0421 13.1466 13.0749 13.6214V13.6107V23.8307C13.0749 23.8809 13.0646 23.9307 13.0448 23.9771C13.025 24.0236 12.9959 24.0657 12.9593 24.1013C12.9226 24.1368 12.8791 24.165 12.8312 24.1842C12.7834 24.2035 12.732 24.2134 12.6802 24.2134H9.79548C9.69082 24.2134 9.59044 24.173 9.51643 24.1013C9.44243 24.0295 9.40085 23.9322 9.40085 23.8307V0.00535221H4.39035L4.29823 0.00401888C3.1666 0.00401888 2.24535 0.873352 2.2041 1.96135V29.944C2.24535 31.0867 3.20785 31.9987 4.39035 32.0054H28.8544C29.1234 31.9978 29.3881 31.9379 29.6327 31.829C29.8773 31.7202 30.0968 31.5647 30.2781 31.3718C30.4594 31.179 30.5988 30.9527 30.688 30.7065C30.7772 30.4602 30.8143 30.1991 30.7972 29.9387V29.944V1.96535C30.814 1.71426 30.7774 1.46251 30.6898 1.22566C30.6023 0.988814 30.4655 0.771898 30.2881 0.588325C30.1106 0.404752 29.8962 0.258422 29.6581 0.158379C29.42 0.058337 29.1633 0.00670872 28.9039 0.00668555L28.8516 0.00801888H28.8544L28.8516 0.00268555ZM25.3591 27.98H7.6381V26.2134H25.3591V27.98Z" fill="#0F1418"/>
</g>
<defs>
<linearGradient id="paint0_linear_25_117" x1="0" y1="0" x2="0" y2="32" gradientUnits="userSpaceOnUse">
<stop stop-color="#BBBBBB" stop-opacity="0.1"/>
<stop offset="1" stop-opacity="0.1"/>
</linearGradient>
<clipPath id="clip0_25_117">
<rect width="33" height="32" fill="white"/>
</clipPath>
</defs>
</svg>
