<svg width="86" height="32" viewBox="0 0 86 32" fill="none" xmlns="http://www.w3.org/2000/svg">
<path d="M81 0H31V32H81C83.7614 32 86 29.7614 86 27V5C86 2.23858 83.7614 0 81 0Z" fill="#0F1418"/>
<path d="M56.6721 22H54.3356V15.7158C54.3356 15.0371 54.3649 14.2876 54.4235 13.4673H54.3649C54.2429 14.1118 54.133 14.5757 54.0353 14.8589L51.5744 22H49.6408L47.1359 14.9321C47.0676 14.7417 46.9577 14.2534 46.8063 13.4673H46.7404C46.8039 14.5024 46.8356 15.4106 46.8356 16.1919V22H44.7043V11.4971H48.1686L50.3146 17.7227C50.4855 18.2207 50.61 18.7212 50.6882 19.2241H50.7321C50.8639 18.6431 51.0031 18.1377 51.1496 17.708L53.2956 11.4971H56.6721V22ZM65.5166 22H63.3267V20.9233H63.2974C62.7944 21.7632 62.0498 22.1831 61.0635 22.1831C60.3359 22.1831 59.7622 21.978 59.3423 21.5679C58.9272 21.1528 58.7197 20.6011 58.7197 19.9126C58.7197 18.4575 59.5815 17.6177 61.3052 17.3931L63.3413 17.1221C63.3413 16.3018 62.897 15.8916 62.0083 15.8916C61.1147 15.8916 60.2651 16.1577 59.4595 16.6899V14.9468C59.7817 14.7808 60.2212 14.6343 60.7778 14.5073C61.3394 14.3804 61.8496 14.3169 62.3086 14.3169C64.4473 14.3169 65.5166 15.3838 65.5166 17.5176V22ZM63.3413 18.9531V18.4478L61.979 18.6235C61.2271 18.7212 60.8511 19.0605 60.8511 19.6416C60.8511 19.9053 60.9414 20.1226 61.1221 20.2935C61.3076 20.4595 61.5566 20.5425 61.8691 20.5425C62.3037 20.5425 62.6577 20.3936 62.9312 20.0957C63.2046 19.793 63.3413 19.4121 63.3413 18.9531ZM73.2113 21.729C72.6888 22.0317 71.9344 22.1831 70.9481 22.1831C69.7957 22.1831 68.8631 21.834 68.1502 21.1357C67.4373 20.4375 67.0809 19.5366 67.0809 18.4331C67.0809 17.1587 67.4617 16.1553 68.2235 15.4229C68.9901 14.6855 70.013 14.3169 71.2923 14.3169C72.1761 14.3169 72.8157 14.4341 73.2113 14.6685V16.6313C72.7279 16.27 72.1883 16.0894 71.5926 16.0894C70.9285 16.0894 70.4012 16.2847 70.0106 16.6753C69.6248 17.061 69.432 17.5957 69.432 18.2793C69.432 18.9434 69.6175 19.4658 69.9886 19.8467C70.3597 20.2227 70.8699 20.4106 71.5194 20.4106C72.0955 20.4106 72.6595 20.23 73.2113 19.8687V21.729Z" fill="white"/>
<path d="M81 0H5C2.23858 0 0 2.23858 0 5V27C0 29.7614 2.23858 32 5 32H81C83.7614 32 86 29.7614 86 27V5C86 2.23858 83.7614 0 81 0Z" fill="url(#paint0_linear_14_1157)"/>
<g clip-path="url(#clip0_14_1157)">
<path d="M9.14306 31.401C8.53275 30.979 7.98734 30.463 7.53881 29.865C7.03894 29.25 6.58556 28.599 6.16125 27.927C5.17216 26.432 4.40006 24.802 3.86047 23.078C3.21431 21.078 2.90141 19.161 2.90141 17.286C2.90141 15.192 3.34025 13.364 4.19856 11.828C4.82922 10.63 5.77278 9.62502 6.90816 8.92202C8.00769 8.21402 9.2845 7.82802 10.5758 7.80202C11.0302 7.80202 11.5194 7.87002 12.0387 8.00002C12.4116 8.10902 12.866 8.28102 13.4211 8.49502C14.1273 8.77602 14.5157 8.94802 14.6475 8.99002C15.0612 9.14602 15.4089 9.21402 15.6821 9.21402C15.8894 9.21402 16.182 9.14602 16.5143 9.04202C16.7013 8.97402 17.0539 8.85402 17.5586 8.63102C18.0585 8.44302 18.4518 8.28202 18.7647 8.16202C19.2442 8.01602 19.7083 7.88102 20.1219 7.81302C20.6266 7.73502 21.1255 7.70902 21.6051 7.75002C22.5234 7.81302 23.3614 8.01602 24.1132 8.30702C25.4297 8.85402 26.4943 9.70802 27.2868 10.922C26.9487 11.136 26.6406 11.38 26.3481 11.656C25.7174 12.229 25.1875 12.906 24.7583 13.661C24.2032 14.687 23.9204 15.849 23.9262 17.02C23.9465 18.463 24.305 19.734 25.0112 20.833C25.5159 21.635 26.1814 22.317 26.9942 22.88C27.3982 23.161 27.746 23.354 28.0792 23.484C27.9233 23.984 27.7566 24.468 27.56 24.948C27.1105 26.026 26.5757 27.057 25.9451 28.031C25.3851 28.87 24.9463 29.495 24.613 29.911C24.0938 30.546 23.5939 31.031 23.0892 31.369C22.5341 31.749 21.8783 31.952 21.2118 31.952C20.7574 31.973 20.3089 31.91 19.8749 31.785C19.5019 31.655 19.1328 31.514 18.7695 31.353C18.3908 31.176 18.0023 31.02 17.6041 30.9C17.1101 30.765 16.6053 30.702 16.1006 30.702C15.5814 30.702 15.0767 30.77 14.602 30.895C14.198 31.015 13.8095 31.155 13.4259 31.327C12.8863 31.561 12.5279 31.718 12.3206 31.785C11.9069 31.91 11.4777 31.988 11.0437 32.014C10.3724 32.014 9.74659 31.816 9.12659 31.415L9.14306 31.401ZM17.9974 6.78602C17.1197 7.23902 16.2818 7.43202 15.4496 7.36902C15.3188 6.50402 15.4496 5.61902 15.7974 4.65002C16.1055 3.82202 16.5191 3.07702 17.0887 2.41002C17.6787 1.71702 18.3908 1.14402 19.1929 0.733023C20.0454 0.280023 20.8582 0.0350234 21.6351 -0.000976562C21.7358 0.905023 21.6351 1.79602 21.3125 2.75902C21.0151 3.61302 20.5762 4.40002 20.0212 5.10302C19.4564 5.79602 18.7598 6.36902 17.9722 6.78502L17.9974 6.78602Z" fill="black"/>
</g>
<defs>
<linearGradient id="paint0_linear_14_1157" x1="0" y1="0" x2="0" y2="32" gradientUnits="userSpaceOnUse">
<stop stop-color="#BBBBBB" stop-opacity="0.1"/>
<stop offset="1" stop-opacity="0.1"/>
</linearGradient>
<clipPath id="clip0_14_1157">
<rect width="31" height="32" fill="white"/>
</clipPath>
</defs>
</svg>
