<svg width="131" height="32" viewBox="0 0 131 32" fill="none" xmlns="http://www.w3.org/2000/svg">
<path d="M126 0H31V32H126C128.761 32 131 29.7614 131 27V5C131 2.23858 128.761 0 126 0Z" fill="#0F1418"/>
<path d="M62.1604 17.22C62.1604 17.96 61.9954 18.63 61.6654 19.23C61.3454 19.82 60.8554 20.29 60.1954 20.64C59.5454 20.98 58.7204 21.15 57.7204 21.15C56.3004 21.15 55.2204 20.79 54.4804 20.07C53.7404 19.34 53.3704 18.38 53.3704 17.19V10.29H55.6354V16.845C55.6354 17.725 55.8154 18.345 56.1754 18.705C56.5354 19.065 57.0704 19.245 57.7804 19.245C58.2804 19.245 58.6854 19.16 58.9954 18.99C59.3054 18.82 59.5304 18.555 59.6704 18.195C59.8204 17.835 59.8954 17.38 59.8954 16.83V10.29H62.1604V17.22ZM67.0183 12.255C67.0183 12.565 67.0083 12.87 66.9883 13.17C66.9683 13.47 66.9483 13.705 66.9283 13.875H67.0183C67.2383 13.535 67.5333 13.25 67.9033 13.02C68.2733 12.78 68.7533 12.66 69.3433 12.66C70.2633 12.66 71.0083 13.02 71.5783 13.74C72.1483 14.45 72.4333 15.5 72.4333 16.89C72.4333 17.82 72.2983 18.605 72.0283 19.245C71.7683 19.875 71.4033 20.35 70.9333 20.67C70.4633 20.99 69.9133 21.15 69.2833 21.15C68.6833 21.15 68.2083 21.045 67.8583 20.835C67.5183 20.615 67.2383 20.37 67.0183 20.1H66.8683L66.4933 21H64.7833V9.6H67.0183V12.255ZM68.6233 14.445C68.2333 14.445 67.9233 14.525 67.6933 14.685C67.4633 14.845 67.2933 15.09 67.1833 15.42C67.0833 15.74 67.0283 16.145 67.0183 16.635V16.875C67.0183 17.665 67.1333 18.275 67.3633 18.705C67.6033 19.125 68.0333 19.335 68.6533 19.335C69.1133 19.335 69.4783 19.125 69.7483 18.705C70.0183 18.275 70.1533 17.66 70.1533 16.86C70.1533 16.06 70.0133 15.46 69.7333 15.06C69.4633 14.65 69.0933 14.445 68.6233 14.445ZM81.9705 12.81V21H80.2605L79.9605 19.95H79.8405C79.6705 20.23 79.4505 20.46 79.1805 20.64C78.9205 20.81 78.6305 20.935 78.3105 21.015C77.9905 21.105 77.6605 21.15 77.3205 21.15C76.7405 21.15 76.2305 21.045 75.7905 20.835C75.3505 20.625 75.0105 20.3 74.7705 19.86C74.5305 19.42 74.4105 18.85 74.4105 18.15V12.81H76.6455V17.595C76.6455 18.175 76.7505 18.615 76.9605 18.915C77.1705 19.215 77.5055 19.365 77.9655 19.365C78.4255 19.365 78.7805 19.26 79.0305 19.05C79.2905 18.84 79.4705 18.535 79.5705 18.135C79.6805 17.735 79.7355 17.245 79.7355 16.665V12.81H81.9705ZM89.1439 12.66C90.0239 12.66 90.7289 12.9 91.2589 13.38C91.7889 13.85 92.0539 14.61 92.0539 15.66V21H89.8189V16.215C89.8189 15.625 89.7139 15.185 89.5039 14.895C89.2939 14.595 88.9589 14.445 88.4989 14.445C87.8189 14.445 87.3539 14.68 87.1039 15.15C86.8539 15.61 86.7289 16.275 86.7289 17.145V21H84.4939V12.81H86.2039L86.5039 13.86H86.6239C86.8039 13.58 87.0239 13.355 87.2839 13.185C87.5439 13.005 87.8339 12.875 88.1539 12.795C88.4739 12.705 88.8039 12.66 89.1439 12.66ZM97.9823 19.365C98.2323 19.365 98.4723 19.34 98.7023 19.29C98.9323 19.24 99.1623 19.18 99.3923 19.11V20.775C99.1523 20.875 98.8523 20.96 98.4923 21.03C98.1423 21.11 97.7573 21.15 97.3373 21.15C96.8473 21.15 96.4073 21.07 96.0173 20.91C95.6373 20.75 95.3323 20.475 95.1023 20.085C94.8823 19.685 94.7723 19.135 94.7723 18.435V14.49H93.7073V13.545L94.9373 12.795L95.5823 11.07H97.0073V12.81H99.3023V14.49H97.0073V18.435C97.0073 18.745 97.0973 18.98 97.2773 19.14C97.4573 19.29 97.6923 19.365 97.9823 19.365ZM108.731 12.81V21H107.021L106.721 19.95H106.601C106.431 20.23 106.211 20.46 105.941 20.64C105.681 20.81 105.391 20.935 105.071 21.015C104.751 21.105 104.421 21.15 104.081 21.15C103.501 21.15 102.991 21.045 102.551 20.835C102.111 20.625 101.771 20.3 101.531 19.86C101.291 19.42 101.171 18.85 101.171 18.15V12.81H103.406V17.595C103.406 18.175 103.511 18.615 103.721 18.915C103.931 19.215 104.266 19.365 104.726 19.365C105.186 19.365 105.541 19.26 105.791 19.05C106.051 18.84 106.231 18.535 106.331 18.135C106.441 17.735 106.496 17.245 106.496 16.665V12.81H108.731Z" fill="white"/>
<path d="M126 0H5C2.23858 0 0 2.23858 0 5V27C0 29.7614 2.23858 32 5 32H126C128.761 32 131 29.7614 131 27V5C131 2.23858 128.761 0 126 0Z" fill="url(#paint0_linear_27_12)"/>
<g clip-path="url(#clip0_27_12)">
<path d="M0 5C0 2.23858 2.23858 0 5 0H31V32H5C2.23858 32 0 29.7614 0 27V5Z" fill="#E9500E"/>
<path d="M4.40423 19.8125C6.83662 19.8125 8.80846 17.6968 8.80846 15.087C8.80846 12.4772 6.83662 10.3616 4.40423 10.3616C1.97184 10.3616 0 12.4772 0 15.087C0 17.6968 1.97184 19.8125 4.40423 19.8125Z" fill="white"/>
<path d="M22.7462 9.45089C25.1786 9.45089 27.1504 7.33524 27.1504 4.72545C27.1504 2.11565 25.1786 0 22.7462 0C20.3138 0 18.342 2.11565 18.342 4.72545C18.342 7.33524 20.3138 9.45089 22.7462 9.45089Z" fill="white"/>
<path d="M14.3373 27.2484C12.7806 26.8952 11.3167 26.1749 10.0516 25.1397C8.78652 24.1045 7.75191 22.7802 7.02277 21.2629C5.84422 21.837 4.53015 22.0103 3.25711 21.7596C4.13762 24.0955 5.53944 26.1636 7.33936 27.7821C9.13928 29.4007 11.2822 30.52 13.5797 31.0419C14.6075 31.2782 15.6561 31.394 16.7072 31.3872C15.8986 30.2498 15.4471 28.8665 15.4176 27.4364C15.0549 27.3931 14.6926 27.33 14.3373 27.2484Z" fill="white"/>
<path d="M21.754 32C24.1864 32 26.1582 29.8843 26.1582 27.2745C26.1582 24.6647 24.1864 22.5491 21.754 22.5491C19.3216 22.5491 17.3497 24.6647 17.3497 27.2745C17.3497 29.8843 19.3216 32 21.754 32Z" fill="white"/>
<path d="M27.8826 25.5389C29.7706 22.9834 30.8571 19.8528 30.9868 16.5948C31.1165 13.3369 30.2827 10.1183 28.6047 7.39941C28.096 8.68464 27.2314 9.77105 26.128 10.5115C27.0091 12.2961 27.44 14.2968 27.3781 16.3153C27.3162 18.3337 26.7636 20.2997 25.7751 22.0183C26.8062 22.9239 27.5438 24.1562 27.8826 25.5389V25.5389Z" fill="white"/>
<path d="M4.06442 8.31029C4.1762 8.30371 4.28803 8.30045 4.39992 8.30052C5.57997 8.30143 6.73648 8.65479 7.73994 9.32102C8.71081 7.81642 10.0017 6.5815 11.5057 5.71845C13.0097 4.85541 14.6836 4.38905 16.389 4.35796C16.4602 2.96433 16.9264 1.62726 17.7251 0.525655C12.1868 0.0550623 6.80519 3.12147 4.06442 8.31029Z" fill="white"/>
</g>
<defs>
<linearGradient id="paint0_linear_27_12" x1="0" y1="0" x2="0" y2="32" gradientUnits="userSpaceOnUse">
<stop stop-color="#BBBBBB" stop-opacity="0.1"/>
<stop offset="1" stop-opacity="0.1"/>
</linearGradient>
<clipPath id="clip0_27_12">
<path d="M0 5C0 2.23858 2.23858 0 5 0H31V32H5C2.23858 32 0 29.7614 0 27V5Z" fill="white"/>
</clipPath>
</defs>
</svg>
