<svg width="180" height="32" viewBox="0 0 180 32" fill="none" xmlns="http://www.w3.org/2000/svg">
<path d="M175 0H31V32H175C177.761 32 180 29.7614 180 27V5C180 2.23858 177.761 0 175 0Z" fill="#0F1418"/>
<path d="M55.4954 15.54C55.4954 16.74 55.2654 17.745 54.8054 18.555C54.3454 19.365 53.6754 19.975 52.7954 20.385C51.9254 20.795 50.8754 21 49.6454 21H46.6154V10.29H49.9754C51.0954 10.29 52.0654 10.49 52.8854 10.89C53.7154 11.29 54.3554 11.88 54.8054 12.66C55.2654 13.43 55.4954 14.39 55.4954 15.54ZM53.1404 15.6C53.1404 14.81 53.0254 14.16 52.7954 13.65C52.5654 13.14 52.2204 12.765 51.7604 12.525C51.3104 12.275 50.7554 12.15 50.0954 12.15H48.8804V19.125H49.8554C50.9654 19.125 51.7904 18.83 52.3304 18.24C52.8704 17.65 53.1404 16.77 53.1404 15.6ZM61.0789 12.645C62.1789 12.645 63.0189 12.885 63.5989 13.365C64.1889 13.835 64.4839 14.56 64.4839 15.54V21H62.9239L62.4889 19.89H62.4289C62.1989 20.18 61.9589 20.42 61.7089 20.61C61.4689 20.8 61.1889 20.935 60.8689 21.015C60.5589 21.105 60.1739 21.15 59.7139 21.15C59.2339 21.15 58.7989 21.06 58.4089 20.88C58.0289 20.69 57.7289 20.405 57.5089 20.025C57.2889 19.635 57.1789 19.145 57.1789 18.555C57.1789 17.685 57.4839 17.045 58.0939 16.635C58.7039 16.215 59.6189 15.985 60.8389 15.945L62.2639 15.9V15.54C62.2639 15.11 62.1489 14.795 61.9189 14.595C61.6989 14.395 61.3889 14.295 60.9889 14.295C60.5889 14.295 60.1989 14.355 59.8189 14.475C59.4389 14.585 59.0589 14.725 58.6789 14.895L57.9439 13.38C58.3839 13.15 58.8689 12.97 59.3989 12.84C59.9389 12.71 60.4989 12.645 61.0789 12.645ZM61.3939 17.235C60.6739 17.255 60.1739 17.385 59.8939 17.625C59.6139 17.865 59.4739 18.18 59.4739 18.57C59.4739 18.91 59.5739 19.155 59.7739 19.305C59.9739 19.445 60.2339 19.515 60.5539 19.515C61.0339 19.515 61.4389 19.375 61.7689 19.095C62.0989 18.805 62.2639 18.4 62.2639 17.88V17.205L61.3939 17.235ZM70.4016 19.365C70.6516 19.365 70.8916 19.34 71.1216 19.29C71.3516 19.24 71.5816 19.18 71.8116 19.11V20.775C71.5716 20.875 71.2716 20.96 70.9116 21.03C70.5616 21.11 70.1766 21.15 69.7566 21.15C69.2666 21.15 68.8266 21.07 68.4366 20.91C68.0566 20.75 67.7516 20.475 67.5216 20.085C67.3016 19.685 67.1916 19.135 67.1916 18.435V14.49H66.1266V13.545L67.3566 12.795L68.0016 11.07H69.4266V12.81H71.7216V14.49H69.4266V18.435C69.4266 18.745 69.5166 18.98 69.6966 19.14C69.8766 19.29 70.1116 19.365 70.4016 19.365ZM76.9955 12.645C78.0955 12.645 78.9355 12.885 79.5155 13.365C80.1056 13.835 80.4006 14.56 80.4006 15.54V21H78.8405L78.4055 19.89H78.3455C78.1155 20.18 77.8755 20.42 77.6255 20.61C77.3855 20.8 77.1055 20.935 76.7855 21.015C76.4755 21.105 76.0905 21.15 75.6305 21.15C75.1505 21.15 74.7155 21.06 74.3255 20.88C73.9455 20.69 73.6455 20.405 73.4255 20.025C73.2055 19.635 73.0955 19.145 73.0955 18.555C73.0955 17.685 73.4005 17.045 74.0105 16.635C74.6205 16.215 75.5355 15.985 76.7555 15.945L78.1805 15.9V15.54C78.1805 15.11 78.0655 14.795 77.8355 14.595C77.6155 14.395 77.3055 14.295 76.9055 14.295C76.5055 14.295 76.1155 14.355 75.7355 14.475C75.3555 14.585 74.9755 14.725 74.5955 14.895L73.8605 13.38C74.3005 13.15 74.7855 12.97 75.3155 12.84C75.8555 12.71 76.4155 12.645 76.9955 12.645ZM77.3105 17.235C76.5905 17.255 76.0905 17.385 75.8105 17.625C75.5305 17.865 75.3905 18.18 75.3905 18.57C75.3905 18.91 75.4905 19.155 75.6905 19.305C75.8905 19.445 76.1505 19.515 76.4705 19.515C76.9505 19.515 77.3555 19.375 77.6855 19.095C78.0155 18.805 78.1805 18.4 78.1805 17.88V17.205L77.3105 17.235ZM93.4398 18.03C93.4398 18.66 93.2848 19.21 92.9748 19.68C92.6648 20.15 92.2148 20.515 91.6248 20.775C91.0448 21.025 90.3348 21.15 89.4948 21.15C89.1248 21.15 88.7598 21.125 88.3998 21.075C88.0498 21.025 87.7098 20.955 87.3798 20.865C87.0598 20.765 86.7548 20.645 86.4648 20.505V18.39C86.9748 18.61 87.4998 18.815 88.0398 19.005C88.5898 19.185 89.1348 19.275 89.6748 19.275C90.0448 19.275 90.3398 19.225 90.5598 19.125C90.7898 19.025 90.9548 18.89 91.0548 18.72C91.1648 18.55 91.2198 18.355 91.2198 18.135C91.2198 17.865 91.1248 17.635 90.9348 17.445C90.7548 17.255 90.5098 17.08 90.1998 16.92C89.8898 16.75 89.5348 16.57 89.1348 16.38C88.8848 16.26 88.6148 16.12 88.3248 15.96C88.0348 15.79 87.7548 15.585 87.4848 15.345C87.2248 15.095 87.0098 14.795 86.8398 14.445C86.6698 14.095 86.5848 13.675 86.5848 13.185C86.5848 12.545 86.7298 12 87.0198 11.55C87.3198 11.09 87.7398 10.74 88.2798 10.5C88.8298 10.26 89.4748 10.14 90.2148 10.14C90.7748 10.14 91.3048 10.205 91.8048 10.335C92.3148 10.465 92.8448 10.65 93.3948 10.89L92.6598 12.66C92.1698 12.46 91.7298 12.305 91.3398 12.195C90.9498 12.085 90.5498 12.03 90.1398 12.03C89.8598 12.03 89.6198 12.075 89.4198 12.165C89.2198 12.255 89.0648 12.38 88.9548 12.54C88.8548 12.7 88.8048 12.89 88.8048 13.11C88.8048 13.36 88.8798 13.575 89.0298 13.755C89.1798 13.925 89.4048 14.09 89.7048 14.25C90.0048 14.41 90.3798 14.6 90.8298 14.82C91.3798 15.08 91.8448 15.35 92.2248 15.63C92.6148 15.91 92.9148 16.24 93.1248 16.62C93.3348 17 93.4398 17.47 93.4398 18.03ZM98.8365 19.365C99.0865 19.365 99.3265 19.34 99.5565 19.29C99.7865 19.24 100.016 19.18 100.246 19.11V20.775C100.006 20.875 99.7065 20.96 99.3465 21.03C98.9965 21.11 98.6115 21.15 98.1915 21.15C97.7015 21.15 97.2615 21.07 96.8715 20.91C96.4915 20.75 96.1865 20.475 95.9565 20.085C95.7365 19.685 95.6265 19.135 95.6265 18.435V14.49H94.5615V13.545L95.7915 12.795L96.4365 11.07H97.8615V12.81H100.156V14.49H97.8615V18.435C97.8615 18.745 97.9515 18.98 98.1315 19.14C98.3115 19.29 98.5465 19.365 98.8365 19.365ZM106.645 12.66C106.755 12.66 106.885 12.665 107.035 12.675C107.185 12.685 107.305 12.7 107.395 12.72L107.23 14.82C107.16 14.8 107.055 14.785 106.915 14.775C106.785 14.755 106.67 14.745 106.57 14.745C106.28 14.745 106 14.785 105.73 14.865C105.46 14.935 105.215 15.05 104.995 15.21C104.785 15.37 104.615 15.585 104.485 15.855C104.365 16.115 104.305 16.44 104.305 16.83V21H102.07V12.81H103.765L104.095 14.19H104.2C104.36 13.91 104.56 13.655 104.8 13.425C105.04 13.195 105.315 13.01 105.625 12.87C105.945 12.73 106.285 12.66 106.645 12.66ZM116.577 12.81V21H114.867L114.567 19.95H114.447C114.277 20.23 114.057 20.46 113.787 20.64C113.527 20.81 113.237 20.935 112.917 21.015C112.597 21.105 112.267 21.15 111.927 21.15C111.347 21.15 110.837 21.045 110.397 20.835C109.957 20.625 109.617 20.3 109.377 19.86C109.137 19.42 109.017 18.85 109.017 18.15V12.81H111.252V17.595C111.252 18.175 111.357 18.615 111.567 18.915C111.777 19.215 112.112 19.365 112.572 19.365C113.032 19.365 113.387 19.26 113.637 19.05C113.897 18.84 114.077 18.535 114.177 18.135C114.287 17.735 114.342 17.245 114.342 16.665V12.81H116.577ZM122.43 21.15C121.62 21.15 120.93 21.005 120.36 20.715C119.79 20.415 119.355 19.955 119.055 19.335C118.755 18.715 118.605 17.92 118.605 16.95C118.605 15.95 118.775 15.135 119.115 14.505C119.455 13.875 119.925 13.41 120.525 13.11C121.135 12.81 121.835 12.66 122.625 12.66C123.185 12.66 123.67 12.715 124.08 12.825C124.5 12.935 124.865 13.065 125.175 13.215L124.515 14.94C124.165 14.8 123.835 14.685 123.525 14.595C123.225 14.505 122.925 14.46 122.625 14.46C122.235 14.46 121.91 14.555 121.65 14.745C121.39 14.925 121.195 15.2 121.065 15.57C120.945 15.93 120.885 16.385 120.885 16.935C120.885 17.475 120.95 17.925 121.08 18.285C121.22 18.635 121.42 18.9 121.68 19.08C121.94 19.25 122.255 19.335 122.625 19.335C123.095 19.335 123.51 19.275 123.87 19.155C124.23 19.025 124.58 18.85 124.92 18.63V20.535C124.58 20.755 124.22 20.91 123.84 21C123.47 21.1 123 21.15 122.43 21.15ZM130.435 19.365C130.685 19.365 130.925 19.34 131.155 19.29C131.385 19.24 131.615 19.18 131.845 19.11V20.775C131.605 20.875 131.305 20.96 130.945 21.03C130.595 21.11 130.21 21.15 129.79 21.15C129.3 21.15 128.86 21.07 128.47 20.91C128.09 20.75 127.785 20.475 127.555 20.085C127.335 19.685 127.225 19.135 127.225 18.435V14.49H126.16V13.545L127.39 12.795L128.035 11.07H129.46V12.81H131.755V14.49H129.46V18.435C129.46 18.745 129.55 18.98 129.73 19.14C129.91 19.29 130.145 19.365 130.435 19.365ZM141.184 12.81V21H139.474L139.174 19.95H139.054C138.884 20.23 138.664 20.46 138.394 20.64C138.134 20.81 137.844 20.935 137.524 21.015C137.204 21.105 136.874 21.15 136.534 21.15C135.954 21.15 135.444 21.045 135.004 20.835C134.564 20.625 134.224 20.3 133.984 19.86C133.744 19.42 133.624 18.85 133.624 18.15V12.81H135.859V17.595C135.859 18.175 135.964 18.615 136.174 18.915C136.384 19.215 136.719 19.365 137.179 19.365C137.639 19.365 137.994 19.26 138.244 19.05C138.504 18.84 138.684 18.535 138.784 18.135C138.894 17.735 138.949 17.245 138.949 16.665V12.81H141.184ZM148.283 12.66C148.393 12.66 148.523 12.665 148.673 12.675C148.823 12.685 148.943 12.7 149.033 12.72L148.868 14.82C148.798 14.8 148.693 14.785 148.553 14.775C148.423 14.755 148.308 14.745 148.208 14.745C147.918 14.745 147.638 14.785 147.368 14.865C147.098 14.935 146.853 15.05 146.633 15.21C146.423 15.37 146.253 15.585 146.123 15.855C146.003 16.115 145.943 16.44 145.943 16.83V21H143.708V12.81H145.403L145.733 14.19H145.838C145.998 13.91 146.198 13.655 146.438 13.425C146.678 13.195 146.953 13.01 147.263 12.87C147.583 12.73 147.923 12.66 148.283 12.66ZM153.781 12.66C154.541 12.66 155.191 12.805 155.731 13.095C156.281 13.385 156.706 13.805 157.006 14.355C157.306 14.905 157.456 15.58 157.456 16.38V17.46H152.176C152.196 18.09 152.381 18.585 152.731 18.945C153.091 19.305 153.586 19.485 154.216 19.485C154.746 19.485 155.226 19.435 155.656 19.335C156.086 19.225 156.531 19.06 156.991 18.84V20.565C156.591 20.765 156.166 20.91 155.716 21C155.276 21.1 154.741 21.15 154.111 21.15C153.291 21.15 152.566 21 151.936 20.7C151.306 20.39 150.811 19.925 150.451 19.305C150.091 18.685 149.911 17.905 149.911 16.965C149.911 16.005 150.071 15.21 150.391 14.58C150.721 13.94 151.176 13.46 151.756 13.14C152.336 12.82 153.011 12.66 153.781 12.66ZM153.796 14.25C153.366 14.25 153.006 14.39 152.716 14.67C152.436 14.95 152.271 15.385 152.221 15.975H155.356C155.356 15.645 155.296 15.35 155.176 15.09C155.066 14.83 154.896 14.625 154.666 14.475C154.436 14.325 154.146 14.25 153.796 14.25ZM165.164 18.57C165.164 19.12 165.034 19.59 164.774 19.98C164.514 20.36 164.124 20.65 163.604 20.85C163.084 21.05 162.439 21.15 161.669 21.15C161.099 21.15 160.609 21.11 160.199 21.03C159.789 20.96 159.379 20.84 158.969 20.67V18.825C159.409 19.025 159.884 19.19 160.394 19.32C160.904 19.45 161.354 19.515 161.744 19.515C162.184 19.515 162.494 19.45 162.674 19.32C162.864 19.19 162.959 19.02 162.959 18.81C162.959 18.67 162.919 18.545 162.839 18.435C162.769 18.325 162.609 18.2 162.359 18.06C162.109 17.92 161.719 17.74 161.189 17.52C160.679 17.3 160.259 17.085 159.929 16.875C159.599 16.655 159.354 16.395 159.194 16.095C159.034 15.785 158.954 15.4 158.954 14.94C158.954 14.18 159.249 13.61 159.839 13.23C160.429 12.85 161.214 12.66 162.194 12.66C162.704 12.66 163.189 12.71 163.649 12.81C164.109 12.91 164.584 13.075 165.074 13.305L164.399 14.91C164.129 14.79 163.869 14.685 163.619 14.595C163.369 14.505 163.124 14.435 162.884 14.385C162.654 14.335 162.414 14.31 162.164 14.31C161.834 14.31 161.584 14.355 161.414 14.445C161.254 14.535 161.174 14.67 161.174 14.85C161.174 14.98 161.214 15.1 161.294 15.21C161.384 15.31 161.549 15.42 161.789 15.54C162.039 15.66 162.404 15.82 162.884 16.02C163.354 16.21 163.759 16.41 164.099 16.62C164.439 16.82 164.699 17.075 164.879 17.385C165.069 17.685 165.164 18.08 165.164 18.57Z" fill="white"/>
<path d="M175 0H5C2.23858 0 0 2.23858 0 5V27C0 29.7614 2.23858 32 5 32H175C177.761 32 180 29.7614 180 27V5C180 2.23858 177.761 0 175 0Z" fill="url(#paint0_linear_31_758)"/>
<g clip-path="url(#clip0_31_758)">
<path d="M0 5C0 2.23858 2.23858 0 5 0H31V32H5C2.23858 32 0 29.7614 0 27V5Z" fill="#613079"/>
<path d="M29.8846 23.3747H28.9103V21.3764C28.9103 20.7213 28.5513 20.2449 28.0513 20.2449H24.6474V17.8363H25.6218C26.2308 17.8363 26.7244 17.3268 26.7244 16.6981V14.713C26.7244 14.0844 26.2308 13.5749 25.6218 13.5749H24.6474V11.5699C24.6474 10.9479 24.1538 10.4384 23.5513 10.4384H16.1026V8.63198H17.0897C17.6987 8.63198 18.1923 8.12247 18.1923 7.49385V5.50874C18.1923 4.88012 17.6987 4.37061 17.0897 4.37061H13.891C13.2821 4.37061 12.7885 4.88012 12.7885 5.50874V7.49385C12.7885 8.12247 13.2821 8.63198 13.891 8.63198H14.859V10.4384H7.44231C6.83974 10.4384 6.34615 10.9479 6.34615 11.5699V13.5683H5.36538C4.75641 13.5683 4.26282 14.0778 4.26282 14.7064V16.6915C4.26282 17.3201 4.75641 17.8297 5.36538 17.8297H6.33974V20.2383H2.94231C2.44231 20.2383 2.08333 20.7147 2.08333 21.3698V23.3681H1.10256C0.49359 23.3681 0 23.8776 0 24.5063V26.4914C0 27.12 0.49359 27.6295 1.10256 27.6295H4.30128C4.91026 27.6295 5.40385 27.12 5.40385 26.4914V24.5063C5.40385 23.8776 4.91026 23.3681 4.30128 23.3681H3.32692V21.522H10.609V23.3681H9.63462C9.02564 23.3681 8.53205 23.8776 8.53205 24.5063V26.4914C8.53205 27.12 9.02564 27.6295 9.63462 27.6295H12.8333C13.4423 27.6295 13.9359 27.12 13.9359 26.4914V24.5063C13.9359 23.8776 13.4423 23.3681 12.8333 23.3681H11.859V21.3698C11.859 20.7147 11.5 20.2383 11 20.2383H7.59615V17.8297H8.57051C9.17949 17.8297 9.67308 17.3201 9.67308 16.6915V14.7064C9.67308 14.0778 9.17949 13.5683 8.57051 13.5683H7.59615V11.7221H14.8654V13.5683H13.8974C13.2885 13.5683 12.7949 14.0778 12.7949 14.7064V16.6915C12.7949 17.3201 13.2885 17.8297 13.8974 17.8297H17.0962C17.7051 17.8297 18.1987 17.3201 18.1987 16.6915V14.7064C18.1987 14.0778 17.7051 13.5683 17.0962 13.5683H16.109V11.7221H23.4038V13.5683H22.4295C21.8205 13.5683 21.3269 14.0778 21.3269 14.7064V16.6915C21.3269 17.3201 21.8205 17.8297 22.4295 17.8297H23.4038V20.2383H20C19.5 20.2383 19.141 20.7147 19.141 21.3698V23.3681H18.1667C17.5577 23.3681 17.0641 23.8776 17.0641 24.5063V26.4914C17.0641 27.12 17.5577 27.6295 18.1667 27.6295H21.3654C21.9744 27.6295 22.4679 27.12 22.4679 26.4914V24.5063C22.4679 23.8776 21.9744 23.3681 21.3654 23.3681H20.391V21.522H27.6731V23.3681H26.6987C26.0897 23.3681 25.5962 23.8776 25.5962 24.5063V26.4914C25.5962 27.12 26.0897 27.6295 26.6987 27.6295H29.8974C30.5064 27.6295 31 27.12 31 26.4914V24.5063C30.9808 23.8843 30.4936 23.3747 29.8846 23.3747Z" fill="white"/>
</g>
<defs>
<linearGradient id="paint0_linear_31_758" x1="0" y1="0" x2="0" y2="32" gradientUnits="userSpaceOnUse">
<stop stop-color="#BBBBBB" stop-opacity="0.1"/>
<stop offset="1" stop-opacity="0.1"/>
</linearGradient>
<clipPath id="clip0_31_758">
<path d="M0 5C0 2.23858 2.23858 0 5 0H31V32H5C2.23858 32 0 29.7614 0 27V5Z" fill="white"/>
</clipPath>
</defs>
</svg>
