<svg width="80" height="32" viewBox="0 0 80 32" fill="none" xmlns="http://www.w3.org/2000/svg">
<path d="M75 0H31V32H75C77.7614 32 80 29.7614 80 27V5C80 2.23858 77.7614 0 75 0Z" fill="#0F1418"/>
<path d="M49.9741 21L47.3941 12.6H47.3341C47.3441 12.8 47.3591 13.1 47.3791 13.5C47.3991 13.9 47.4191 14.33 47.4391 14.79C47.4591 15.24 47.4691 15.65 47.4691 16.02V21H45.4441V10.29H48.5341L51.0691 18.48H51.1141L53.7991 10.29H56.8891V21H54.7741V15.93C54.7741 15.59 54.7791 15.2 54.7891 14.76C54.8091 14.32 54.8241 13.905 54.8341 13.515C54.8541 13.115 54.8691 12.815 54.8791 12.615H54.8191L52.0591 21H49.9741ZM59.7745 21V10.29H62.0395V19.125H66.3895V21H59.7745Z" fill="white"/>
<path d="M75 0H5C2.23858 0 0 2.23858 0 5V27C0 29.7614 2.23858 32 5 32H75C77.7614 32 80 29.7614 80 27V5C80 2.23858 77.7614 0 75 0Z" fill="url(#paint0_linear_30_748)"/>
<g clip-path="url(#clip0_30_748)">
<path d="M0 5C0 2.23858 2.23858 0 5 0H31V32H5C2.23858 32 0 29.7614 0 27V5Z" fill="#613079"/>
<path d="M17.5436 2.32294C18.092 3.2396 18.4675 5.51304 18.6647 8.52346H22.1686V5.32815C22.093 5.29429 22.02 5.25523 21.9498 5.21096C21.8174 5.13023 21.6958 5.03648 21.5905 4.93492L21.577 4.9219C21.3906 4.74221 21.242 4.52606 21.1393 4.28648C21.0367 4.0495 20.9799 3.78908 20.9799 3.51565C20.9799 3.24481 21.0367 2.987 21.1393 2.74742C21.2447 2.50002 21.4014 2.27867 21.5905 2.09377C21.7823 1.90887 22.0119 1.76044 22.2686 1.65887C22.5144 1.55992 22.7846 1.50523 23.0655 1.50523C23.3465 1.50523 23.6139 1.55992 23.8625 1.65887C24.1191 1.76044 24.3487 1.91148 24.5405 2.09377C24.7324 2.27867 24.8863 2.50002 24.9917 2.74481L24.9971 2.76044C25.0944 2.99481 25.1484 3.25002 25.1484 3.51304C25.1484 3.78387 25.0917 4.04169 24.989 4.28127C24.8836 4.52867 24.727 4.75002 24.5378 4.93492L24.5216 4.95054C24.4271 5.03908 24.3217 5.12242 24.211 5.19273C24.1515 5.23179 24.0894 5.26565 24.0246 5.2995V9.4245C24.0246 9.6719 23.9192 9.89585 23.7517 10.0573C23.5842 10.2188 23.3519 10.3203 23.0952 10.3203H18.7566C18.789 11.1771 18.8106 12.0781 18.8187 13.0078H27.0422C27.0773 12.9401 27.1151 12.875 27.1556 12.8125L27.1664 12.7995C27.2448 12.6823 27.3366 12.5755 27.4339 12.4818C27.6257 12.2969 27.8553 12.1485 28.112 12.0469L28.1282 12.0417C28.3713 11.9479 28.6361 11.8933 28.9089 11.8933C29.1899 11.8933 29.4573 11.9479 29.7059 12.0469C29.9625 12.1485 30.1921 12.2995 30.3839 12.4818C30.5758 12.6667 30.7297 12.888 30.8351 13.1354C30.9378 13.375 30.9945 13.6328 30.9945 13.9037C30.9945 14.1745 30.9378 14.4323 30.8351 14.6719C30.7297 14.9193 30.5731 15.1406 30.3839 15.3255C30.1921 15.5104 29.9625 15.6589 29.7059 15.7604L29.6897 15.7656C29.4465 15.8594 29.1818 15.9115 28.9089 15.9115C28.628 15.9115 28.3578 15.8568 28.112 15.7578C27.858 15.6563 27.6284 15.5078 27.4339 15.3229C27.3312 15.224 27.2394 15.1146 27.1583 14.9922C27.1151 14.9297 27.0773 14.8646 27.0422 14.7969H18.8214C18.8133 15.8125 18.7917 16.8516 18.7566 17.9089H28.809C29.0656 17.9089 29.2979 18.0104 29.4654 18.1719C29.6329 18.3334 29.7383 18.5573 29.7383 18.8047V25.4531C29.8274 25.4896 29.9112 25.5313 29.9922 25.5781C30.1381 25.6615 30.2705 25.763 30.3894 25.8776C30.5812 26.0625 30.7351 26.2839 30.8405 26.5313L30.8459 26.5469C30.9432 26.7813 30.9999 27.0365 30.9999 27.2995C30.9999 27.5703 30.9432 27.8281 30.8405 28.0677C30.7351 28.3151 30.5785 28.5365 30.3894 28.7214C30.1975 28.9063 29.9679 29.0547 29.7113 29.1563C29.4654 29.2552 29.1953 29.3099 28.9143 29.3099C28.6334 29.3099 28.3659 29.2552 28.1174 29.1563C27.8607 29.0547 27.6311 28.9037 27.4393 28.7214C27.2475 28.5365 27.0935 28.3151 26.9881 28.0677C26.8855 27.8308 26.8287 27.5703 26.8287 27.2995C26.8287 27.0287 26.8855 26.7683 26.9881 26.5313C27.0935 26.2839 27.2502 26.0625 27.4393 25.8776C27.5257 25.7943 27.623 25.7162 27.7256 25.6459C27.7743 25.612 27.8256 25.5808 27.8796 25.5521V19.7031H18.6836C18.6431 20.5469 18.5945 21.3933 18.5351 22.237H21.5175C21.7742 22.237 22.0065 22.3386 22.174 22.5C22.3415 22.6615 22.4469 22.8854 22.4469 23.1328V26.6901C22.5144 26.724 22.5765 26.7604 22.6414 26.7995C22.7656 26.8776 22.8764 26.9662 22.9764 27.0625L22.9926 27.0781C23.1763 27.2604 23.3276 27.4766 23.4302 27.7162C23.5329 27.9531 23.5896 28.2136 23.5896 28.4844C23.5896 28.7552 23.5329 29.0156 23.4302 29.2526L23.4221 29.2683C23.3168 29.5104 23.1628 29.7266 22.9764 29.9063L22.9629 29.9193C22.7738 30.099 22.5495 30.2448 22.3037 30.3438C22.0578 30.4427 21.785 30.4974 21.504 30.4974C21.2231 30.4974 20.9556 30.4427 20.7071 30.3438C20.4504 30.2422 20.2208 30.0912 20.029 29.9089L20.0128 29.8933C19.8291 29.711 19.6778 29.4948 19.5751 29.2552C19.4725 29.0156 19.4158 28.7578 19.4158 28.487C19.4158 28.2162 19.4725 27.9584 19.5751 27.7188C19.6805 27.4714 19.8345 27.25 20.0263 27.0651C20.1317 26.9636 20.2505 26.8724 20.3748 26.7943C20.4423 26.7526 20.5126 26.7136 20.5855 26.6797V24.0313H18.3973C18.3676 24.388 18.3351 24.7448 18.3027 25.099C18.2595 25.5573 18.1217 26.4037 18.2109 26.8229C18.4486 27.9349 17.4085 31.2891 14.3504 31.9063C12.8429 32.2084 11.2842 31.763 10.109 30.8776C9.16887 30.1719 8.46377 29.1797 8.20983 28.0573C7.71815 28.0391 7.21837 27.9427 6.7321 27.7865C5.65689 27.4375 4.62221 26.7578 3.81445 25.8568C3.00129 24.9531 2.41236 23.8177 2.22595 22.5547C2.1314 21.8959 2.14491 21.2084 2.29619 20.5C1.76939 20.0391 1.31554 19.5209 0.956236 18.9558C0.329482 17.9896 -0.0136117 16.9011 -0.000104045 15.7813C0.0134036 14.6537 0.386214 13.5104 1.19397 12.4479C1.66404 11.8308 2.28268 11.2422 3.06613 10.7031C3.05802 10.4974 3.05802 10.2917 3.06343 10.0886C3.12556 8.44273 3.75502 6.99481 4.67353 5.91408C5.62447 4.79429 6.89689 4.06252 8.20443 3.88283H8.20983C8.25576 3.69794 8.30979 3.51565 8.38003 3.33856C8.80146 2.237 9.66865 1.2995 10.7304 0.703146C11.8002 0.104187 13.0834 -0.161438 14.3342 0.0885621C15.5364 0.333354 16.6818 1.02606 17.5436 2.32294ZM8.31249 25.836C8.75554 24.4922 9.9253 23.1511 12.1324 22.0651C12.6836 21.7969 13.3535 22.0052 13.6372 22.5339C13.9155 23.0651 13.6993 23.711 13.1509 23.9844C11.1059 24.9922 10.3359 26.1485 10.3359 27.1563C10.3359 27.9427 10.8006 28.6771 11.476 29.1875C12.1622 29.7005 13.0483 29.9688 13.8857 29.8021C14.9285 29.5938 15.9335 28.6641 16.4549 26.638V5.33596C15.9335 3.32554 14.9285 2.40106 13.8884 2.19273C13.2022 2.05471 12.4728 2.21096 11.8515 2.56252C11.222 2.91408 10.7168 3.45575 10.4764 4.08075C10.1576 4.91408 10.3467 5.93752 11.4273 6.90106C11.8758 7.30471 11.9055 7.97919 11.4868 8.41148C11.068 8.84377 10.3683 8.87242 9.9199 8.46877C9.07972 7.71877 8.56103 6.9219 8.30168 6.12763C7.63981 6.28127 6.98604 6.70315 6.45654 7.32294C5.83789 8.0495 5.41375 9.03388 5.37053 10.1641C5.35972 10.4636 5.37593 10.7813 5.42186 11.1068H5.41916C5.47859 11.5287 5.28408 11.9662 4.88425 12.2031C4.0738 12.6823 3.47676 13.211 3.05802 13.7604C2.55014 14.4271 2.3178 15.1276 2.3097 15.8021C2.3016 16.487 2.52042 17.1693 2.91214 17.7813C3.24443 18.2995 3.69828 18.7735 4.2521 19.1693C4.66813 19.4453 4.86264 19.961 4.69245 20.4427C4.47362 21.0677 4.42499 21.6745 4.50874 22.2396C4.62761 23.0521 5.01933 23.7943 5.55423 24.3906C6.09184 24.9896 6.77262 25.4375 7.46961 25.6667C7.75057 25.7709 8.03423 25.8229 8.31249 25.836ZM8.56643 10.7031C9.00408 10.2891 9.70648 10.2943 10.1387 10.7162C10.5683 11.138 10.5629 11.8151 10.1252 12.2318C9.17157 13.138 8.67449 14.3047 8.62046 15.4974C8.56913 16.7266 8.98247 17.9922 9.85236 19.0313C10.2387 19.4922 10.1603 20.1667 9.68216 20.5391C9.20399 20.9115 8.5043 20.836 8.11798 20.375C6.89959 18.9193 6.32146 17.1485 6.39441 15.4115C6.47275 13.6875 7.19136 12.0052 8.56643 10.7031Z" fill="white"/>
</g>
<defs>
<linearGradient id="paint0_linear_30_748" x1="0" y1="0" x2="0" y2="32" gradientUnits="userSpaceOnUse">
<stop stop-color="#BBBBBB" stop-opacity="0.1"/>
<stop offset="1" stop-opacity="0.1"/>
</linearGradient>
<clipPath id="clip0_30_748">
<path d="M0 5C0 2.23858 2.23858 0 5 0H31V32H5C2.23858 32 0 29.7614 0 27V5Z" fill="white"/>
</clipPath>
</defs>
</svg>
