<svg width="112" height="32" viewBox="0 0 112 32" fill="none" xmlns="http://www.w3.org/2000/svg">
<path d="M107 0H31V32H107C109.761 32 112 29.7614 112 27V5C112 2.23858 109.761 0 107 0Z" fill="#0F1418"/>
<path d="M56.9401 18.03C56.9401 18.66 56.7851 19.21 56.4751 19.68C56.1651 20.15 55.7151 20.515 55.1251 20.775C54.5451 21.025 53.8351 21.15 52.9951 21.15C52.6251 21.15 52.2601 21.125 51.9001 21.075C51.5501 21.025 51.2101 20.955 50.8801 20.865C50.5601 20.765 50.2551 20.645 49.9651 20.505V18.39C50.4751 18.61 51.0001 18.815 51.5401 19.005C52.0901 19.185 52.6351 19.275 53.1751 19.275C53.5451 19.275 53.8401 19.225 54.0601 19.125C54.2901 19.025 54.4551 18.89 54.5551 18.72C54.6651 18.55 54.7201 18.355 54.7201 18.135C54.7201 17.865 54.6251 17.635 54.4351 17.445C54.2551 17.255 54.0101 17.08 53.7001 16.92C53.3901 16.75 53.0351 16.57 52.6351 16.38C52.3851 16.26 52.1151 16.12 51.8251 15.96C51.5351 15.79 51.2551 15.585 50.9851 15.345C50.7251 15.095 50.5101 14.795 50.3401 14.445C50.1701 14.095 50.0851 13.675 50.0851 13.185C50.0851 12.545 50.2301 12 50.5201 11.55C50.8201 11.09 51.2401 10.74 51.7801 10.5C52.3301 10.26 52.9751 10.14 53.7151 10.14C54.2751 10.14 54.8051 10.205 55.3051 10.335C55.8151 10.465 56.3451 10.65 56.8951 10.89L56.1601 12.66C55.6701 12.46 55.2301 12.305 54.8401 12.195C54.4501 12.085 54.0501 12.03 53.6401 12.03C53.3601 12.03 53.1201 12.075 52.9201 12.165C52.7201 12.255 52.5651 12.38 52.4551 12.54C52.3551 12.7 52.3051 12.89 52.3051 13.11C52.3051 13.36 52.3801 13.575 52.5301 13.755C52.6801 13.925 52.9051 14.09 53.2051 14.25C53.5051 14.41 53.8801 14.6 54.3301 14.82C54.8801 15.08 55.3451 15.35 55.7251 15.63C56.1151 15.91 56.4151 16.24 56.6251 16.62C56.8351 17 56.9401 17.47 56.9401 18.03ZM62.2468 12.645C63.3468 12.645 64.1868 12.885 64.7668 13.365C65.3568 13.835 65.6518 14.56 65.6518 15.54V21H64.0918L63.6568 19.89H63.5968C63.3668 20.18 63.1268 20.42 62.8768 20.61C62.6368 20.8 62.3568 20.935 62.0368 21.015C61.7268 21.105 61.3418 21.15 60.8818 21.15C60.4018 21.15 59.9668 21.06 59.5768 20.88C59.1968 20.69 58.8968 20.405 58.6768 20.025C58.4568 19.635 58.3468 19.145 58.3468 18.555C58.3468 17.685 58.6518 17.045 59.2618 16.635C59.8718 16.215 60.7868 15.985 62.0068 15.945L63.4318 15.9V15.54C63.4318 15.11 63.3168 14.795 63.0868 14.595C62.8668 14.395 62.5568 14.295 62.1568 14.295C61.7568 14.295 61.3668 14.355 60.9868 14.475C60.6068 14.585 60.2268 14.725 59.8468 14.895L59.1118 13.38C59.5518 13.15 60.0368 12.97 60.5668 12.84C61.1068 12.71 61.6668 12.645 62.2468 12.645ZM62.5618 17.235C61.8418 17.255 61.3418 17.385 61.0618 17.625C60.7818 17.865 60.6418 18.18 60.6418 18.57C60.6418 18.91 60.7418 19.155 60.9418 19.305C61.1418 19.445 61.4018 19.515 61.7218 19.515C62.2018 19.515 62.6068 19.375 62.9368 19.095C63.2668 18.805 63.4318 18.4 63.4318 17.88V17.205L62.5618 17.235ZM72.6496 14.49H70.7146V21H68.4796V14.49H67.2496V13.41L68.4796 12.81V12.21C68.4796 11.51 68.5946 10.97 68.8246 10.59C69.0646 10.2 69.3996 9.925 69.8296 9.765C70.2696 9.605 70.7846 9.525 71.3746 9.525C71.8146 9.525 72.2096 9.56 72.5596 9.63C72.9196 9.7 73.2096 9.78 73.4296 9.87L72.8596 11.505C72.6896 11.455 72.5046 11.41 72.3046 11.37C72.1046 11.32 71.8746 11.295 71.6146 11.295C71.3046 11.295 71.0746 11.39 70.9246 11.58C70.7846 11.77 70.7146 12.01 70.7146 12.3V12.81H72.6496V14.49ZM77.4603 12.645C78.5603 12.645 79.4003 12.885 79.9803 13.365C80.5703 13.835 80.8653 14.56 80.8653 15.54V21H79.3053L78.8703 19.89H78.8103C78.5803 20.18 78.3403 20.42 78.0903 20.61C77.8503 20.8 77.5703 20.935 77.2503 21.015C76.9403 21.105 76.5553 21.15 76.0953 21.15C75.6153 21.15 75.1803 21.06 74.7903 20.88C74.4103 20.69 74.1103 20.405 73.8903 20.025C73.6703 19.635 73.5603 19.145 73.5603 18.555C73.5603 17.685 73.8653 17.045 74.4753 16.635C75.0853 16.215 76.0003 15.985 77.2203 15.945L78.6453 15.9V15.54C78.6453 15.11 78.5303 14.795 78.3003 14.595C78.0803 14.395 77.7703 14.295 77.3703 14.295C76.9703 14.295 76.5803 14.355 76.2003 14.475C75.8203 14.585 75.4403 14.725 75.0603 14.895L74.3253 13.38C74.7653 13.15 75.2503 12.97 75.7803 12.84C76.3203 12.71 76.8803 12.645 77.4603 12.645ZM77.7753 17.235C77.0553 17.255 76.5553 17.385 76.2753 17.625C75.9953 17.865 75.8553 18.18 75.8553 18.57C75.8553 18.91 75.9553 19.155 76.1553 19.305C76.3553 19.445 76.6153 19.515 76.9353 19.515C77.4153 19.515 77.8203 19.375 78.1503 19.095C78.4803 18.805 78.6453 18.4 78.6453 17.88V17.205L77.7753 17.235ZM87.9081 12.66C88.0181 12.66 88.1481 12.665 88.2981 12.675C88.4481 12.685 88.5681 12.7 88.6581 12.72L88.4931 14.82C88.4231 14.8 88.3181 14.785 88.1781 14.775C88.0481 14.755 87.9331 14.745 87.8331 14.745C87.5431 14.745 87.2631 14.785 86.9931 14.865C86.7231 14.935 86.4781 15.05 86.2581 15.21C86.0481 15.37 85.8781 15.585 85.7481 15.855C85.6281 16.115 85.5681 16.44 85.5681 16.83V21H83.3331V12.81H85.0281L85.3581 14.19H85.4631C85.6231 13.91 85.8231 13.655 86.0631 13.425C86.3031 13.195 86.5781 13.01 86.8881 12.87C87.2081 12.73 87.5481 12.66 87.9081 12.66ZM92.5596 12.81V21H90.3246V12.81H92.5596ZM91.4496 9.6C91.7796 9.6 92.0646 9.68 92.3046 9.84C92.5446 9.99 92.6646 10.275 92.6646 10.695C92.6646 11.105 92.5446 11.39 92.3046 11.55C92.0646 11.71 91.7796 11.79 91.4496 11.79C91.1096 11.79 90.8196 11.71 90.5796 11.55C90.3496 11.39 90.2346 11.105 90.2346 10.695C90.2346 10.275 90.3496 9.99 90.5796 9.84C90.8196 9.68 91.1096 9.6 91.4496 9.6Z" fill="white"/>
<path d="M107 0H5C2.23858 0 0 2.23858 0 5V27C0 29.7614 2.23858 32 5 32H107C109.761 32 112 29.7614 112 27V5C112 2.23858 109.761 0 107 0Z" fill="url(#paint0_linear_25_128)"/>
<g clip-path="url(#clip0_25_128)">
<g opacity="0.53" filter="url(#filter0_f_25_128)">
<path d="M29.639 16.5084C29.639 18.3641 29.2733 20.2016 28.5628 21.916C27.8523 23.6305 26.8108 25.1882 25.498 26.5004C24.1851 27.8126 22.6266 28.8534 20.9112 29.5636C19.1959 30.2737 17.3574 30.6392 15.5008 30.6392C13.6441 30.6392 11.8056 30.2737 10.0903 29.5636C8.37497 28.8534 6.81639 27.8126 5.50354 26.5004C4.19068 25.1882 3.14927 23.6305 2.43876 21.916C1.72825 20.2016 1.36255 18.3641 1.36255 16.5084C1.36255 12.7607 2.85211 9.16652 5.50354 6.51649C8.15497 3.86646 11.7511 2.37769 15.5008 2.37769C17.3574 2.37769 19.1959 2.74319 20.9112 3.45332C22.6266 4.16346 24.1851 5.20433 25.498 6.51649C26.8108 7.82865 27.8523 9.38641 28.5628 11.1008C29.2733 12.8153 29.639 14.6528 29.639 16.5084V16.5084Z" fill="black"/>
</g>
<path d="M30.1764 15.2607C30.1764 17.2612 29.7968 19.2421 29.0592 21.0902C28.3217 22.9384 27.2406 24.6177 25.8778 26.0323C24.5149 27.4468 22.897 28.5689 21.1164 29.3344C19.3358 30.1 17.4273 30.494 15.4999 30.494C11.6075 30.494 7.87449 28.8891 5.12212 26.0323C2.36975 23.1755 0.823486 19.3008 0.823486 15.2607C0.823486 11.2206 2.36975 7.34598 5.12212 4.48919C7.87449 1.6324 11.6075 0.0274669 15.4999 0.0274658C17.4273 0.0274657 19.3358 0.421487 21.1164 1.18703C22.897 1.95257 24.5149 3.07465 25.8778 4.48919C27.2406 5.90373 28.3217 7.58302 29.0592 9.43121C29.7968 11.2794 30.1764 13.2603 30.1764 15.2607V15.2607Z" fill="url(#paint1_linear_25_128)" stroke="#CDCDCD" stroke-width="0.351543" stroke-linecap="round" stroke-linejoin="round"/>
<path d="M29.0265 15.2608C29.0265 18.9843 27.6014 22.5553 25.0647 25.1883C22.528 27.8212 19.0875 29.3004 15.5001 29.3004C11.9126 29.3004 8.47213 27.8212 5.93543 25.1883C3.39873 22.5553 1.97363 18.9843 1.97363 15.2608C1.97363 11.5373 3.39873 7.96623 5.93543 5.33329C8.47213 2.70036 11.9126 1.22119 15.5001 1.22119C19.0875 1.22119 22.528 2.70036 25.0647 5.33329C27.6014 7.96623 29.0265 11.5373 29.0265 15.2608Z" fill="url(#paint2_radial_25_128)"/>
<path d="M15.5001 1.95325C15.3908 1.95325 15.3028 2.04453 15.3028 2.15794V4.51898C15.3028 4.63238 15.3908 4.72367 15.5001 4.72367C15.6093 4.72367 15.6973 4.63238 15.6973 4.51898V2.15794C15.6973 2.04453 15.6093 1.95325 15.5001 1.95325V1.95325ZM14.2099 2.03788C14.1968 2.03642 14.1834 2.03642 14.1698 2.03805C14.0611 2.04982 13.9828 2.15009 13.9941 2.26289L14.0935 3.25064C14.1049 3.36343 14.2015 3.44476 14.3101 3.43298C14.4188 3.42121 14.4972 3.32094 14.4858 3.20815L14.3865 2.2204C14.3766 2.1217 14.3013 2.0471 14.2099 2.03788H14.2099ZM16.7992 2.03885C16.7078 2.048 16.6325 2.1226 16.6225 2.22128L16.5224 3.20895C16.511 3.32173 16.5894 3.4221 16.698 3.43396C16.8067 3.44583 16.9033 3.36457 16.9147 3.25179L17.0148 2.26404C17.0263 2.15126 16.9479 2.05097 16.8392 2.03912C16.8256 2.03766 16.8123 2.03766 16.7992 2.03886L16.7992 2.03885ZM12.8846 2.23736C12.8715 2.23747 12.8581 2.23882 12.8448 2.24174C12.7379 2.26522 12.67 2.37347 12.6927 2.48441L13.1638 4.79422C13.1864 4.90516 13.2907 4.97557 13.3976 4.95209C13.5045 4.9286 13.5723 4.82044 13.5497 4.70949L13.0786 2.39961C13.0588 2.30253 12.9765 2.23649 12.8846 2.23723L12.8846 2.23736ZM18.1244 2.2393C18.0326 2.23833 17.9502 2.30444 17.9304 2.4015L17.4577 4.71103C17.4349 4.82196 17.5027 4.93023 17.6096 4.9538C17.7165 4.97738 17.8208 4.90702 17.8435 4.7961L18.3162 2.48657C18.3389 2.37564 18.2711 2.26736 18.1643 2.2438C18.1509 2.24089 18.1376 2.23943 18.1245 2.23943L18.1244 2.2393ZM11.6198 2.60751C11.5943 2.60508 11.5679 2.608 11.5419 2.61695C11.438 2.65201 11.3815 2.76697 11.4153 2.87482L11.711 3.81938C11.7447 3.92723 11.8556 3.98587 11.9595 3.95083C12.0634 3.91577 12.1198 3.80072 12.0861 3.69287L11.7904 2.74831C11.7651 2.66742 11.6964 2.61425 11.6198 2.60749V2.60751ZM19.3821 2.608C19.3055 2.61476 19.2368 2.66793 19.2115 2.74881L18.9157 3.69329C18.8819 3.80113 18.9383 3.91619 19.0422 3.95125C19.1461 3.98631 19.257 3.92771 19.2908 3.81988L19.5866 2.87532C19.6204 2.76747 19.5639 2.65242 19.46 2.61736C19.4341 2.60861 19.4076 2.60574 19.3821 2.60798V2.608ZM10.3691 3.08257C10.3434 3.08306 10.3175 3.08889 10.2926 3.10042C10.1928 3.14647 10.1481 3.26695 10.1925 3.37057L11.1164 5.52807C11.1607 5.63169 11.2768 5.67803 11.3766 5.63196C11.4764 5.58591 11.5212 5.46544 11.4768 5.36181L10.5528 3.20431C10.5196 3.12659 10.4459 3.08103 10.3691 3.08258V3.08257ZM20.647 3.08982C20.5701 3.08836 20.4964 3.13363 20.463 3.21129L19.5363 5.36747C19.4918 5.47103 19.5363 5.59159 19.6361 5.6378C19.7358 5.68399 19.852 5.63782 19.8965 5.53426L20.8232 3.37808C20.8677 3.27452 20.8232 3.15396 20.7235 3.10775C20.6985 3.09623 20.6726 3.09039 20.647 3.08981V3.08982ZM9.20812 3.72014C9.17026 3.71723 9.13125 3.72598 9.09577 3.74728C9.00115 3.80398 8.96897 3.92868 9.02359 4.02688L9.50202 4.88699C9.55665 4.9852 9.67678 5.0186 9.7714 4.9619C9.86602 4.9052 9.89821 4.78051 9.84358 4.6823L9.36515 3.8222C9.331 3.76081 9.27123 3.72474 9.20812 3.72016V3.72014ZM21.792 3.72014C21.7289 3.72452 21.6692 3.7608 21.635 3.82218L21.1565 4.68228C21.1019 4.78049 21.1342 4.90518 21.2288 4.96189C21.3234 5.01859 21.4435 4.98518 21.4982 4.88697L21.9766 4.02687C22.0312 3.92866 21.999 3.80397 21.9044 3.74726C21.869 3.72601 21.8298 3.71741 21.792 3.72013V3.72014ZM8.08079 4.44994C8.04284 4.4514 8.00484 4.46404 7.97168 4.48899C7.88324 4.55558 7.86369 4.68307 7.92787 4.77487L9.26355 6.68598C9.32771 6.77777 9.45063 6.79806 9.53907 6.7315C9.6275 6.66491 9.64706 6.53741 9.58287 6.44562L8.2471 4.53451C8.207 4.47713 8.14401 4.44772 8.08079 4.44996V4.44994ZM22.9334 4.46035C22.8702 4.45791 22.8072 4.48734 22.767 4.54463L21.4288 6.45389C21.3645 6.54559 21.3839 6.67314 21.4723 6.73985C21.5606 6.80656 21.6835 6.78649 21.7478 6.69482L23.086 4.78556C23.1502 4.69386 23.1308 4.56631 23.0425 4.4996C23.0094 4.4746 22.9714 4.46176 22.9334 4.46035L22.9334 4.46035ZM7.07313 5.32707C7.02279 5.32416 6.97142 5.34161 6.93082 5.37955C6.84962 5.45542 6.84309 5.58432 6.9162 5.66861L7.55643 6.4068C7.62952 6.49108 7.75372 6.49786 7.83492 6.42197C7.91612 6.3461 7.92265 6.21711 7.84954 6.13282L7.2094 5.39472C7.17285 5.35256 7.12348 5.3298 7.07313 5.32705V5.32707ZM23.9284 5.32853C23.8781 5.33145 23.8287 5.35406 23.7922 5.3962L23.1519 6.13421C23.0788 6.21849 23.0853 6.34748 23.1665 6.42336C23.2477 6.49924 23.3719 6.49244 23.445 6.40819L24.0853 5.67018C24.1584 5.5859 24.1519 5.45691 24.0707 5.38103C24.0301 5.3431 23.9788 5.32582 23.9285 5.32856L23.9284 5.32853ZM6.10735 6.28996C6.05701 6.29288 6.00772 6.31549 5.97117 6.35763C5.89807 6.44192 5.9046 6.57082 5.98578 6.64669L7.6764 8.22634C7.7576 8.30222 7.88179 8.29543 7.95488 8.21117C8.02799 8.12689 8.02154 7.99798 7.94031 7.92211L6.24962 6.34246C6.209 6.30453 6.15765 6.28724 6.1073 6.28998L6.10735 6.28996ZM24.8989 6.29686C24.8485 6.29395 24.7971 6.31136 24.7565 6.34925L23.0649 7.92767C22.9836 8.00348 22.9769 8.13239 23.05 8.21673C23.123 8.30106 23.2473 8.30791 23.3285 8.23209L25.0203 6.65368C25.1015 6.57787 25.1081 6.44896 25.0351 6.36462C24.9985 6.32246 24.9492 6.29965 24.8989 6.29686H24.8989ZM5.30422 7.36184C5.241 7.35941 5.17796 7.38898 5.13782 7.44629C5.0736 7.53804 5.09308 7.66552 5.18149 7.73217L5.9556 8.31594C6.04399 8.3826 6.1668 8.36248 6.23102 8.27071C6.29525 8.17897 6.27581 8.05141 6.18745 7.98475L5.41334 7.40098C5.38022 7.37599 5.34216 7.36324 5.30423 7.36183L5.30422 7.36184ZM25.7013 7.36928C25.6633 7.37074 25.6253 7.38333 25.5921 7.40833L24.8177 7.99157C24.7293 8.05816 24.7097 8.18574 24.7738 8.27754C24.838 8.36932 24.9608 8.38953 25.0493 8.32296L25.8238 7.73972C25.9122 7.67313 25.9317 7.54563 25.8676 7.45384C25.8275 7.39647 25.7645 7.36705 25.7013 7.3693V7.36928ZM4.55369 8.50519C4.49058 8.50957 4.43088 8.54584 4.39674 8.60722C4.34211 8.70543 4.3743 8.83013 4.46891 8.88683L6.43887 10.0673C6.53348 10.124 6.65362 10.0906 6.70825 9.99243C6.76288 9.89423 6.73069 9.76953 6.63608 9.71283L4.66612 8.53231C4.63066 8.51105 4.59155 8.50245 4.55369 8.50517V8.50519ZM26.4464 8.50519C26.4086 8.50227 26.3695 8.51103 26.334 8.53232L24.364 9.71285C24.2694 9.76955 24.2372 9.89425 24.2919 9.99245C24.3465 10.0907 24.4666 10.1241 24.5612 10.0674L26.5313 8.88685C26.6259 8.83015 26.6581 8.70545 26.6035 8.60724C26.5693 8.54586 26.5095 8.50979 26.4464 8.50521V8.50519ZM3.98624 9.72387C3.90938 9.72193 3.83569 9.76759 3.8023 9.84525C3.75779 9.94882 3.80228 10.0694 3.90206 10.1156L4.776 10.5202C4.87579 10.5664 4.99195 10.5202 5.03645 10.4167C5.08096 10.3131 5.03639 10.1925 4.93661 10.1463L4.06275 9.74172C4.03783 9.73015 4.01185 9.72441 3.98624 9.72387ZM27.0177 9.73229C26.9921 9.73277 26.9661 9.73861 26.9411 9.75013L26.067 10.154C25.9672 10.2002 25.9225 10.3207 25.967 10.4243C26.0114 10.5279 26.1276 10.5742 26.2274 10.5281L27.1015 10.1241C27.2013 10.078 27.2459 9.95744 27.2015 9.85384C27.1681 9.77614 27.0946 9.7307 27.0177 9.73229ZM3.48049 10.9976C3.40389 11.0043 3.33522 11.0574 3.30984 11.1383C3.27601 11.2461 3.33233 11.3612 3.43623 11.3963L5.59905 12.1278C5.70293 12.1629 5.81382 12.1044 5.84767 11.9966C5.8815 11.8888 5.82518 11.7737 5.72128 11.7385L3.55846 11.0071C3.5325 10.9983 3.50602 10.9954 3.48049 10.9976V10.9976ZM27.5225 11.0064C27.497 11.0039 27.4706 11.0069 27.4446 11.0158L25.2813 11.7457C25.1774 11.7808 25.121 11.8958 25.1547 12.0037C25.1885 12.1115 25.2994 12.1701 25.4033 12.135L27.5665 11.4051C27.6704 11.3701 27.7269 11.255 27.6932 11.1472C27.6678 11.0663 27.5991 11.0131 27.5225 11.0064V11.0064ZM3.1654 12.3347C3.07353 12.3337 2.99113 12.3999 2.97126 12.497C2.94853 12.6079 3.01633 12.7162 3.12318 12.7397L4.05918 12.9462C4.16605 12.9698 4.27035 12.8994 4.29307 12.7885C4.31579 12.6776 4.248 12.5693 4.14114 12.5457L3.20523 12.3393C3.19188 12.3364 3.17853 12.3349 3.16541 12.3349L3.1654 12.3347ZM27.8351 12.3366C27.822 12.3368 27.8088 12.3386 27.7954 12.341L26.8594 12.5474C26.7525 12.571 26.6848 12.6791 26.7075 12.7901C26.7302 12.901 26.8345 12.9714 26.9414 12.9478L27.8773 12.7415C27.9842 12.7179 28.052 12.6096 28.0293 12.4987C28.0094 12.4016 27.927 12.3356 27.8352 12.3364L27.8351 12.3366ZM2.92691 13.6796C2.83546 13.6887 2.76018 13.7632 2.75014 13.8619C2.73866 13.9746 2.81681 14.0751 2.92546 14.087L5.18761 14.3352C5.29626 14.3471 5.393 14.2659 5.40448 14.1531C5.41596 14.0404 5.33772 13.94 5.22906 13.928L2.96692 13.6798C2.95333 13.6783 2.93998 13.6783 2.92691 13.6796L2.92691 13.6796ZM28.0753 13.6973C28.0622 13.6958 28.0488 13.6958 28.0352 13.6974L25.7728 13.9425C25.6641 13.9543 25.5858 14.0546 25.5971 14.1673C25.6085 14.2801 25.7051 14.3615 25.8138 14.3497L28.0762 14.1046C28.1848 14.0928 28.2632 13.9926 28.2518 13.8798C28.2419 13.7811 28.1667 13.7065 28.0753 13.6973L28.0753 13.6973ZM2.88861 15.0563C2.77935 15.0563 2.69141 15.1476 2.69141 15.261C2.69141 15.3744 2.77935 15.4657 2.88861 15.4657H3.84546C3.95471 15.4657 4.04275 15.3744 4.04275 15.261C4.04275 15.1476 3.95471 15.0563 3.84546 15.0563H2.88861ZM27.1546 15.0563C27.0454 15.0563 26.9574 15.1476 26.9574 15.261C26.9574 15.3744 27.0454 15.4657 27.1546 15.4657H28.1115C28.2207 15.4657 28.3087 15.3744 28.3087 15.261C28.3087 15.1476 28.2207 15.0563 28.1115 15.0563H27.1546ZM5.22643 16.1722C5.21335 16.1707 5.2 16.1707 5.18641 16.1724L2.92392 16.4174C2.81525 16.4292 2.73692 16.5295 2.74825 16.6423C2.75959 16.755 2.8562 16.8364 2.96486 16.8246L5.22735 16.5795C5.33602 16.5678 5.41435 16.4675 5.40303 16.3547C5.39309 16.256 5.31786 16.1814 5.22642 16.1722L5.22643 16.1722ZM25.7725 16.1867C25.681 16.1958 25.6058 16.2703 25.5957 16.3689C25.5842 16.4817 25.6624 16.5821 25.771 16.594L28.0332 16.8423C28.1418 16.8542 28.2386 16.773 28.2501 16.6602C28.2615 16.5474 28.1833 16.447 28.0746 16.4351L25.8126 16.1869C25.799 16.1854 25.7855 16.1854 25.7725 16.1867L25.7725 16.1867ZM4.09867 17.5695C4.08555 17.5696 4.0722 17.571 4.05885 17.5739L3.12285 17.7802C3.01598 17.8038 2.94823 17.9121 2.97093 18.023C2.99365 18.1339 3.09795 18.2043 3.20482 18.1807L4.14081 17.9744C4.24768 17.9508 4.31544 17.8426 4.29274 17.7317C4.27287 17.6346 4.19055 17.5686 4.09868 17.5694L4.09867 17.5695ZM26.9012 17.5715C26.8093 17.5705 26.727 17.6366 26.7071 17.7336C26.6844 17.8446 26.7521 17.9528 26.859 17.9764L27.795 18.1829C27.9018 18.2065 28.0061 18.1362 28.0288 18.0253C28.0516 17.9143 27.9838 17.806 27.8769 17.7824L26.941 17.576C26.9277 17.573 26.9143 17.5716 26.9012 17.5716L26.9012 17.5715ZM5.6748 18.3777C5.64927 18.3752 5.6229 18.3782 5.59692 18.3871L3.4336 19.117C3.32969 19.152 3.27326 19.2671 3.30703 19.3749C3.34081 19.4828 3.45165 19.5414 3.55556 19.5063L5.71881 18.7764C5.82272 18.7414 5.87923 18.6263 5.84546 18.5185C5.82011 18.4376 5.75139 18.3844 5.6748 18.3776V18.3777ZM25.3232 18.3849C25.2466 18.3916 25.1779 18.4447 25.1525 18.5256C25.1187 18.6334 25.175 18.7485 25.2789 18.7836L27.4417 19.5151C27.5456 19.5502 27.6565 19.4917 27.6904 19.3839C27.7242 19.2761 27.6679 19.161 27.564 19.1258L25.4011 18.3944C25.3752 18.3856 25.3487 18.3827 25.3232 18.3849V18.3849ZM4.84929 19.9763C4.82366 19.9768 4.79772 19.9825 4.77277 19.9941L3.89857 20.3981C3.79876 20.4442 3.75421 20.5647 3.79864 20.6683C3.84311 20.7719 3.9592 20.8181 4.05901 20.772L4.93321 20.3681C5.03302 20.322 5.07757 20.2015 5.03313 20.0979C4.99982 20.0202 4.92614 19.9747 4.84929 19.9763V19.9763ZM26.1477 19.9841C26.0708 19.9822 25.9971 20.0278 25.9637 20.1055C25.9192 20.209 25.9637 20.3296 26.0635 20.3758L26.9374 20.7804C27.0371 20.8266 27.1533 20.7804 27.1978 20.6769C27.2423 20.5733 27.1978 20.4527 27.098 20.4066L26.2242 20.0019C26.1993 19.9904 26.1733 19.9846 26.1477 19.9841V19.9841ZM6.5513 20.4277C6.51345 20.4247 6.47435 20.4335 6.43887 20.4548L4.46891 21.6353C4.3743 21.692 4.34211 21.8167 4.39674 21.9149C4.45137 22.0131 4.57151 22.0465 4.66612 21.9898L6.63608 20.8094C6.73069 20.7527 6.76288 20.6279 6.70825 20.5297C6.6741 20.4683 6.61441 20.4323 6.5513 20.4277V20.4277ZM24.4489 20.4277C24.3858 20.432 24.326 20.4683 24.2919 20.5297C24.2372 20.6279 24.2694 20.7527 24.364 20.8094L26.334 21.9898C26.4286 22.0465 26.5488 22.0131 26.6035 21.9149C26.6581 21.8167 26.6259 21.692 26.5313 21.6353L24.5612 20.4548C24.5258 20.4335 24.4867 20.4249 24.4489 20.4276V20.4277ZM6.05994 22.1601C6.02199 22.1615 5.98399 22.1742 5.95082 22.1992L5.17638 22.7824C5.08795 22.849 5.06839 22.9765 5.13253 23.0683C5.19669 23.1601 5.31952 23.1804 5.40795 23.1138L6.18248 22.5306C6.27093 22.464 6.29048 22.3365 6.22634 22.2447C6.18623 22.1873 6.12316 22.1578 6.05994 22.16L6.05994 22.1601ZM24.9355 22.167C24.8723 22.1645 24.8092 22.1941 24.7691 22.2514C24.7049 22.3432 24.7243 22.4707 24.8128 22.5374L25.5869 23.1212C25.6753 23.1878 25.7981 23.1676 25.8623 23.0758C25.9265 22.9841 25.9071 22.8566 25.8187 22.79L25.0446 22.2062C25.0115 22.1812 24.9734 22.1684 24.9355 22.1669L24.9355 22.167ZM7.81396 22.2376C7.76362 22.2347 7.71228 22.2521 7.67165 22.29L5.97994 23.8684C5.89869 23.9442 5.89209 24.0732 5.96513 24.1575C6.03817 24.2418 6.16236 24.2487 6.24362 24.1729L7.93534 22.5945C8.01659 22.5186 8.02319 22.3897 7.95014 22.3054C7.91365 22.2632 7.8643 22.2404 7.81396 22.2376V22.2376ZM23.1815 22.2433C23.1311 22.2462 23.0817 22.2688 23.0452 22.3109C22.9721 22.3952 22.9786 22.5241 23.0598 22.6L24.7504 24.1797C24.8316 24.2555 24.9559 24.2487 25.029 24.1645C25.1021 24.0802 25.0956 23.9513 25.0144 23.8754L23.3237 22.2958C23.2831 22.2578 23.2318 22.2406 23.1815 22.2433V22.2433ZM9.41886 23.7428C9.35565 23.7404 9.29255 23.7697 9.25238 23.8271L7.91423 25.7363C7.84995 25.828 7.86929 25.9556 7.95761 26.0223C8.04596 26.089 8.16885 26.0689 8.23312 25.9772L9.57128 24.068C9.63555 23.9763 9.61621 23.8487 9.52789 23.782C9.49477 23.757 9.45679 23.7442 9.41886 23.7428ZM21.5703 23.7514C21.5323 23.7528 21.4943 23.7654 21.4611 23.7904C21.3727 23.857 21.3532 23.9845 21.4173 24.0763L22.753 25.9874C22.8171 26.0792 22.94 26.0995 23.0284 26.0329C23.1168 25.9663 23.1364 25.8388 23.0723 25.747L21.7366 23.8359C21.6965 23.7786 21.6335 23.7491 21.5703 23.7514L21.5703 23.7514ZM7.6914 24.0463C7.64105 24.0492 7.59169 24.0718 7.55513 24.1139L6.91491 24.8519C6.84179 24.9362 6.84827 25.0652 6.92948 25.1411C7.01067 25.217 7.13486 25.2102 7.20797 25.1259L7.84827 24.3878C7.92139 24.3036 7.91483 24.1746 7.83365 24.0987C7.79303 24.0608 7.74177 24.0435 7.69143 24.0462L7.6914 24.0463ZM23.3075 24.0472C23.2572 24.0443 23.2059 24.0618 23.1653 24.0997C23.0841 24.1756 23.0776 24.3045 23.1506 24.3888L23.7908 25.1269C23.8639 25.2112 23.9881 25.218 24.0693 25.1421C24.1505 25.0662 24.157 24.9373 24.0839 24.853L23.4437 24.1149C23.4072 24.0727 23.3578 24.0499 23.3075 24.0472L23.3075 24.0472ZM11.2875 24.866C11.2107 24.864 11.1371 24.9097 11.1037 24.9874L10.1769 27.1435C10.1324 27.2471 10.1769 27.3677 10.2766 27.4139C10.3764 27.4601 10.4926 27.4139 10.5371 27.3103L11.4639 25.1542C11.5084 25.0506 11.4639 24.93 11.3641 24.8838C11.3392 24.8723 11.3131 24.8665 11.2875 24.866V24.866ZM19.7001 24.8719C19.6744 24.8724 19.6484 24.8781 19.6235 24.8897C19.5237 24.9357 19.479 25.0562 19.5234 25.1598L20.4473 27.3173C20.4916 27.4209 20.6078 27.4673 20.7076 27.4212C20.8074 27.3752 20.8521 27.2547 20.8077 27.1511L19.8838 24.9936C19.8506 24.9159 19.7769 24.8704 19.7001 24.8719V24.8719ZM9.65897 25.5326C9.59587 25.537 9.53616 25.5733 9.50202 25.6347L9.02359 26.4948C8.96897 26.593 9.00115 26.7177 9.09577 26.7744C9.19039 26.8311 9.31053 26.7977 9.36515 26.6995L9.84358 25.8394C9.89821 25.7411 9.86602 25.6164 9.7714 25.5597C9.73593 25.5385 9.69683 25.5299 9.65897 25.5326V25.5326ZM21.3411 25.5326C21.3033 25.5297 21.2643 25.5385 21.2288 25.5598C21.1342 25.6165 21.102 25.7412 21.1566 25.8394L21.635 26.6995C21.6897 26.7977 21.8098 26.8311 21.9044 26.7744C21.999 26.7177 22.0312 26.593 21.9766 26.4948L21.4982 25.6347C21.464 25.5733 21.4042 25.5372 21.3411 25.5326V25.5326ZM13.3508 25.5635C13.2589 25.5625 13.1766 25.6286 13.1567 25.7257L12.684 28.0352C12.6613 28.1461 12.7291 28.2544 12.8359 28.278C12.9428 28.3015 13.0471 28.2312 13.0698 28.1203L13.5425 25.8107C13.5652 25.6998 13.4975 25.5915 13.3906 25.568C13.3772 25.565 13.3639 25.5636 13.3508 25.5636L13.3508 25.5635ZM17.6424 25.5649C17.6292 25.565 17.616 25.5664 17.6026 25.5693C17.4957 25.5928 17.4279 25.7009 17.4505 25.8119L17.9216 28.1218C17.9443 28.2327 18.0485 28.3031 18.1554 28.2796C18.2623 28.2562 18.3302 28.1479 18.3075 28.037L17.8363 25.7272C17.8165 25.6302 17.7342 25.5641 17.6424 25.5649L17.6424 25.5649ZM15.5001 25.7979C15.3908 25.7979 15.3028 25.8892 15.3028 26.0026V28.3636C15.3028 28.477 15.3908 28.5683 15.5001 28.5683C15.6093 28.5683 15.6973 28.477 15.6973 28.3636V26.0026C15.6973 25.8892 15.6093 25.7979 15.5001 25.7979ZM11.88 26.5608C11.8034 26.5676 11.7347 26.6207 11.7094 26.7016L11.4136 27.6462C11.3798 27.754 11.4363 27.8691 11.5401 27.9041C11.6441 27.9392 11.7549 27.8805 11.7887 27.7727L12.0844 26.8282C12.1182 26.7204 12.0618 26.6053 11.9579 26.5703C11.9319 26.5615 11.9055 26.5586 11.88 26.5608V26.5608ZM19.1186 26.5613C19.093 26.5589 19.0667 26.5618 19.0407 26.5707C18.9368 26.6057 18.8803 26.7208 18.914 26.8286L19.2097 27.7732C19.2435 27.881 19.3543 27.9396 19.4583 27.9046C19.5622 27.8695 19.6187 27.7545 19.5849 27.6467L19.2891 26.7021C19.2638 26.6212 19.1952 26.5681 19.1186 26.5613V26.5613ZM14.2622 27.0874C14.1707 27.0965 14.0954 27.171 14.0854 27.2697L13.9854 28.2575C13.9739 28.3702 14.0522 28.4705 14.1609 28.4824C14.2695 28.4942 14.3662 28.413 14.3777 28.3002L14.4777 27.3125C14.4891 27.1998 14.4108 27.0994 14.3022 27.0875C14.2886 27.0861 14.2752 27.0861 14.2622 27.0874L14.2622 27.0874ZM16.73 27.0883C16.717 27.0869 16.7035 27.0869 16.6899 27.0885C16.5813 27.1003 16.5029 27.2006 16.5142 27.3133L16.6137 28.3012C16.625 28.414 16.7216 28.4952 16.8303 28.4834C16.9389 28.4717 17.0173 28.3714 17.006 28.2586L16.9066 27.2708C16.8967 27.1722 16.8215 27.0975 16.73 27.0883L16.73 27.0883Z" fill="#F4F2F3"/>
<g opacity="0.409" filter="url(#filter1_f_25_128)">
<path d="M24.7427 7.07312L13.9531 13.5798L7.1311 24.7269L17.1111 17.0544L24.7427 7.07312Z" fill="black"/>
</g>
<path d="M17.0463 16.9415L13.9536 13.5799L24.9245 5.9198L17.0463 16.9415Z" fill="#FF5150"/>
<path d="M17.0463 16.9416L13.9537 13.58L6.07544 24.6017L17.0463 16.9416Z" fill="#F1F1F1"/>
<path opacity="0.243" d="M6.07544 24.6016L17.0463 16.9415L24.9246 5.9198L6.07544 24.6016Z" fill="black"/>
</g>
<defs>
<filter id="filter0_f_25_128" x="-7.59098" y="-6.57584" width="46.1834" height="46.1685" filterUnits="userSpaceOnUse" color-interpolation-filters="sRGB">
<feFlood flood-opacity="0" result="BackgroundImageFix"/>
<feBlend mode="normal" in="SourceGraphic" in2="BackgroundImageFix" result="shape"/>
<feGaussianBlur stdDeviation="4.47676" result="effect1_foregroundBlur_25_128"/>
</filter>
<filter id="filter1_f_25_128" x="4.58627" y="4.52828" width="22.7012" height="22.7435" filterUnits="userSpaceOnUse" color-interpolation-filters="sRGB">
<feFlood flood-opacity="0" result="BackgroundImageFix"/>
<feBlend mode="normal" in="SourceGraphic" in2="BackgroundImageFix" result="shape"/>
<feGaussianBlur stdDeviation="1.27242" result="effect1_foregroundBlur_25_128"/>
</filter>
<linearGradient id="paint0_linear_25_128" x1="0" y1="0" x2="0" y2="32" gradientUnits="userSpaceOnUse">
<stop stop-color="#BBBBBB" stop-opacity="0.1"/>
<stop offset="1" stop-opacity="0.1"/>
</linearGradient>
<linearGradient id="paint1_linear_25_128" x1="15.4994" y1="30.4937" x2="15.4994" y2="0.0273859" gradientUnits="userSpaceOnUse">
<stop stop-color="#BDBDBD"/>
<stop offset="1" stop-color="white"/>
</linearGradient>
<radialGradient id="paint2_radial_25_128" cx="0" cy="0" r="1" gradientUnits="userSpaceOnUse" gradientTransform="translate(15.561 13.2136) scale(14.6764 15.2332)">
<stop stop-color="#06C2E7"/>
<stop offset="0.25" stop-color="#0DB8EC"/>
<stop offset="0.5" stop-color="#12AEF1"/>
<stop offset="0.75" stop-color="#1F86F9"/>
<stop offset="1" stop-color="#107DDD"/>
</radialGradient>
<clipPath id="clip0_25_128">
<rect width="31" height="32" fill="white"/>
</clipPath>
</defs>
</svg>
