<svg width="192" height="32" viewBox="0 0 192 32" fill="none" xmlns="http://www.w3.org/2000/svg">
<path d="M187 0H31V32H187C189.761 32 192 29.7614 192 27V5C192 2.23858 189.761 0 187 0Z" fill="#0F1418"/>
<path d="M74.3995 15.63C74.3995 16.46 74.2945 17.215 74.0845 17.895C73.8845 18.565 73.5745 19.145 73.1545 19.635C72.7445 20.125 72.2145 20.5 71.5645 20.76C70.9245 21.02 70.1695 21.15 69.2995 21.15C68.4295 21.15 67.6695 21.02 67.0195 20.76C66.3795 20.49 65.8495 20.115 65.4295 19.635C65.0195 19.145 64.7095 18.56 64.4995 17.88C64.2995 17.2 64.1995 16.445 64.1995 15.615C64.1995 14.505 64.3795 13.54 64.7395 12.72C65.1095 11.9 65.6695 11.265 66.4195 10.815C67.1795 10.355 68.1445 10.125 69.3145 10.125C70.4745 10.125 71.4295 10.355 72.1795 10.815C72.9295 11.265 73.4845 11.905 73.8445 12.735C74.2145 13.555 74.3995 14.52 74.3995 15.63ZM66.5845 15.63C66.5845 16.38 66.6795 17.025 66.8695 17.565C67.0595 18.105 67.3545 18.52 67.7545 18.81C68.1545 19.1 68.6695 19.245 69.2995 19.245C69.9495 19.245 70.4695 19.1 70.8595 18.81C71.2595 18.52 71.5495 18.105 71.7295 17.565C71.9195 17.025 72.0145 16.38 72.0145 15.63C72.0145 14.5 71.8045 13.615 71.3845 12.975C70.9645 12.335 70.2745 12.015 69.3145 12.015C68.6745 12.015 68.1545 12.16 67.7545 12.45C67.3545 12.74 67.0595 13.155 66.8695 13.695C66.6795 14.235 66.5845 14.88 66.5845 15.63ZM81.178 12.66C82.098 12.66 82.843 13.02 83.413 13.74C83.983 14.45 84.268 15.5 84.268 16.89C84.268 17.82 84.133 18.605 83.863 19.245C83.593 19.875 83.223 20.35 82.753 20.67C82.283 20.99 81.738 21.15 81.118 21.15C80.728 21.15 80.388 21.1 80.098 21C79.818 20.9 79.578 20.77 79.378 20.61C79.178 20.45 79.003 20.28 78.853 20.1H78.733C78.773 20.29 78.803 20.49 78.823 20.7C78.843 20.9 78.853 21.1 78.853 21.3V24.6H76.618V12.81H78.433L78.748 13.875H78.853C79.003 13.655 79.183 13.455 79.393 13.275C79.603 13.085 79.853 12.935 80.143 12.825C80.443 12.715 80.788 12.66 81.178 12.66ZM80.458 14.445C80.068 14.445 79.758 14.525 79.528 14.685C79.298 14.845 79.128 15.09 79.018 15.42C78.918 15.74 78.863 16.145 78.853 16.635V16.875C78.853 17.405 78.903 17.855 79.003 18.225C79.103 18.585 79.273 18.86 79.513 19.05C79.753 19.24 80.078 19.335 80.488 19.335C80.828 19.335 81.108 19.24 81.328 19.05C81.548 18.86 81.713 18.58 81.823 18.21C81.933 17.84 81.988 17.39 81.988 16.86C81.988 16.06 81.863 15.46 81.613 15.06C81.373 14.65 80.988 14.445 80.458 14.445ZM89.6652 12.66C90.4252 12.66 91.0752 12.805 91.6152 13.095C92.1652 13.385 92.5902 13.805 92.8902 14.355C93.1902 14.905 93.3402 15.58 93.3402 16.38V17.46H88.0602C88.0802 18.09 88.2652 18.585 88.6152 18.945C88.9752 19.305 89.4702 19.485 90.1002 19.485C90.6302 19.485 91.1102 19.435 91.5402 19.335C91.9702 19.225 92.4152 19.06 92.8752 18.84V20.565C92.4752 20.765 92.0502 20.91 91.6002 21C91.1602 21.1 90.6252 21.15 89.9952 21.15C89.1752 21.15 88.4502 21 87.8202 20.7C87.1902 20.39 86.6952 19.925 86.3352 19.305C85.9752 18.685 85.7952 17.905 85.7952 16.965C85.7952 16.005 85.9552 15.21 86.2752 14.58C86.6052 13.94 87.0602 13.46 87.6402 13.14C88.2202 12.82 88.8952 12.66 89.6652 12.66ZM89.6802 14.25C89.2502 14.25 88.8902 14.39 88.6002 14.67C88.3202 14.95 88.1552 15.385 88.1052 15.975H91.2402C91.2402 15.645 91.1802 15.35 91.0602 15.09C90.9502 14.83 90.7802 14.625 90.5502 14.475C90.3202 14.325 90.0302 14.25 89.6802 14.25ZM99.9825 12.66C100.862 12.66 101.567 12.9 102.097 13.38C102.627 13.85 102.892 14.61 102.892 15.66V21H100.657V16.215C100.657 15.625 100.552 15.185 100.342 14.895C100.132 14.595 99.7975 14.445 99.3375 14.445C98.6575 14.445 98.1925 14.68 97.9425 15.15C97.6925 15.61 97.5675 16.275 97.5675 17.145V21H95.3325V12.81H97.0425L97.3425 13.86H97.4625C97.6425 13.58 97.8625 13.355 98.1225 13.185C98.3825 13.005 98.6725 12.875 98.9925 12.795C99.3125 12.705 99.6425 12.66 99.9825 12.66ZM115.942 18.03C115.942 18.66 115.787 19.21 115.477 19.68C115.167 20.15 114.717 20.515 114.127 20.775C113.547 21.025 112.837 21.15 111.997 21.15C111.627 21.15 111.262 21.125 110.902 21.075C110.552 21.025 110.212 20.955 109.882 20.865C109.562 20.765 109.257 20.645 108.967 20.505V18.39C109.477 18.61 110.002 18.815 110.542 19.005C111.092 19.185 111.637 19.275 112.177 19.275C112.547 19.275 112.842 19.225 113.062 19.125C113.292 19.025 113.457 18.89 113.557 18.72C113.667 18.55 113.722 18.355 113.722 18.135C113.722 17.865 113.627 17.635 113.437 17.445C113.257 17.255 113.012 17.08 112.702 16.92C112.392 16.75 112.037 16.57 111.637 16.38C111.387 16.26 111.117 16.12 110.827 15.96C110.537 15.79 110.257 15.585 109.987 15.345C109.727 15.095 109.512 14.795 109.342 14.445C109.172 14.095 109.087 13.675 109.087 13.185C109.087 12.545 109.232 12 109.522 11.55C109.822 11.09 110.242 10.74 110.782 10.5C111.332 10.26 111.977 10.14 112.717 10.14C113.277 10.14 113.807 10.205 114.307 10.335C114.817 10.465 115.347 10.65 115.897 10.89L115.162 12.66C114.672 12.46 114.232 12.305 113.842 12.195C113.452 12.085 113.052 12.03 112.642 12.03C112.362 12.03 112.122 12.075 111.922 12.165C111.722 12.255 111.567 12.38 111.457 12.54C111.357 12.7 111.307 12.89 111.307 13.11C111.307 13.36 111.382 13.575 111.532 13.755C111.682 13.925 111.907 14.09 112.207 14.25C112.507 14.41 112.882 14.6 113.332 14.82C113.882 15.08 114.347 15.35 114.727 15.63C115.117 15.91 115.417 16.24 115.627 16.62C115.837 17 115.942 17.47 115.942 18.03ZM125.329 16.89C125.329 17.57 125.234 18.175 125.044 18.705C124.864 19.235 124.599 19.685 124.249 20.055C123.909 20.415 123.494 20.69 123.004 20.88C122.514 21.06 121.959 21.15 121.339 21.15C120.769 21.15 120.239 21.06 119.749 20.88C119.269 20.69 118.854 20.415 118.504 20.055C118.154 19.685 117.879 19.235 117.679 18.705C117.489 18.175 117.394 17.57 117.394 16.89C117.394 15.98 117.554 15.215 117.874 14.595C118.194 13.965 118.654 13.485 119.254 13.155C119.854 12.825 120.564 12.66 121.384 12.66C122.154 12.66 122.834 12.825 123.424 13.155C124.014 13.485 124.479 13.965 124.819 14.595C125.159 15.215 125.329 15.98 125.329 16.89ZM119.674 16.89C119.674 17.43 119.729 17.885 119.839 18.255C119.959 18.615 120.144 18.89 120.394 19.08C120.644 19.26 120.969 19.35 121.369 19.35C121.769 19.35 122.089 19.26 122.329 19.08C122.579 18.89 122.759 18.615 122.869 18.255C122.989 17.885 123.049 17.43 123.049 16.89C123.049 16.35 122.989 15.9 122.869 15.54C122.759 15.18 122.579 14.91 122.329 14.73C122.079 14.55 121.754 14.46 121.354 14.46C120.764 14.46 120.334 14.665 120.064 15.075C119.804 15.475 119.674 16.08 119.674 16.89ZM134.871 12.81V21H133.161L132.861 19.95H132.741C132.571 20.23 132.351 20.46 132.081 20.64C131.821 20.81 131.531 20.935 131.211 21.015C130.891 21.105 130.561 21.15 130.221 21.15C129.641 21.15 129.131 21.045 128.691 20.835C128.251 20.625 127.911 20.3 127.671 19.86C127.431 19.42 127.311 18.85 127.311 18.15V12.81H129.546V17.595C129.546 18.175 129.651 18.615 129.861 18.915C130.071 19.215 130.406 19.365 130.866 19.365C131.326 19.365 131.681 19.26 131.931 19.05C132.191 18.84 132.371 18.535 132.471 18.135C132.581 17.735 132.636 17.245 132.636 16.665V12.81H134.871ZM141.97 12.66C142.08 12.66 142.21 12.665 142.36 12.675C142.51 12.685 142.63 12.7 142.72 12.72L142.555 14.82C142.485 14.8 142.38 14.785 142.24 14.775C142.11 14.755 141.995 14.745 141.895 14.745C141.605 14.745 141.325 14.785 141.055 14.865C140.785 14.935 140.54 15.05 140.32 15.21C140.11 15.37 139.94 15.585 139.81 15.855C139.69 16.115 139.63 16.44 139.63 16.83V21H137.395V12.81H139.09L139.42 14.19H139.525C139.685 13.91 139.885 13.655 140.125 13.425C140.365 13.195 140.64 13.01 140.95 12.87C141.27 12.73 141.61 12.66 141.97 12.66ZM147.423 21.15C146.613 21.15 145.923 21.005 145.353 20.715C144.783 20.415 144.348 19.955 144.048 19.335C143.748 18.715 143.598 17.92 143.598 16.95C143.598 15.95 143.768 15.135 144.108 14.505C144.448 13.875 144.918 13.41 145.518 13.11C146.128 12.81 146.828 12.66 147.618 12.66C148.178 12.66 148.663 12.715 149.073 12.825C149.493 12.935 149.858 13.065 150.168 13.215L149.508 14.94C149.158 14.8 148.828 14.685 148.518 14.595C148.218 14.505 147.918 14.46 147.618 14.46C147.228 14.46 146.903 14.555 146.643 14.745C146.383 14.925 146.188 15.2 146.058 15.57C145.938 15.93 145.878 16.385 145.878 16.935C145.878 17.475 145.943 17.925 146.073 18.285C146.213 18.635 146.413 18.9 146.673 19.08C146.933 19.25 147.248 19.335 147.618 19.335C148.088 19.335 148.503 19.275 148.863 19.155C149.223 19.025 149.573 18.85 149.913 18.63V20.535C149.573 20.755 149.213 20.91 148.833 21C148.463 21.1 147.993 21.15 147.423 21.15ZM155.353 12.66C156.113 12.66 156.763 12.805 157.303 13.095C157.853 13.385 158.278 13.805 158.578 14.355C158.878 14.905 159.028 15.58 159.028 16.38V17.46H153.748C153.768 18.09 153.953 18.585 154.303 18.945C154.663 19.305 155.158 19.485 155.788 19.485C156.318 19.485 156.798 19.435 157.228 19.335C157.658 19.225 158.103 19.06 158.563 18.84V20.565C158.163 20.765 157.738 20.91 157.288 21C156.848 21.1 156.313 21.15 155.683 21.15C154.863 21.15 154.138 21 153.508 20.7C152.878 20.39 152.383 19.925 152.023 19.305C151.663 18.685 151.483 17.905 151.483 16.965C151.483 16.005 151.643 15.21 151.963 14.58C152.293 13.94 152.748 13.46 153.328 13.14C153.908 12.82 154.583 12.66 155.353 12.66ZM155.368 14.25C154.938 14.25 154.578 14.39 154.288 14.67C154.008 14.95 153.843 15.385 153.793 15.975H156.928C156.928 15.645 156.868 15.35 156.748 15.09C156.638 14.83 156.468 14.625 156.238 14.475C156.008 14.325 155.718 14.25 155.368 14.25Z" fill="white"/>
<path d="M187 0H5C2.23858 0 0 2.23858 0 5V27C0 29.7614 2.23858 32 5 32H187C189.761 32 192 29.7614 192 27V5C192 2.23858 189.761 0 187 0Z" fill="url(#paint0_linear_47_3)"/>
<g clip-path="url(#clip0_47_3)">
<path d="M0 5C0 2.23858 2.23858 0 5 0H31V32H5C2.23858 32 0 29.7614 0 27V5Z" fill="white"/>
<path d="M0 0V32H31V0H0ZM11.4054 23.4809C11.6108 23.693 11.6108 24.0358 11.4054 24.2479C11.3029 24.3536 11.1684 24.4068 11.0339 24.4068C10.8994 24.4068 10.7649 24.3536 10.6624 24.2479L2.93502 16.2712L10.6624 8.29451C10.8679 8.08244 11.1999 8.08244 11.4054 8.29451C11.6108 8.50658 11.6108 8.84936 11.4054 9.06142L4.42091 16.2712L11.4054 23.4809ZM18.3777 4.99797L13.6489 27.2353C13.5948 27.4885 13.3773 27.661 13.1361 27.661C13.0988 27.661 13.0605 27.6567 13.0226 27.6485C12.7394 27.5845 12.5603 27.2955 12.6223 27.0026L17.3511 4.76529C17.4131 4.47295 17.6947 4.288 17.9768 4.352C18.2606 4.416 18.4397 4.70508 18.3777 4.99797ZM20.3376 24.2479C20.2351 24.3536 20.1006 24.4068 19.9661 24.4068C19.8316 24.4068 19.6971 24.3536 19.5946 24.2479C19.3892 24.0358 19.3892 23.693 19.5946 23.4809L26.5791 16.2712L19.5946 9.06142C19.3892 8.84936 19.3892 8.50658 19.5946 8.29451C19.8001 8.08244 20.1321 8.08244 20.3376 8.29451L28.065 16.2712L20.3376 24.2479Z" fill="#613079"/>
</g>
<defs>
<linearGradient id="paint0_linear_47_3" x1="0" y1="0" x2="0" y2="32" gradientUnits="userSpaceOnUse">
<stop stop-color="#BBBBBB" stop-opacity="0.1"/>
<stop offset="1" stop-opacity="0.1"/>
</linearGradient>
<clipPath id="clip0_47_3">
<path d="M0 5C0 2.23858 2.23858 0 5 0H31V32H5C2.23858 32 0 29.7614 0 27V5Z" fill="white"/>
</clipPath>
</defs>
</svg>
