<svg width="74" height="32" viewBox="0 0 74 32" fill="none" xmlns="http://www.w3.org/2000/svg">
<g clip-path="url(#clip0_23_2)">
<path d="M69 0H31V32H69C71.7614 32 74 29.7614 74 27V5C74 2.23858 71.7614 0 69 0Z" fill="#0F1418"/>
<path d="M54.1196 12.03C53.6896 12.03 53.3046 12.115 52.9646 12.285C52.6346 12.455 52.3546 12.7 52.1246 13.02C51.8946 13.33 51.7196 13.71 51.5996 14.16C51.4896 14.61 51.4346 15.115 51.4346 15.675C51.4346 16.435 51.5246 17.085 51.7046 17.625C51.8946 18.155 52.1896 18.56 52.5896 18.84C52.9896 19.12 53.4996 19.26 54.1196 19.26C54.5596 19.26 54.9946 19.21 55.4246 19.11C55.8646 19.01 56.3396 18.87 56.8496 18.69V20.595C56.3796 20.785 55.9146 20.925 55.4546 21.015C54.9946 21.105 54.4796 21.15 53.9096 21.15C52.8096 21.15 51.8996 20.925 51.1796 20.475C50.4696 20.015 49.9446 19.375 49.6046 18.555C49.2646 17.725 49.0946 16.76 49.0946 15.66C49.0946 14.85 49.2046 14.11 49.4246 13.44C49.6446 12.76 49.9646 12.175 50.3846 11.685C50.8146 11.195 51.3396 10.815 51.9596 10.545C52.5896 10.275 53.3096 10.14 54.1196 10.14C54.6496 10.14 55.1796 10.21 55.7096 10.35C56.2496 10.48 56.7646 10.66 57.2546 10.89L56.5196 12.735C56.1196 12.545 55.7146 12.38 55.3046 12.24C54.9046 12.1 54.5096 12.03 54.1196 12.03Z" fill="white"/>
<path d="M69 0H5C2.23858 0 0 2.23858 0 5V27C0 29.7614 2.23858 32 5 32H69C71.7614 32 74 29.7614 74 27V5C74 2.23858 71.7614 0 69 0Z" fill="url(#paint0_linear_23_2)"/>
</g>
<defs>
<linearGradient id="paint0_linear_23_2" x1="0" y1="0" x2="0" y2="32" gradientUnits="userSpaceOnUse">
<stop stop-color="#8992BE" stop-opacity="0.1"/>
<stop offset="1" stop-opacity="0.1"/>
</linearGradient>
<clipPath id="clip0_23_2">
<rect width="74" height="32" fill="white"/>
</clipPath>
</defs>
</svg>
