<svg width="74" height="32" viewBox="0 0 74 32" fill="none" xmlns="http://www.w3.org/2000/svg">
<g clip-path="url(#clip0_41_2)">
<path d="M69 0H31V32H69C71.7614 32 74 29.7614 74 27V5C74 2.23858 71.7614 0 69 0Z" fill="#0F1418"/>
<path d="M31 0H5C2.23858 0 0 2.23858 0 5V27C0 29.7614 2.23858 32 5 32H31V0Z" fill="#035BDA"/>
<path d="M31 6H12V25H31V6Z" fill="url(#paint0_linear_41_2)"/>
<path d="M31 24.6208L10.4785 13.0092H0V27.2319C0 29.9933 2.23858 32.2319 5 32.2319H31V24.6208Z" fill="url(#paint1_linear_41_2)"/>
<path d="M0 24.4629L31 6.9214V0H5C2.23858 0 0 2.23858 0 5V24.4629Z" fill="url(#paint2_linear_41_2)"/>
<path d="M53.1196 12.03C52.6896 12.03 52.3046 12.115 51.9646 12.285C51.6346 12.455 51.3546 12.7 51.1246 13.02C50.8946 13.33 50.7196 13.71 50.5996 14.16C50.4896 14.61 50.4346 15.115 50.4346 15.675C50.4346 16.435 50.5246 17.085 50.7046 17.625C50.8946 18.155 51.1896 18.56 51.5896 18.84C51.9896 19.12 52.4996 19.26 53.1196 19.26C53.5596 19.26 53.9946 19.21 54.4246 19.11C54.8646 19.01 55.3396 18.87 55.8496 18.69V20.595C55.3796 20.785 54.9146 20.925 54.4546 21.015C53.9946 21.105 53.4796 21.15 52.9096 21.15C51.8096 21.15 50.8996 20.925 50.1796 20.475C49.4696 20.015 48.9446 19.375 48.6046 18.555C48.2646 17.725 48.0946 16.76 48.0946 15.66C48.0946 14.85 48.2046 14.11 48.4246 13.44C48.6446 12.76 48.9646 12.175 49.3846 11.685C49.8146 11.195 50.3396 10.815 50.9596 10.545C51.5896 10.275 52.3096 10.14 53.1196 10.14C53.6496 10.14 54.1796 10.21 54.7096 10.35C55.2496 10.48 55.7646 10.66 56.2546 10.89L55.5196 12.735C55.1196 12.545 54.7146 12.38 54.3046 12.24C53.9046 12.1 53.5096 12.03 53.1196 12.03Z" fill="white"/>
<path d="M69 0H5C2.23858 0 0 2.23858 0 5V27C0 29.7614 2.23858 32 5 32H69C71.7614 32 74 29.7614 74 27V5C74 2.23858 71.7614 0 69 0Z" fill="url(#paint3_linear_41_2)"/>
<path fill-rule="evenodd" clip-rule="evenodd" d="M15.2661 24.54C10.157 24.54 6 20.6055 6 15.77C6 10.9345 10.157 7 15.2661 7C18.5627 7 21.6379 8.67931 23.29 11.3826L19.2806 13.5799C18.4533 12.2259 16.9157 11.3874 15.2661 11.3874C12.7103 11.3874 10.6331 13.3534 10.6331 15.7724C10.6331 18.189 12.7103 20.1574 15.2661 20.1574C16.9157 20.1574 18.4533 19.3166 19.2806 17.9649L23.29 20.1622C21.6379 22.8607 18.5627 24.54 15.2661 24.54Z" fill="white"/>
</g>
<defs>
<linearGradient id="paint0_linear_41_2" x1="18.5061" y1="11.7525" x2="27.4376" y2="23.442" gradientUnits="userSpaceOnUse">
<stop stop-color="#3B009B"/>
<stop offset="1" stop-color="#390086"/>
</linearGradient>
<linearGradient id="paint1_linear_41_2" x1="8.65672" y1="19.8613" x2="16.625" y2="30.2911" gradientUnits="userSpaceOnUse">
<stop stop-color="#340084"/>
<stop offset="1" stop-color="#290064"/>
</linearGradient>
<linearGradient id="paint2_linear_41_2" x1="9.0029" y1="4.09966" x2="17.1582" y2="14.7742" gradientUnits="userSpaceOnUse">
<stop stop-color="#A47EDE"/>
<stop offset="1" stop-color="#9866D3"/>
</linearGradient>
<linearGradient id="paint3_linear_41_2" x1="0" y1="0" x2="0" y2="32" gradientUnits="userSpaceOnUse">
<stop stop-color="#BBBBBB" stop-opacity="0.1"/>
<stop offset="1" stop-opacity="0.1"/>
</linearGradient>
<clipPath id="clip0_41_2">
<rect width="74" height="32" fill="white"/>
</clipPath>
</defs>
</svg>
