<svg width="74" height="32" viewBox="0 0 74 32" fill="none" xmlns="http://www.w3.org/2000/svg">
<g clip-path="url(#clip0_23_2)">
<path d="M69 0H31V32H69C71.7614 32 74 29.7614 74 27V5C74 2.23858 71.7614 0 69 0Z" fill="#0F1418"/>
<path d="M54.1196 12.03C53.6896 12.03 53.3046 12.115 52.9646 12.285C52.6346 12.455 52.3546 12.7 52.1246 13.02C51.8946 13.33 51.7196 13.71 51.5996 14.16C51.4896 14.61 51.4346 15.115 51.4346 15.675C51.4346 16.435 51.5246 17.085 51.7046 17.625C51.8946 18.155 52.1896 18.56 52.5896 18.84C52.9896 19.12 53.4996 19.26 54.1196 19.26C54.5596 19.26 54.9946 19.21 55.4246 19.11C55.8646 19.01 56.3396 18.87 56.8496 18.69V20.595C56.3796 20.785 55.9146 20.925 55.4546 21.015C54.9946 21.105 54.4796 21.15 53.9096 21.15C52.8096 21.15 51.8996 20.925 51.1796 20.475C50.4696 20.015 49.9446 19.375 49.6046 18.555C49.2646 17.725 49.0946 16.76 49.0946 15.66C49.0946 14.85 49.2046 14.11 49.4246 13.44C49.6446 12.76 49.9646 12.175 50.3846 11.685C50.8146 11.195 51.3396 10.815 51.9596 10.545C52.5896 10.275 53.3096 10.14 54.1196 10.14C54.6496 10.14 55.1796 10.21 55.7096 10.35C56.2496 10.48 56.7646 10.66 57.2546 10.89L56.5196 12.735C56.1196 12.545 55.7146 12.38 55.3046 12.24C54.9046 12.1 54.5096 12.03 54.1196 12.03Z" fill="white"/>
<path d="M69 0H5C2.23858 0 0 2.23858 0 5V27C0 29.7614 2.23858 32 5 32H69C71.7614 32 74 29.7614 74 27V5C74 2.23858 71.7614 0 69 0Z" fill="url(#paint0_linear_23_2)"/>
<path fill-rule="evenodd" clip-rule="evenodd" d="M30.6082 23.9988C30.8524 23.6134 31.0028 23.1759 31.0028 22.7852V9.21232C31.0028 8.8217 30.8524 8.3868 30.6082 7.99878L15.5014 15.9988L30.6082 23.9988Z" fill="#3949AB"/>
<path fill-rule="evenodd" clip-rule="evenodd" d="M16.8443 31.7045L29.6599 24.9181C30.029 24.7227 30.364 24.3842 30.6082 23.9988L15.5014 15.9988L0.394623 23.9988C0.638784 24.3842 0.973797 24.7227 1.34288 24.9181L14.1585 31.7045C14.8967 32.0951 16.1033 32.0951 16.8443 31.7045Z" fill="#283593"/>
<path fill-rule="evenodd" clip-rule="evenodd" d="M30.6082 7.9987C30.364 7.61328 30.029 7.27474 29.66 7.07943L16.8443 0.292969C16.1061 -0.0976562 14.8967 -0.0976562 14.1585 0.292969L1.34289 7.07943C0.604726 7.47005 0 8.43099 0 9.21224V22.7852C0 23.1758 0.150472 23.6107 0.394633 23.9987L15.5014 15.9987L30.6082 7.9987Z" fill="#5C6BC0"/>
<path fill-rule="evenodd" clip-rule="evenodd" d="M15.5014 25.4779C9.80337 25.4779 5.16714 21.2253 5.16714 15.9987C5.16714 10.7721 9.80337 6.51953 15.5014 6.51953C19.178 6.51953 22.6077 8.33463 24.4502 11.2565L19.9787 13.6315C19.056 12.168 17.3412 11.2617 15.5014 11.2617C12.651 11.2617 10.3343 13.3867 10.3343 16.0013C10.3343 18.6133 12.651 20.7409 15.5014 20.7409C17.3412 20.7409 19.056 19.832 19.9787 18.3711L24.4502 20.7461C22.6077 23.6628 19.178 25.4779 15.5014 25.4779Z" fill="white"/>
</g>
<defs>
<linearGradient id="paint0_linear_23_2" x1="0" y1="0" x2="0" y2="32" gradientUnits="userSpaceOnUse">
<stop stop-color="#8992BE" stop-opacity="0.1"/>
<stop offset="1" stop-opacity="0.1"/>
</linearGradient>
<clipPath id="clip0_23_2">
<rect width="74" height="32" fill="white"/>
</clipPath>
</defs>
</svg>
