<svg width="130" height="32" viewBox="0 0 130 32" fill="none" xmlns="http://www.w3.org/2000/svg">
<path d="M125 0H31V32H125C127.761 32 130 29.7614 130 27V5C130 2.23858 127.761 0 125 0Z" fill="#0F1418"/>
<path d="M45.4961 21L42.9161 12.6H42.8561C42.8661 12.8 42.8811 13.1 42.9011 13.5C42.9211 13.9 42.9411 14.33 42.9611 14.79C42.9811 15.24 42.9911 15.65 42.9911 16.02V21H40.9661V10.29H44.0561L46.5911 18.48H46.6361L49.3211 10.29H52.4111V21H50.2961V15.93C50.2961 15.59 50.3011 15.2 50.3111 14.76C50.3311 14.32 50.3461 13.905 50.3561 13.515C50.3761 13.115 50.3911 12.815 50.4011 12.615H50.3411L47.5811 21H45.4961ZM58.4765 12.645C59.5765 12.645 60.4165 12.885 60.9965 13.365C61.5865 13.835 61.8815 14.56 61.8815 15.54V21H60.3215L59.8865 19.89H59.8265C59.5965 20.18 59.3565 20.42 59.1065 20.61C58.8665 20.8 58.5865 20.935 58.2665 21.015C57.9565 21.105 57.5715 21.15 57.1115 21.15C56.6315 21.15 56.1965 21.06 55.8065 20.88C55.4265 20.69 55.1265 20.405 54.9065 20.025C54.6865 19.635 54.5765 19.145 54.5765 18.555C54.5765 17.685 54.8815 17.045 55.4915 16.635C56.1015 16.215 57.0165 15.985 58.2365 15.945L59.6615 15.9V15.54C59.6615 15.11 59.5465 14.795 59.3165 14.595C59.0965 14.395 58.7865 14.295 58.3865 14.295C57.9865 14.295 57.5965 14.355 57.2165 14.475C56.8365 14.585 56.4565 14.725 56.0765 14.895L55.3415 13.38C55.7815 13.15 56.2665 12.97 56.7965 12.84C57.3365 12.71 57.8965 12.645 58.4765 12.645ZM58.7915 17.235C58.0715 17.255 57.5715 17.385 57.2915 17.625C57.0115 17.865 56.8715 18.18 56.8715 18.57C56.8715 18.91 56.9715 19.155 57.1715 19.305C57.3715 19.445 57.6315 19.515 57.9515 19.515C58.4315 19.515 58.8365 19.375 59.1665 19.095C59.4965 18.805 59.6615 18.4 59.6615 17.88V17.205L58.7915 17.235ZM68.9242 12.66C69.0342 12.66 69.1642 12.665 69.3142 12.675C69.4642 12.685 69.5842 12.7 69.6742 12.72L69.5092 14.82C69.4392 14.8 69.3342 14.785 69.1942 14.775C69.0642 14.755 68.9492 14.745 68.8492 14.745C68.5592 14.745 68.2792 14.785 68.0092 14.865C67.7392 14.935 67.4942 15.05 67.2742 15.21C67.0642 15.37 66.8942 15.585 66.7642 15.855C66.6442 16.115 66.5842 16.44 66.5842 16.83V21H64.3492V12.81H66.0442L66.3742 14.19H66.4792C66.6392 13.91 66.8392 13.655 67.0792 13.425C67.3192 13.195 67.5942 13.01 67.9042 12.87C68.2242 12.73 68.5642 12.66 68.9242 12.66ZM73.5757 14.7C73.5757 15.01 73.5607 15.32 73.5307 15.63C73.5107 15.93 73.4857 16.235 73.4557 16.545H73.4857C73.5857 16.405 73.6857 16.265 73.7857 16.125C73.8957 15.985 74.0057 15.845 74.1157 15.705C74.2257 15.565 74.3407 15.43 74.4607 15.3L76.7557 12.81H79.2757L76.0207 16.365L79.4707 21H76.8907L74.5357 17.685L73.5757 18.45V21H71.3407V9.6H73.5757V14.7ZM83.4175 21.15C82.5075 21.15 81.7625 20.795 81.1825 20.085C80.6125 19.365 80.3275 18.31 80.3275 16.92C80.3275 15.52 80.6175 14.46 81.1975 13.74C81.7775 13.02 82.5375 12.66 83.4775 12.66C83.8675 12.66 84.2125 12.715 84.5125 12.825C84.8125 12.925 85.0675 13.065 85.2775 13.245C85.4975 13.425 85.6825 13.63 85.8325 13.86H85.9075C85.8775 13.7 85.8425 13.47 85.8025 13.17C85.7625 12.86 85.7425 12.545 85.7425 12.225V9.6H87.9775V21H86.2675L85.8325 19.935H85.7425C85.6025 20.155 85.4225 20.36 85.2025 20.55C84.9925 20.73 84.7425 20.875 84.4525 20.985C84.1625 21.095 83.8175 21.15 83.4175 21.15ZM84.1975 19.365C84.8175 19.365 85.2525 19.185 85.5025 18.825C85.7525 18.455 85.8825 17.905 85.8925 17.175V16.935C85.8925 16.135 85.7675 15.525 85.5175 15.105C85.2775 14.685 84.8275 14.475 84.1675 14.475C83.6775 14.475 83.2925 14.69 83.0125 15.12C82.7325 15.54 82.5925 16.15 82.5925 16.95C82.5925 17.75 82.7325 18.355 83.0125 18.765C83.2925 19.165 83.6875 19.365 84.1975 19.365ZM97.9347 16.89C97.9347 17.57 97.8397 18.175 97.6497 18.705C97.4697 19.235 97.2047 19.685 96.8547 20.055C96.5147 20.415 96.0997 20.69 95.6097 20.88C95.1197 21.06 94.5647 21.15 93.9447 21.15C93.3747 21.15 92.8447 21.06 92.3547 20.88C91.8747 20.69 91.4597 20.415 91.1097 20.055C90.7597 19.685 90.4847 19.235 90.2847 18.705C90.0947 18.175 89.9997 17.57 89.9997 16.89C89.9997 15.98 90.1597 15.215 90.4797 14.595C90.7997 13.965 91.2597 13.485 91.8597 13.155C92.4597 12.825 93.1697 12.66 93.9897 12.66C94.7597 12.66 95.4397 12.825 96.0297 13.155C96.6197 13.485 97.0847 13.965 97.4247 14.595C97.7647 15.215 97.9347 15.98 97.9347 16.89ZM92.2797 16.89C92.2797 17.43 92.3347 17.885 92.4447 18.255C92.5647 18.615 92.7497 18.89 92.9997 19.08C93.2497 19.26 93.5747 19.35 93.9747 19.35C94.3747 19.35 94.6947 19.26 94.9347 19.08C95.1847 18.89 95.3647 18.615 95.4747 18.255C95.5947 17.885 95.6547 17.43 95.6547 16.89C95.6547 16.35 95.5947 15.9 95.4747 15.54C95.3647 15.18 95.1847 14.91 94.9347 14.73C94.6847 14.55 94.3597 14.46 93.9597 14.46C93.3697 14.46 92.9397 14.665 92.6697 15.075C92.4097 15.475 92.2797 16.08 92.2797 16.89ZM105.774 18.135C105.734 17.965 105.674 17.715 105.594 17.385C105.524 17.045 105.444 16.685 105.354 16.305C105.264 15.915 105.179 15.56 105.099 15.24C105.019 14.91 104.964 14.67 104.934 14.52H104.874C104.844 14.67 104.789 14.91 104.709 15.24C104.639 15.56 104.559 15.915 104.469 16.305C104.379 16.685 104.294 17.045 104.214 17.385C104.134 17.725 104.074 17.985 104.034 18.165L103.374 21H100.974L98.6488 12.81H100.869L101.814 16.44C101.884 16.69 101.944 16.99 101.994 17.34C102.054 17.69 102.109 18.03 102.159 18.36C102.209 18.68 102.244 18.935 102.264 19.125H102.324C102.334 18.985 102.354 18.8 102.384 18.57C102.414 18.33 102.449 18.085 102.489 17.835C102.539 17.585 102.579 17.36 102.609 17.16C102.649 16.95 102.679 16.81 102.699 16.74L103.704 12.81H106.164L107.124 16.74C107.164 16.88 107.209 17.105 107.259 17.415C107.319 17.725 107.369 18.04 107.409 18.36C107.459 18.68 107.484 18.935 107.484 19.125H107.544C107.564 18.955 107.599 18.71 107.649 18.39C107.699 18.06 107.754 17.715 107.814 17.355C107.884 16.995 107.954 16.69 108.024 16.44L108.999 12.81H111.189L108.834 21H106.404L105.774 18.135ZM117.346 12.66C118.226 12.66 118.931 12.9 119.461 13.38C119.991 13.85 120.256 14.61 120.256 15.66V21H118.021V16.215C118.021 15.625 117.916 15.185 117.706 14.895C117.496 14.595 117.161 14.445 116.701 14.445C116.021 14.445 115.556 14.68 115.306 15.15C115.056 15.61 114.931 16.275 114.931 17.145V21H112.696V12.81H114.406L114.706 13.86H114.826C115.006 13.58 115.226 13.355 115.486 13.185C115.746 13.005 116.036 12.875 116.356 12.795C116.676 12.705 117.006 12.66 117.346 12.66Z" fill="white"/>
<path d="M125 0H5C2.23858 0 0 2.23858 0 5V27C0 29.7614 2.23858 32 5 32H125C127.761 32 130 29.7614 130 27V5C130 2.23858 127.761 0 125 0Z" fill="url(#paint0_linear_40_30)"/>
<path d="M0 5C0 2.23858 2.23858 0 5 0H31V32H5C2.23858 32 0 29.7614 0 27V5Z" fill="#0F1418"/>
<path d="M28.7641 25.8467H2.23588C1.94243 25.8467 1.65185 25.787 1.38074 25.6711C1.10963 25.5551 0.863292 25.3852 0.655791 25.171C0.448291 24.9569 0.283693 24.7026 0.171395 24.4227C0.0590962 24.1429 0.001297 23.8429 0.001297 23.54V8.45999C0.001297 7.84822 0.236726 7.26151 0.655791 6.82893C1.07486 6.39634 1.64323 6.15332 2.23588 6.15332H28.7641C29.0576 6.15332 29.3482 6.21298 29.6193 6.32891C29.8904 6.44483 30.1367 6.61473 30.3442 6.82893C30.5517 7.04312 30.7163 7.29741 30.8286 7.57726C30.9409 7.85712 30.9987 8.15707 30.9987 8.45999V23.5373C30.9989 23.8403 30.9412 24.1404 30.829 24.4205C30.7168 24.7005 30.5522 24.9549 30.3447 25.1692C30.1372 25.3836 29.8908 25.5536 29.6196 25.6696C29.3484 25.7856 29.0577 25.8453 28.7641 25.8453V25.8467ZM7.45163 21.2307V15.2307L10.4328 19.0773L13.4127 15.2307V21.2307H16.3938V10.7707H13.4127L10.4328 14.6173L7.45163 10.7707H4.47046V21.2333L7.45163 21.2307ZM27.4234 16H24.4422V10.7693H21.4623V16H18.4812L22.9516 21.3853L27.4234 16Z" fill="white"/>
<defs>
<linearGradient id="paint0_linear_40_30" x1="0" y1="0" x2="0" y2="32" gradientUnits="userSpaceOnUse">
<stop stop-color="#BBBBBB" stop-opacity="0.1"/>
<stop offset="1" stop-opacity="0.1"/>
</linearGradient>
</defs>
</svg>
