<svg fill="none" height="32" viewBox="0 0 118 32" width="118" xmlns="http://www.w3.org/2000/svg" xmlns:xlink="http://www.w3.org/1999/xlink"><linearGradient id="a" gradientUnits="userSpaceOnUse" x1="0" x2="0" y1="0" y2="32"><stop offset="0" stop-color="#bbb" stop-opacity=".1"/><stop offset="1" stop-opacity=".1"/></linearGradient><clipPath id="b"><path d="m0 0h31v32h-31z"/></clipPath><path d="m113 0h-82v32h82c2.761 0 5-2.2386 5-5v-22c0-2.76142-2.239-5-5-5z" fill="#0f1418"/><path d="m56.1236 15.54c0 1.2-.23 2.205-.69 3.015s-1.13 1.42-2.01 1.83c-.87.41-1.92.615-3.15.615h-3.03v-10.71h3.36c1.12 0 2.09.2 2.91.6.83.4 1.47.99 1.92 1.77.46.77.69 1.73.69 2.88zm-2.355.06c0-.79-.115-1.44-.345-1.95s-.575-.885-1.035-1.125c-.45-.25-1.005-.375-1.665-.375h-1.215v6.975h.975c1.11 0 1.935-.295 2.475-.885s.81-1.47.81-2.64zm6.8135-2.79v8.19h-2.235v-8.19zm-1.11-3.21c.33 0 .615.08.855.24.24.15.36.435.36.855 0 .41-.12.695-.36.855s-.525.24-.855.24c-.34 0-.63-.08-.87-.24-.23-.16-.345-.445-.345-.855 0-.42.115-.705.345-.855.24-.16.53-.24.87-.24zm9.3403 8.97c0 .55-.13 1.02-.39 1.41-.26.38-.65.67-1.17.87s-1.165.3-1.935.3c-.57 0-1.06-.04-1.47-.12-.41-.07-.82-.19-1.23-.36v-1.845c.44.2.915.365 1.425.495s.96.195 1.35.195c.44 0 .75-.065.93-.195.19-.13.285-.3.285-.51 0-.14-.04-.265-.12-.375-.07-.11-.23-.235-.48-.375s-.64-.32-1.17-.54c-.51-.22-.93-.435-1.26-.645-.33-.22-.575-.48-.735-.78-.16-.31-.24-.695-.24-1.155 0-.76.295-1.33.885-1.71s1.375-.57 2.355-.57c.51 0 .995.05 1.455.15s.935.265 1.425.495l-.675 1.605c-.27-.12-.53-.225-.78-.315s-.495-.16-.735-.21c-.23-.05-.47-.075-.72-.075-.33 0-.58.045-.75.135-.16.09-.24.225-.24.405 0 .13.04.25.12.36.09.1.255.21.495.33.25.12.615.28 1.095.48.47.19.875.39 1.215.6.34.2.6.455.78.765.19.3.285.695.285 1.185zm5.2511 2.58c-.81 0-1.5-.145-2.07-.435-.57-.3-1.005-.76-1.305-1.38s-.45-1.415-.45-2.385c0-1 .17-1.815.51-2.445s.81-1.095 1.41-1.395c.61-.3 1.31-.45 2.1-.45.56 0 1.045.055 1.455.165.42.11.785.24 1.095.39l-.66 1.725c-.35-.14-.68-.255-.99-.345-.3-.09-.6-.135-.9-.135-.39 0-.715.095-.975.285-.26.18-.455.455-.585.825-.12.36-.18.815-.18 1.365 0 .54.065.99.195 1.35.14.35.34.615.6.795.26.17.575.255.945.255.47 0 .885-.06 1.245-.18.36-.13.71-.305 1.05-.525v1.905c-.34.22-.7.375-1.08.465-.37.1-.84.15-1.41.15zm11.9951-4.26c0 .68-.095 1.285-.285 1.815-.18.53-.445.98-.795 1.35-.34.36-.755.635-1.245.825-.49.18-1.045.27-1.665.27-.57 0-1.1-.09-1.59-.27-.48-.19-.895-.465-1.245-.825-.35-.37-.625-.82-.825-1.35-.19-.53-.285-1.135-.285-1.815 0-.91.16-1.675.48-2.295.32-.63.78-1.11 1.38-1.44s1.31-.495 2.13-.495c.77 0 1.45.165 2.04.495s1.055.81 1.395 1.44c.34.62.51 1.385.51 2.295zm-5.655 0c0 .54.055.995.165 1.365.12.36.305.635.555.825.25.18.575.27.975.27s.72-.09.96-.27c.25-.19.43-.465.54-.825.12-.37.18-.825.18-1.365s-.06-.99-.18-1.35c-.11-.36-.29-.63-.54-.81s-.575-.27-.975-.27c-.59 0-1.02.205-1.29.615-.26.4-.39 1.005-.39 1.815zm12.2571-4.23c.11 0 .24.005.39.015s.27.025.36.045l-.165 2.1c-.07-.02-.175-.035-.315-.045-.13-.02-.245-.03-.345-.03-.29 0-.57.04-.84.12-.27.07-.515.185-.735.345-.21.16-.38.375-.51.645-.12.26-.18.585-.18.975v4.17h-2.235v-8.19h1.695l.33 1.38h.105c.16-.28.36-.535.6-.765s.515-.415.825-.555c.32-.14.66-.21 1.02-.21zm4.7185 8.49c-.91 0-1.655-.355-2.235-1.065-.57-.72-.855-1.775-.855-3.165 0-1.4.29-2.46.87-3.18s1.34-1.08 2.28-1.08c.39 0 .735.055 1.035.165.3.1.555.24.765.42.22.18.405.385.555.615h.075c-.03-.16-.065-.39-.105-.69-.04-.31-.06-.625-.06-.945v-2.625h2.2348v11.4h-1.71l-.4348-1.065h-.09c-.14.22-.32.425-.54.615-.21.18-.46.325-.75.435s-.635.165-1.035.165zm.78-1.785c.62 0 1.055-.18 1.305-.54.25-.37.38-.92.39-1.65v-.24c0-.8-.125-1.41-.375-1.83-.24-.42-.69-.63-1.35-.63-.49 0-.875.215-1.155.645-.28.42-.42 1.03-.42 1.83s.14 1.405.42 1.815c.28.4.675.6 1.185.6z" fill="#fff"/><path d="m113 0h-108c-2.76142 0-5 2.23858-5 5v22c0 2.7614 2.23858 5 5 5h108c2.761 0 5-2.2386 5-5v-22c0-2.76142-2.239-5-5-5z" fill="url(#a)"/><g clip-path="url(#b)"><path d="m30.9909 0h-30.98181797c-.00501587 0-.00908203.00419733-.00908203.009375v31.981225c0 .0052.00406616.0094.00908203.0094h30.98181797c.005 0 .0091-.0042.0091-.0094v-31.981225c0-.00517767-.0041-.009375-.0091-.009375z" fill="#fff"/><path d="m23.3711 8.56254c-1.4531-.6875-2.9971-1.1875-4.6197-1.48125-.0303 0-.0606 0-.0727.0375-.1998.36875-.4238.84375-.5752 1.21875-1.7559-.26875-3.4814-.26875-5.1889 0-.1574-.3875-.3814-.85625-.6054-1.21875-.0182-.025-.0424-.04375-.0727-.0375-1.3926.2875-3.17264.8125-4.60155 1.48125-.01211 0-.02421.0125-.03027.025-2.9668 4.56246-3.75391 8.93746-3.33008 13.31246 0 .0188.01211.0438.03028.0625 1.9375 1.475 3.81445 2.375 5.66718 2.9563.03024 0 .06054 0 .07874-.025.4359-.6125.8234-1.2625 1.1625-1.95.0181-.0375 0-.0875-.0424-.1-.6055-.25-1.21095-.5375-1.77403-.875-.04238-.025-.04844-.0938 0-.125.12109-.0938.24219-.1875.35117-.2813.01816-.0187.04844-.0187.07266-.0125 3.7176 1.75 7.75 1.75 11.3828 0 .0242-.0125.0545-.0062.0727.0063.115.1.23.1937.3511.2875.0424.0312.0364.1 0 .125-.563.3437-1.1504.625-1.774.875-.0424.0187-.0605.0625-.0363.1062.339.6875.7326 1.3313 1.1504 1.9375.0181.025.0484.0375.0787.025 1.8527-.5937 3.7357-1.4875 5.6793-2.9562.0181-.0125.0303-.0313.0303-.0625.4722-5.0563-.7932-9.4375-3.3543-13.31251 0-.0125-.0182-.025-.0303-.025zm-11.625 10.68746c-1.1504 0-2.05861-1.0625-2.05861-2.375s.90821-2.375 2.05861-2.375 2.0586 1.0625 2.0586 2.375-.9082 2.375-2.0586 2.375zm7.5683 0c-1.1503 0-2.0585-1.0625-2.0585-2.375s.9082-2.375 2.0585-2.375c1.1504 0 2.0586 1.0625 2.0586 2.375s-.9082 2.375-2.0586 2.375z" fill="#5865f2"/></g></svg>