<svg width="105" height="32" viewBox="0 0 105 32" fill="none" xmlns="http://www.w3.org/2000/svg">
<path d="M100 0H31V32H100C102.761 32 105 29.7614 105 27V5C105 2.23858 102.761 0 100 0Z" fill="#0F1418"/>
<path d="M49.4501 20H43.2851V9.29H49.4501V11.15H45.5501V13.505H49.1801V15.365H45.5501V18.125H49.4501V20ZM55.0087 20.15C54.1987 20.15 53.5087 20.005 52.9387 19.715C52.3687 19.415 51.9337 18.955 51.6337 18.335C51.3337 17.715 51.1837 16.92 51.1837 15.95C51.1837 14.95 51.3537 14.135 51.6937 13.505C52.0337 12.875 52.5037 12.41 53.1037 12.11C53.7137 11.81 54.4137 11.66 55.2037 11.66C55.7637 11.66 56.2487 11.715 56.6587 11.825C57.0787 11.935 57.4437 12.065 57.7537 12.215L57.0937 13.94C56.7437 13.8 56.4137 13.685 56.1037 13.595C55.8037 13.505 55.5037 13.46 55.2037 13.46C54.8137 13.46 54.4887 13.555 54.2287 13.745C53.9687 13.925 53.7737 14.2 53.6437 14.57C53.5237 14.93 53.4637 15.385 53.4637 15.935C53.4637 16.475 53.5287 16.925 53.6587 17.285C53.7987 17.635 53.9987 17.9 54.2587 18.08C54.5187 18.25 54.8337 18.335 55.2037 18.335C55.6737 18.335 56.0887 18.275 56.4487 18.155C56.8087 18.025 57.1587 17.85 57.4987 17.63V19.535C57.1587 19.755 56.7987 19.91 56.4187 20C56.0487 20.1 55.5787 20.15 55.0087 20.15ZM61.7987 20H59.5637V8.6H61.7987V20ZM66.549 11.81V20H64.314V11.81H66.549ZM65.439 8.6C65.769 8.6 66.054 8.68 66.294 8.84C66.534 8.99 66.654 9.275 66.654 9.695C66.654 10.105 66.534 10.39 66.294 10.55C66.054 10.71 65.769 10.79 65.439 10.79C65.099 10.79 64.809 10.71 64.569 10.55C64.339 10.39 64.224 10.105 64.224 9.695C64.224 9.275 64.339 8.99 64.569 8.84C64.809 8.68 65.099 8.6 65.439 8.6ZM73.6244 11.66C74.5444 11.66 75.2894 12.02 75.8594 12.74C76.4294 13.45 76.7144 14.5 76.7144 15.89C76.7144 16.82 76.5794 17.605 76.3094 18.245C76.0394 18.875 75.6694 19.35 75.1994 19.67C74.7294 19.99 74.1844 20.15 73.5644 20.15C73.1744 20.15 72.8344 20.1 72.5444 20C72.2644 19.9 72.0244 19.77 71.8244 19.61C71.6244 19.45 71.4494 19.28 71.2994 19.1H71.1794C71.2194 19.29 71.2494 19.49 71.2694 19.7C71.2894 19.9 71.2994 20.1 71.2994 20.3V23.6H69.0644V11.81H70.8794L71.1944 12.875H71.2994C71.4494 12.655 71.6294 12.455 71.8394 12.275C72.0494 12.085 72.2994 11.935 72.5894 11.825C72.8894 11.715 73.2344 11.66 73.6244 11.66ZM72.9044 13.445C72.5144 13.445 72.2044 13.525 71.9744 13.685C71.7444 13.845 71.5744 14.09 71.4644 14.42C71.3644 14.74 71.3094 15.145 71.2994 15.635V15.875C71.2994 16.405 71.3494 16.855 71.4494 17.225C71.5494 17.585 71.7194 17.86 71.9594 18.05C72.1994 18.24 72.5244 18.335 72.9344 18.335C73.2744 18.335 73.5544 18.24 73.7744 18.05C73.9944 17.86 74.1594 17.58 74.2694 17.21C74.3794 16.84 74.4344 16.39 74.4344 15.86C74.4344 15.06 74.3094 14.46 74.0594 14.06C73.8194 13.65 73.4344 13.445 72.9044 13.445ZM84.4515 17.57C84.4515 18.12 84.3215 18.59 84.0615 18.98C83.8015 19.36 83.4115 19.65 82.8915 19.85C82.3715 20.05 81.7265 20.15 80.9565 20.15C80.3865 20.15 79.8965 20.11 79.4865 20.03C79.0765 19.96 78.6665 19.84 78.2565 19.67V17.825C78.6965 18.025 79.1715 18.19 79.6815 18.32C80.1915 18.45 80.6415 18.515 81.0315 18.515C81.4715 18.515 81.7815 18.45 81.9615 18.32C82.1515 18.19 82.2465 18.02 82.2465 17.81C82.2465 17.67 82.2065 17.545 82.1265 17.435C82.0565 17.325 81.8965 17.2 81.6465 17.06C81.3965 16.92 81.0065 16.74 80.4765 16.52C79.9665 16.3 79.5465 16.085 79.2165 15.875C78.8865 15.655 78.6415 15.395 78.4815 15.095C78.3215 14.785 78.2415 14.4 78.2415 13.94C78.2415 13.18 78.5365 12.61 79.1265 12.23C79.7165 11.85 80.5015 11.66 81.4815 11.66C81.9915 11.66 82.4765 11.71 82.9365 11.81C83.3965 11.91 83.8715 12.075 84.3615 12.305L83.6865 13.91C83.4165 13.79 83.1565 13.685 82.9065 13.595C82.6565 13.505 82.4115 13.435 82.1715 13.385C81.9415 13.335 81.7015 13.31 81.4515 13.31C81.1215 13.31 80.8715 13.355 80.7015 13.445C80.5415 13.535 80.4615 13.67 80.4615 13.85C80.4615 13.98 80.5015 14.1 80.5815 14.21C80.6715 14.31 80.8365 14.42 81.0765 14.54C81.3265 14.66 81.6915 14.82 82.1715 15.02C82.6415 15.21 83.0465 15.41 83.3865 15.62C83.7265 15.82 83.9865 16.075 84.1665 16.385C84.3565 16.685 84.4515 17.08 84.4515 17.57ZM89.7476 11.66C90.5076 11.66 91.1576 11.805 91.6976 12.095C92.2476 12.385 92.6726 12.805 92.9726 13.355C93.2726 13.905 93.4226 14.58 93.4226 15.38V16.46H88.1426C88.1626 17.09 88.3476 17.585 88.6976 17.945C89.0576 18.305 89.5526 18.485 90.1826 18.485C90.7126 18.485 91.1926 18.435 91.6226 18.335C92.0526 18.225 92.4976 18.06 92.9576 17.84V19.565C92.5576 19.765 92.1326 19.91 91.6826 20C91.2426 20.1 90.7076 20.15 90.0776 20.15C89.2576 20.15 88.5326 20 87.9026 19.7C87.2726 19.39 86.7776 18.925 86.4176 18.305C86.0576 17.685 85.8776 16.905 85.8776 15.965C85.8776 15.005 86.0376 14.21 86.3576 13.58C86.6876 12.94 87.1426 12.46 87.7226 12.14C88.3026 11.82 88.9776 11.66 89.7476 11.66ZM89.7626 13.25C89.3326 13.25 88.9726 13.39 88.6826 13.67C88.4026 13.95 88.2376 14.385 88.1876 14.975H91.3226C91.3226 14.645 91.2626 14.35 91.1426 14.09C91.0326 13.83 90.8626 13.625 90.6326 13.475C90.4026 13.325 90.1126 13.25 89.7626 13.25Z" fill="white"/>
<path d="M100 0H5C2.23858 0 0 2.23858 0 5V27C0 29.7614 2.23858 32 5 32H100C102.761 32 105 29.7614 105 27V5C105 2.23858 102.761 0 100 0Z" fill="url(#paint0_linear_25_94)"/>
<path d="M7.47553 5.83871C8.20403 5.95671 9.12434 6.14538 10.1067 6.43338C9.88513 7.08471 9.69591 7.76938 9.55382 8.47138C8.84793 8.46471 8.15043 8.51538 7.47941 8.60538C7.41547 7.56271 7.43226 6.60471 7.47553 5.83871ZM6.5113 8.76271C6.45576 7.93204 6.45188 7.15538 6.47255 6.47271C6.43832 6.50738 6.40022 6.53671 6.36599 6.57204C5.5587 7.40538 4.89543 8.32938 4.34647 9.30338C4.98391 9.10871 5.71047 8.91538 6.5113 8.76271ZM7.8824 11.414C8.25634 10.7514 8.70843 10.1234 9.25738 9.55604C9.28645 9.52604 9.31809 9.50138 9.34715 9.47204C8.7433 9.47738 8.14461 9.52671 7.5653 9.60671C7.63247 10.204 7.74226 10.8114 7.8824 11.414ZM7.05832 12.1614C6.84197 11.3647 6.69472 10.556 6.60236 9.76938C5.46376 9.99338 4.46078 10.3007 3.7213 10.562C3.70838 10.592 3.69418 10.6207 3.68126 10.6507C4.00547 11.4 4.47951 12.382 5.10468 13.4054C5.70918 12.9547 6.36276 12.5287 7.05832 12.1614ZM4.37618 13.9767C3.91376 13.2287 3.53853 12.51 3.23305 11.8687C2.85007 13.0867 2.64211 14.348 2.60724 15.616C3.09678 15.1107 3.69224 14.542 4.37618 13.9767ZM2.7138 17.7494C2.87655 19.0307 3.22013 20.288 3.74261 21.4854C3.98222 20.7987 4.29028 20.0154 4.67907 19.202C3.92861 18.7127 3.26534 18.2067 2.7138 17.7494ZM2.79001 16.7687C3.37578 17.2787 4.14755 17.8927 5.04332 18.4827C5.39982 17.812 5.81251 17.1434 6.28526 16.5087C5.76795 15.954 5.3023 15.3614 4.88768 14.7607C4.03195 15.4747 3.3112 16.1987 2.79001 16.7687ZM5.61101 14.188C5.9378 14.666 6.30399 15.1327 6.69601 15.5794C6.73153 14.7754 6.86716 13.9767 7.10741 13.2034C6.58299 13.5054 6.07924 13.836 5.61101 14.188ZM10.4825 5.42538C10.7906 4.65804 11.1206 3.96271 11.4332 3.36138C10.3547 3.72938 9.31163 4.23671 8.3403 4.90471C8.98355 5.02804 9.71011 5.19404 10.4825 5.42538ZM11.4791 5.75004C12.0726 5.96404 12.6732 6.22004 13.2628 6.51738C13.8196 5.85204 14.2968 5.29138 14.6172 4.91738C14.1522 4.51938 13.4146 3.90738 12.639 3.32738C12.2754 3.98471 11.8601 4.81471 11.4791 5.75004ZM7.21268 23.736C6.28397 23.6487 5.43018 23.498 4.71524 23.3407C5.18734 24.0794 5.73759 24.7794 6.36663 25.4287C6.69795 25.7707 7.04411 26.0867 7.40061 26.3834C7.30245 25.6214 7.22301 24.7134 7.21268 23.736ZM24.6334 6.57138C21.7517 3.59738 17.836 2.33271 14.0695 2.76271C15.0906 3.56671 15.9037 4.29204 15.9631 4.34604L16.4584 4.79071L16.0199 5.29471C16.0096 5.30671 15.4412 5.96204 14.6184 6.93871C14.9117 6.90871 15.2055 6.89204 15.5 6.89204C17.7604 6.89204 20.0215 7.78071 21.7426 9.55671C25.1849 13.11 25.1849 18.8914 21.7426 22.4447C18.7602 25.5227 14.158 25.9287 10.7428 23.6727C10.0879 23.7707 9.42918 23.8154 8.78528 23.8154C8.49659 23.8154 8.21307 23.8047 7.93213 23.79C7.94957 25.0367 8.08261 26.168 8.21372 27.0014C10.4024 28.5474 12.9496 29.3294 15.5007 29.3294C18.8086 29.3294 22.1159 28.0294 24.634 25.4307C29.6696 20.2294 29.6696 11.7707 24.6334 6.57138ZM9.87868 23.0234C9.66555 22.8414 9.45759 22.65 9.25803 22.4447C8.82468 21.9974 8.44622 21.514 8.12201 21.0047C8.01286 21.6894 7.95409 22.376 7.9373 23.0447C8.56893 23.08 9.2238 23.074 9.87868 23.0234ZM11.0987 6.75404C10.9165 7.28271 10.7609 7.83471 10.633 8.39671C11.2207 7.99538 11.8472 7.68404 12.493 7.44338C12.5156 7.41604 12.5408 7.38471 12.5634 7.35738C12.079 7.12671 11.5869 6.92738 11.0987 6.75404ZM6.76188 17.1994C6.37051 17.7487 6.01853 18.3227 5.71305 18.902C6.2717 19.2354 6.86845 19.54 7.4878 19.8014C7.11838 18.9687 6.87555 18.092 6.76188 17.1994ZM7.45357 20.6554C6.71345 20.364 6.00884 20.0074 5.35332 19.62C4.8528 20.6774 4.48726 21.6887 4.2412 22.4707C5.01749 22.6647 6.06438 22.876 7.22043 22.99C7.24238 22.2274 7.31343 21.4407 7.45357 20.6554Z" fill="url(#paint1_linear_25_94)"/>
<defs>
<linearGradient id="paint0_linear_25_94" x1="0" y1="0" x2="0" y2="32" gradientUnits="userSpaceOnUse">
<stop stop-color="#BBBBBB" stop-opacity="0.1"/>
<stop offset="1" stop-opacity="0.1"/>
</linearGradient>
<linearGradient id="paint1_linear_25_94" x1="13.4572" y1="2.82271" x2="17.5328" y2="27.4115" gradientUnits="userSpaceOnUse">
<stop stop-color="#50D133"/>
<stop offset="1" stop-color="#3DA126"/>
</linearGradient>
</defs>
</svg>
