<svg fill="none" height="32" viewBox="0 0 134 32" width="134" xmlns="http://www.w3.org/2000/svg" xmlns:xlink="http://www.w3.org/1999/xlink"><linearGradient id="a" gradientUnits="userSpaceOnUse" x1="0" x2="0" y1="0" y2="32"><stop offset="0" stop-color="#bbb" stop-opacity=".1"/><stop offset="1" stop-opacity=".1"/></linearGradient><linearGradient id="b" gradientUnits="userSpaceOnUse" x1="13.4572" x2="17.5328" y1="2.82271" y2="27.4115"><stop offset="0" stop-color="#50d133"/><stop offset="1" stop-color="#3da126"/></linearGradient><path d="m129 0h-98v32h98c2.761 0 5-2.2386 5-5v-22c0-2.76142-2.239-5-5-5z" fill="#0f1418"/><path d="m52.4435 20-.78-2.55h-3.9l-.78 2.55h-2.445l3.78-10.755h2.775l3.795 10.755zm-2.1-6.945c-.05-.17-.115-.385-.195-.645s-.16-.525-.24-.795-.145-.505-.195-.705c-.05.2-.12.45-.21.75-.08.29-.16.57-.24.84-.07.26-.125.445-.165.555l-.765 2.49h2.79zm10.5514-1.395c.88 0 1.585.24 2.115.72.53.47.795 1.23.795 2.28v5.34h-2.235v-4.785c0-.59-.105-1.03-.315-1.32-.21-.3-.545-.45-1.005-.45-.68 0-1.145.235-1.395.705-.25.46-.375 1.125-.375 1.995v3.855h-2.235v-8.19h1.71l.3 1.05h.12c.18-.28.4-.505.66-.675.26-.18.55-.31.87-.39.32-.09.65-.135.99-.135zm8.7484-.015c1.1 0 1.94.24 2.52.72.59.47.885 1.195.885 2.175v5.46h-1.56l-.435-1.11h-.06c-.23.29-.47.53-.72.72-.24.19-.52.325-.84.405-.31.09-.695.135-1.155.135-.48 0-.915-.09-1.305-.27-.38-.19-.68-.475-.9-.855-.22-.39-.33-.88-.33-1.47 0-.87.305-1.51.915-1.92.61-.42 1.525-.65 2.745-.69l1.425-.045v-.36c0-.43-.115-.745-.345-.945-.22-.2-.53-.3-.93-.3s-.79.06-1.17.18c-.38.11-.76.25-1.14.42l-.735-1.515c.44-.23.925-.41 1.455-.54.54-.13 1.1-.195 1.68-.195zm.315 4.59c-.72.02-1.22.15-1.5.39s-.42.555-.42.945c0 .34.1.585.3.735.2.14.46.21.78.21.48 0 .885-.14 1.215-.42.33-.29.495-.695.495-1.215v-.675zm8.8877 3.915c-.81 0-1.5-.145-2.07-.435-.57-.3-1.005-.76-1.305-1.38s-.45-1.415-.45-2.385c0-1 .17-1.815.51-2.445s.81-1.095 1.41-1.395c.61-.3 1.31-.45 2.1-.45.56 0 1.045.055 1.455.165.42.11.785.24 1.095.39l-.66 1.725c-.35-.14-.68-.255-.99-.345-.3-.09-.6-.135-.9-.135-.39 0-.715.095-.975.285-.26.18-.455.455-.585.825-.12.36-.18.815-.18 1.365 0 .54.065.99.195 1.35.14.35.34.615.6.795.26.17.575.255.945.255.47 0 .885-.06 1.245-.18.36-.13.71-.305 1.05-.525v1.905c-.34.22-.7.375-1.08.465-.37.1-.84.15-1.41.15zm11.9951-4.26c0 .68-.095 1.285-.285 1.815-.18.53-.445.98-.795 1.35-.34.36-.755.635-1.245.825-.49.18-1.045.27-1.665.27-.57 0-1.1-.09-1.59-.27-.48-.19-.895-.465-1.245-.825-.35-.37-.625-.82-.825-1.35-.19-.53-.285-1.135-.285-1.815 0-.91.16-1.675.48-2.295.32-.63.78-1.11 1.38-1.44s1.31-.495 2.13-.495c.77 0 1.45.165 2.04.495s1.055.81 1.395 1.44c.34.62.51 1.385.51 2.295zm-5.655 0c0 .54.055.995.165 1.365.12.36.305.635.555.825.25.18.575.27.975.27s.72-.09.96-.27c.25-.19.43-.465.54-.825.12-.37.18-.825.18-1.365s-.06-.99-.18-1.35c-.11-.36-.29-.63-.54-.81s-.575-.27-.975-.27c-.59 0-1.02.205-1.29.615-.26.4-.39 1.005-.39 1.815zm12.3321-4.23c.88 0 1.585.24 2.115.72.5298.47.7948 1.23.7948 2.28v5.34h-2.2348v-4.785c0-.59-.105-1.03-.315-1.32-.21-.3-.545-.45-1.005-.45-.68 0-1.145.235-1.395.705-.25.46-.375 1.125-.375 1.995v3.855h-2.235v-8.19h1.71l.3 1.05h.12c.18-.28.4-.505.66-.675.26-.18.55-.31.87-.39.32-.09.65-.135.99-.135zm7.9838 8.49c-.91 0-1.655-.355-2.235-1.065-.57-.72-.855-1.775-.855-3.165 0-1.4.29-2.46.87-3.18s1.34-1.08 2.28-1.08c.39 0 .735.055 1.035.165.3.1.555.24.765.42.22.18.405.385.555.615h.075c-.03-.16-.065-.39-.105-.69-.04-.31-.06-.625-.06-.945v-2.625h2.235v11.4h-1.71l-.435-1.065h-.09c-.14.22-.32.425-.54.615-.21.18-.46.325-.75.435s-.635.165-1.035.165zm.78-1.785c.62 0 1.055-.18 1.305-.54.25-.37.38-.92.39-1.65v-.24c0-.8-.125-1.41-.375-1.83-.24-.42-.69-.63-1.35-.63-.49 0-.875.215-1.155.645-.28.42-.42 1.03-.42 1.83s.14 1.405.42 1.815c.28.4.675.6 1.185.6zm9.657-6.72c1.1 0 1.94.24 2.52.72.59.47.885 1.195.885 2.175v5.46h-1.56l-.435-1.11h-.06c-.23.29-.47.53-.72.72-.24.19-.52.325-.84.405-.31.09-.695.135-1.155.135-.48 0-.915-.09-1.305-.27-.38-.19-.68-.475-.9-.855-.22-.39-.33-.88-.33-1.47 0-.87.305-1.51.915-1.92.61-.42 1.525-.65 2.745-.69l1.425-.045v-.36c0-.43-.115-.745-.345-.945-.22-.2-.53-.3-.93-.3s-.79.06-1.17.18c-.38.11-.76.25-1.14.42l-.735-1.515c.44-.23.925-.41 1.455-.54.54-.13 1.1-.195 1.68-.195zm.315 4.59c-.72.02-1.22.15-1.5.39s-.42.555-.42.945c0 .34.1.585.3.735.2.14.46.21.78.21.48 0 .885-.14 1.215-.42.33-.29.495-.695.495-1.215v-.675z" fill="#fff"/><path d="m129 0h-124c-2.76142 0-5 2.23858-5 5v22c0 2.7614 2.23858 5 5 5h124c2.761 0 5-2.2386 5-5v-22c0-2.76142-2.239-5-5-5z" fill="url(#a)"/><path d="m7.47553 5.83871c.7285.118 1.64881.30667 2.63117.59467-.22157.65133-.41079 1.336-.55288 2.038-.70589-.00667-1.40339.044-2.07441.134-.06394-1.04267-.04715-2.00067-.00388-2.76667zm-.96423 2.924c-.05554-.83067-.05942-1.60733-.03875-2.29-.03423.03467-.07233.064-.10656.09933-.80729.83334-1.47056 1.75734-2.01952 2.73134.63744-.19467 1.364-.388 2.16483-.54067zm1.3711 2.65129c.37394-.6626.82603-1.2906 1.37498-1.85796.02907-.03.06071-.05466.08977-.084-.60385.00534-1.20254.05467-1.78185.13467.06717.59729.17696 1.20469.3171 1.80729zm-.82408.7474c-.21635-.7967-.3636-1.6054-.45596-2.39202-1.1386.224-2.14158.53132-2.88106.79262-.01292.03-.02712.0587-.04004.0887.32421.7493.79825 1.7313 1.42342 2.7547.6045-.4507 1.25808-.8767 1.95364-1.244zm-2.68214 1.8153c-.46242-.748-.83765-1.4667-1.14313-2.108-.38298 1.218-.59094 2.4793-.62581 3.7473.48954-.5053 1.085-1.074 1.76894-1.6393zm-1.66238 3.7727c.16275 1.2813.50633 2.5386 1.02881 3.736.23961-.6867.54767-1.47.93646-2.2834-.75046-.4893-1.41373-.9953-1.96527-1.4526zm.07621-.9807c.58577.51 1.35754 1.124 2.25331 1.714.3565-.6707.76919-1.3393 1.24194-1.974-.51731-.5547-.98296-1.1473-1.39758-1.748-.85573.714-1.57648 1.438-2.09767 2.008zm2.821-2.5807c.32679.478.69298.9447 1.085 1.3914.03552-.804.17115-1.6027.4114-2.376-.52442.302-1.02817.6326-1.4964.9846zm4.87149-8.76263c.3081-.76733.6381-1.46266.9507-2.06399-1.0785.368-2.12157.87533-3.0929 1.54333.64325.12333 1.36981.28933 2.1422.52066zm.9966.32467c.5935.214 1.1941.47 1.7837.76734.5568-.66534 1.034-1.226 1.3544-1.6-.465-.398-1.2026-1.01-1.9782-1.59-.3636.65733-.7789 1.48733-1.1599 2.42266zm-4.26642 17.98596c-.92871-.0873-1.7825-.238-2.49744-.3953.4721.7387 1.02235 1.4387 1.65139 2.088.33132.342.67748.658 1.03398.9547-.09816-.762-.1776-1.67-.18793-2.6474zm17.42072-17.16462c-2.8817-2.974-6.7974-4.23867-10.5639-3.80867 1.0211.804 1.8342 1.52933 1.8936 1.58333l.4953.44467-.4385.504c-.0103.012-.5787.66733-1.4015 1.644.2933-.03.5871-.04667.8816-.04667 2.2604 0 4.5215.88867 6.2426 2.66467 3.4423 3.55329 3.4423 9.33469 0 12.88799-2.9824 3.078-7.5846 3.484-10.9998 1.228-.6549.098-1.31362.1427-1.95752.1427-.28869 0-.57221-.0107-.85315-.0254.01744 1.2467.15048 2.378.28159 3.2114 2.18868 1.546 4.73588 2.328 7.28698 2.328 3.3079 0 6.6152-1.3 9.1333-3.8987 5.0356-5.2013 5.0356-13.66-.0006-18.85932zm-14.75472 16.45202c-.21313-.182-.42109-.3734-.62065-.5787-.43335-.4473-.81181-.9307-1.13602-1.44-.10915.6847-.16792 1.3713-.18471 2.04.63163.0353 1.2865.0293 1.94138-.0213zm1.22002-16.26936c-.1822.52867-.3378 1.08067-.4657 1.64267.5877-.40133 1.2142-.71267 1.86-.95333.0226-.02734.0478-.05867.0704-.086-.4844-.23067-.9765-.43-1.4647-.60334zm-4.33682 10.44536c-.39137.5493-.74335 1.1233-1.04883 1.7026.55865.3334 1.1554.638 1.77475.8994-.36942-.8327-.61225-1.7094-.72592-2.602zm.69169 3.456c-.74012-.2914-1.44473-.648-2.10025-1.0354-.50052 1.0574-.86606 2.0687-1.11212 2.8507.77629.194 1.82318.4053 2.97923.5193.02195-.7626.093-1.5493.23314-2.3346z" fill="url(#b)"/></svg>