<svg width="107" height="32" viewBox="0 0 107 32" fill="none" xmlns="http://www.w3.org/2000/svg">
<path d="M102 0H31V32H102C104.761 32 107 29.7614 107 27V5C107 2.23858 104.761 0 102 0Z" fill="#0F1418"/>
<path d="M51.5077 11.03C51.0777 11.03 50.6927 11.115 50.3527 11.285C50.0227 11.455 49.7427 11.7 49.5127 12.02C49.2827 12.33 49.1077 12.71 48.9877 13.16C48.8777 13.61 48.8227 14.115 48.8227 14.675C48.8227 15.435 48.9127 16.085 49.0927 16.625C49.2827 17.155 49.5777 17.56 49.9777 17.84C50.3777 18.12 50.8877 18.26 51.5077 18.26C51.9477 18.26 52.3827 18.21 52.8127 18.11C53.2527 18.01 53.7277 17.87 54.2377 17.69V19.595C53.7677 19.785 53.3027 19.925 52.8427 20.015C52.3827 20.105 51.8677 20.15 51.2977 20.15C50.1977 20.15 49.2877 19.925 48.5677 19.475C47.8577 19.015 47.3327 18.375 46.9927 17.555C46.6527 16.725 46.4827 15.76 46.4827 14.66C46.4827 13.85 46.5927 13.11 46.8127 12.44C47.0327 11.76 47.3527 11.175 47.7727 10.685C48.2027 10.195 48.7277 9.815 49.3477 9.545C49.9777 9.275 50.6977 9.14 51.5077 9.14C52.0377 9.14 52.5677 9.21 53.0977 9.35C53.6377 9.48 54.1527 9.66 54.6427 9.89L53.9077 11.735C53.5077 11.545 53.1027 11.38 52.6927 11.24C52.2927 11.1 51.8977 11.03 51.5077 11.03ZM59.8734 11.645C60.9734 11.645 61.8134 11.885 62.3934 12.365C62.9834 12.835 63.2784 13.56 63.2784 14.54V20H61.7184L61.2834 18.89H61.2234C60.9934 19.18 60.7534 19.42 60.5034 19.61C60.2634 19.8 59.9834 19.935 59.6634 20.015C59.3534 20.105 58.9684 20.15 58.5084 20.15C58.0284 20.15 57.5934 20.06 57.2034 19.88C56.8234 19.69 56.5234 19.405 56.3034 19.025C56.0834 18.635 55.9734 18.145 55.9734 17.555C55.9734 16.685 56.2784 16.045 56.8884 15.635C57.4984 15.215 58.4134 14.985 59.6334 14.945L61.0584 14.9V14.54C61.0584 14.11 60.9434 13.795 60.7134 13.595C60.4934 13.395 60.1834 13.295 59.7834 13.295C59.3834 13.295 58.9934 13.355 58.6134 13.475C58.2334 13.585 57.8534 13.725 57.4734 13.895L56.7384 12.38C57.1784 12.15 57.6634 11.97 58.1934 11.84C58.7334 11.71 59.2934 11.645 59.8734 11.645ZM60.1884 16.235C59.4684 16.255 58.9684 16.385 58.6884 16.625C58.4084 16.865 58.2684 17.18 58.2684 17.57C58.2684 17.91 58.3684 18.155 58.5684 18.305C58.7684 18.445 59.0284 18.515 59.3484 18.515C59.8284 18.515 60.2334 18.375 60.5634 18.095C60.8934 17.805 61.0584 17.4 61.0584 16.88V16.205L60.1884 16.235ZM70.3962 11.66C71.2762 11.66 71.9812 11.9 72.5112 12.38C73.0412 12.85 73.3062 13.61 73.3062 14.66V20H71.0712V15.215C71.0712 14.625 70.9662 14.185 70.7562 13.895C70.5462 13.595 70.2112 13.445 69.7512 13.445C69.0712 13.445 68.6062 13.68 68.3562 14.15C68.1062 14.61 67.9812 15.275 67.9812 16.145V20H65.7462V11.81H67.4562L67.7562 12.86H67.8762C68.0562 12.58 68.2762 12.355 68.5362 12.185C68.7962 12.005 69.0862 11.875 69.4062 11.795C69.7262 11.705 70.0562 11.66 70.3962 11.66ZM77.7346 20L74.6146 11.81H76.9546L78.5296 16.475C78.5896 16.655 78.6396 16.845 78.6796 17.045C78.7296 17.245 78.7646 17.44 78.7846 17.63C78.8146 17.82 78.8346 17.995 78.8446 18.155H78.9046C78.9146 17.985 78.9346 17.805 78.9646 17.615C78.9946 17.425 79.0296 17.235 79.0696 17.045C79.1196 16.845 79.1746 16.655 79.2346 16.475L80.8096 11.81H83.1496L80.0296 20H77.7346ZM87.8646 11.645C88.9646 11.645 89.8046 11.885 90.3846 12.365C90.9746 12.835 91.2696 13.56 91.2696 14.54V20H89.7096L89.2746 18.89H89.2146C88.9846 19.18 88.7446 19.42 88.4946 19.61C88.2546 19.8 87.9746 19.935 87.6546 20.015C87.3446 20.105 86.9596 20.15 86.4996 20.15C86.0196 20.15 85.5846 20.06 85.1946 19.88C84.8146 19.69 84.5146 19.405 84.2946 19.025C84.0746 18.635 83.9646 18.145 83.9646 17.555C83.9646 16.685 84.2696 16.045 84.8796 15.635C85.4896 15.215 86.4046 14.985 87.6246 14.945L89.0496 14.9V14.54C89.0496 14.11 88.9346 13.795 88.7046 13.595C88.4846 13.395 88.1746 13.295 87.7746 13.295C87.3746 13.295 86.9846 13.355 86.6046 13.475C86.2246 13.585 85.8446 13.725 85.4646 13.895L84.7296 12.38C85.1696 12.15 85.6546 11.97 86.1846 11.84C86.7246 11.71 87.2846 11.645 87.8646 11.645ZM88.1796 16.235C87.4596 16.255 86.9596 16.385 86.6796 16.625C86.3996 16.865 86.2596 17.18 86.2596 17.57C86.2596 17.91 86.3596 18.155 86.5596 18.305C86.7596 18.445 87.0196 18.515 87.3396 18.515C87.8196 18.515 88.2246 18.375 88.5546 18.095C88.8846 17.805 89.0496 17.4 89.0496 16.88V16.205L88.1796 16.235Z" fill="white"/>
<path d="M102 0H5C2.23858 0 0 2.23858 0 5V27C0 29.7614 2.23858 32 5 32H102C104.761 32 107 29.7614 107 27V5C107 2.23858 104.761 0 102 0Z" fill="url(#paint0_linear_39_16)"/>
<path d="M0 5C0 2.23858 2.23858 0 5 0H31V32H5C2.23858 32 0 29.7614 0 27V5Z" fill="#151A1E"/>
<path fill-rule="evenodd" clip-rule="evenodd" d="M28.4166 16C28.4166 23.3633 22.6332 29.3333 15.5 29.3333C8.36675 29.3333 2.58331 23.3633 2.58331 16C2.58331 8.63663 8.36675 2.66663 15.5 2.66663C22.6332 2.66663 28.4166 8.63663 28.4166 16Z" fill="url(#paint1_linear_39_16)"/>
<path fill-rule="evenodd" clip-rule="evenodd" d="M18.8545 17.9746C18.3152 18.5846 17.5583 18.8933 17.2037 18.8933C16.7936 18.8933 16.5695 18.634 16.5236 18.244C16.5081 18.0946 16.5133 17.944 16.5391 17.7953C16.6748 16.922 16.9861 16.3793 16.9667 16.214C16.9609 16.1666 16.935 16.1433 16.9015 16.1433C16.6392 16.1433 15.7196 17.1233 15.5801 17.772L15.4716 18.2913C15.4005 18.6573 15.0531 18.8926 14.8141 18.8926C14.6998 18.8926 14.6133 18.834 14.5984 18.704C14.5939 18.6446 14.5984 18.5853 14.612 18.5266L14.663 18.2533C14.167 18.636 13.6322 18.8946 13.3817 18.8946C13.0394 18.8946 12.8476 18.706 12.7791 18.422C12.5531 18.7293 12.254 18.8946 11.9356 18.8946C11.5288 18.8946 11.1367 18.6166 10.9488 18.2053C10.6808 18.516 10.363 18.82 9.98264 19.0713C9.42141 19.438 8.79689 19.7326 8.05676 19.7326C7.37347 19.7326 6.79351 19.3553 6.47253 19.0486C5.99655 18.5886 5.74533 17.9033 5.67105 17.278C5.43726 15.3066 6.59976 12.722 8.40099 11.5893C8.81433 11.3293 9.27739 11.2 9.69783 11.2C10.5632 11.2 11.2091 11.8386 11.2995 12.6026C11.3809 13.2906 11.1148 13.8853 10.3753 14.27C9.99814 14.4673 9.81085 14.458 9.75208 14.364C9.71268 14.3013 9.73528 14.1946 9.81085 14.13C10.5058 13.5306 10.5187 13.0386 10.4373 12.3453C10.3843 11.8993 10.1002 11.6133 9.78114 11.6133C8.4152 11.6133 6.45574 14.7766 6.72828 17.078C6.83485 17.9753 7.36766 19.014 8.46041 19.014C8.82466 19.014 9.21087 18.908 9.55445 18.7306C10.1538 18.4146 10.4928 18.164 10.8332 17.7546C10.7492 16.6906 11.634 15.3546 12.9502 15.3546C13.5199 15.3546 13.9913 15.5906 14.0469 16.0626C14.1166 16.6526 13.6297 16.7706 13.4475 16.7706C13.288 16.7706 13.0323 16.7233 13.0142 16.57C12.9948 16.4046 13.3591 16.4993 13.3138 16.1213C13.2861 15.8853 13.0484 15.8026 12.8211 15.8026C12.0015 15.8026 11.5488 16.9826 11.636 17.7153C11.6754 18.046 11.8394 18.376 12.1358 18.376C12.3748 18.376 12.7197 18.022 12.8521 17.5026C12.936 17.1486 13.2602 16.9126 13.4998 16.9126C13.6251 16.9126 13.7117 16.9713 13.7272 17.1013C13.7323 17.1486 13.7285 17.208 13.7136 17.2786C13.6865 17.432 13.5722 17.9426 13.578 18.048C13.5819 18.14 13.6335 18.2666 13.7885 18.2666C13.9112 18.2666 14.3633 18.0146 14.7818 17.628C14.9129 16.9273 15.075 16.0606 15.0879 15.992C15.139 15.708 15.2378 15.4153 15.7958 15.4153C15.9101 15.4153 15.9966 15.474 16.0134 15.616C16.0186 15.6626 16.0147 15.7226 15.9999 15.7933L15.8436 16.522C16.3331 15.8486 17.0939 15.354 17.5499 15.354C17.7436 15.354 17.8928 15.4593 17.918 15.6726C17.9322 15.7913 17.8986 15.9913 17.8231 16.2153C17.661 16.6753 17.4788 17.3666 17.3581 17.962C17.3322 18.0886 17.3748 18.2793 17.599 18.2793C17.7778 18.2793 18.352 18.0533 18.8163 17.4206C18.8131 17.3313 18.8118 17.2406 18.8118 17.1486C18.8118 16.6526 18.8461 16.2513 18.9371 15.9573C19.0282 15.65 19.4041 15.356 19.654 15.356C19.7793 15.356 19.8703 15.4266 19.8703 15.568C19.8703 15.6153 19.8587 15.6746 19.8361 15.7333C19.6656 16.2526 19.5746 16.7373 19.5746 17.2206C19.5746 17.492 19.6314 17.9286 19.6889 18.1526C19.7005 18.2 19.7108 18.2473 19.7567 18.2473C19.8361 18.2473 20.3715 17.7046 20.7584 17.0433C20.4161 16.8186 20.223 16.406 20.223 15.898C20.223 15.0486 20.7125 14.6113 21.1904 14.6113C21.5663 14.6113 21.9073 14.8946 21.9073 15.4606C21.9073 15.8153 21.7704 16.2166 21.5779 16.606C21.5779 16.606 21.6574 16.618 21.6916 16.618C21.9874 16.618 22.2154 16.476 22.3413 16.3226C22.3981 16.256 22.4511 16.204 22.5015 16.1733C22.8825 15.698 23.4412 15.3546 24.0967 15.3546C24.6547 15.3546 25.1365 15.5793 25.192 16.0513C25.2631 16.6526 24.7651 16.7713 24.594 16.7713C24.4235 16.7713 24.1671 16.724 24.149 16.5706C24.1309 16.4173 24.5048 16.5 24.4616 16.1346C24.4338 15.8986 24.1948 15.804 23.9669 15.804C23.2035 15.804 22.6791 16.8546 22.7798 17.704C22.8199 18.0466 22.9729 18.3773 23.2694 18.3773C23.5083 18.3773 23.8655 18.0226 23.9972 17.504C24.0818 17.1613 24.4054 16.914 24.6443 16.914C24.758 16.914 24.8562 16.9726 24.873 17.1146C24.8814 17.1853 24.8536 17.3393 24.7264 17.8933C24.6741 18.1293 24.6637 18.33 24.6837 18.4953C24.7244 18.838 24.8762 19.062 25.017 19.192C25.068 19.2386 25.0984 19.2973 25.1022 19.334C25.1132 19.4286 25.0435 19.5113 24.9298 19.5113C24.8956 19.5113 24.8504 19.5113 24.8129 19.488C24.2265 19.24 23.983 18.8273 23.9146 18.4373C23.6885 18.732 23.3888 18.8973 23.0814 18.8973C22.5577 18.8973 22.0462 18.4246 21.9738 17.8113C21.9441 17.5593 21.9732 17.288 22.0533 17.022C21.8408 17.1573 21.6122 17.2326 21.4068 17.2326C21.3383 17.2326 21.2815 17.2326 21.2137 17.2206C20.7015 17.9873 20.1661 18.5186 19.756 18.7553C19.5855 18.85 19.4267 18.8973 19.3123 18.8973C19.2206 18.8973 19.1186 18.874 19.0734 18.7913C18.9662 18.6066 18.8958 18.316 18.8545 17.9746ZM20.7099 15.4606C20.7099 15.7913 20.8688 16.134 21.0742 16.358C21.1543 16.1333 21.1995 15.9093 21.1995 15.6846C21.1995 15.2593 21.04 15.0706 20.9147 15.0706C20.7668 15.0706 20.7099 15.284 20.7099 15.4606Z" fill="white"/>
<defs>
<linearGradient id="paint0_linear_39_16" x1="0" y1="0" x2="0" y2="32" gradientUnits="userSpaceOnUse">
<stop stop-color="#BBBBBB" stop-opacity="0.1"/>
<stop offset="1" stop-opacity="0.1"/>
</linearGradient>
<linearGradient id="paint1_linear_39_16" x1="24.7115" y1="26.4866" x2="5.92073" y2="6.41046" gradientUnits="userSpaceOnUse">
<stop stop-color="#823AF3"/>
<stop offset="0.36" stop-color="#4B66E1"/>
<stop offset="0.906" stop-color="#01F1C4"/>
</linearGradient>
</defs>
</svg>
