<svg width="100" height="32" viewBox="0 0 100 32" fill="none" xmlns="http://www.w3.org/2000/svg">
<path d="M95 0H31V32H95C97.7614 32 100 29.7614 100 27V5C100 2.23858 97.7614 0 95 0Z" fill="#0F1418"/>
<path d="M45.683 21H43.448V10.29H49.583V12.15H45.683V14.91H49.313V16.77H45.683V21ZM53.9154 12.81V21H51.6804V12.81H53.9154ZM52.8054 9.6C53.1354 9.6 53.4204 9.68 53.6604 9.84C53.9004 9.99 54.0204 10.275 54.0204 10.695C54.0204 11.105 53.9004 11.39 53.6604 11.55C53.4204 11.71 53.1354 11.79 52.8054 11.79C52.4654 11.79 52.1754 11.71 51.9354 11.55C51.7054 11.39 51.5904 11.105 51.5904 10.695C51.5904 10.275 51.7054 9.99 51.9354 9.84C52.1754 9.68 52.4654 9.6 52.8054 9.6ZM59.0857 12.66C59.5857 12.66 60.0357 12.76 60.4357 12.96C60.8357 13.16 61.1757 13.46 61.4557 13.86H61.5157L61.6957 12.81H63.5857V21.015C63.5857 21.795 63.4307 22.45 63.1207 22.98C62.8207 23.51 62.3657 23.91 61.7557 24.18C61.1457 24.46 60.3907 24.6 59.4907 24.6C58.9107 24.6 58.3707 24.565 57.8707 24.495C57.3807 24.425 56.9007 24.3 56.4307 24.12V22.335C56.7707 22.475 57.1107 22.59 57.4507 22.68C57.8007 22.78 58.1557 22.85 58.5157 22.89C58.8857 22.94 59.2557 22.965 59.6257 22.965C60.2057 22.965 60.6357 22.81 60.9157 22.5C61.2057 22.19 61.3507 21.725 61.3507 21.105V20.94C61.3507 20.77 61.3557 20.595 61.3657 20.415C61.3857 20.235 61.4007 20.075 61.4107 19.935H61.3507C61.0707 20.365 60.7357 20.675 60.3457 20.865C59.9557 21.055 59.5157 21.15 59.0257 21.15C58.0557 21.15 57.2957 20.78 56.7457 20.04C56.2057 19.29 55.9357 18.25 55.9357 16.92C55.9357 16.02 56.0607 15.255 56.3107 14.625C56.5607 13.985 56.9207 13.5 57.3907 13.17C57.8707 12.83 58.4357 12.66 59.0857 12.66ZM59.7907 14.475C59.4407 14.475 59.1457 14.57 58.9057 14.76C58.6757 14.94 58.5007 15.215 58.3807 15.585C58.2707 15.945 58.2157 16.4 58.2157 16.95C58.2157 17.77 58.3457 18.385 58.6057 18.795C58.8657 19.195 59.2707 19.395 59.8207 19.395C60.1107 19.395 60.3607 19.36 60.5707 19.29C60.7807 19.21 60.9507 19.085 61.0807 18.915C61.2207 18.735 61.3257 18.505 61.3957 18.225C61.4657 17.945 61.5007 17.605 61.5007 17.205V16.935C61.5007 16.345 61.4407 15.87 61.3207 15.51C61.2007 15.15 61.0157 14.89 60.7657 14.73C60.5157 14.56 60.1907 14.475 59.7907 14.475ZM75.7179 12.66C76.6479 12.66 77.3479 12.9 77.8179 13.38C78.2979 13.85 78.5379 14.61 78.5379 15.66V21H76.3029V16.215C76.3029 15.625 76.2029 15.185 76.0029 14.895C75.8029 14.595 75.4929 14.445 75.0729 14.445C74.4829 14.445 74.0629 14.655 73.8129 15.075C73.5629 15.495 73.4379 16.1 73.4379 16.89V21H71.2029V16.215C71.2029 15.825 71.1579 15.5 71.0679 15.24C70.9779 14.98 70.8429 14.785 70.6629 14.655C70.4829 14.515 70.2529 14.445 69.9729 14.445C69.5629 14.445 69.2379 14.55 68.9979 14.76C68.7579 14.97 68.5879 15.275 68.4879 15.675C68.3879 16.075 68.3379 16.565 68.3379 17.145V21H66.1029V12.81H67.8129L68.1129 13.86H68.2329C68.4029 13.58 68.6129 13.355 68.8629 13.185C69.1129 13.005 69.3879 12.875 69.6879 12.795C69.9979 12.705 70.3079 12.66 70.6179 12.66C71.2179 12.66 71.7279 12.76 72.1479 12.96C72.5679 13.15 72.8879 13.45 73.1079 13.86H73.3029C73.5529 13.44 73.8979 13.135 74.3379 12.945C74.7879 12.755 75.2479 12.66 75.7179 12.66ZM84.3793 12.645C85.4793 12.645 86.3193 12.885 86.8993 13.365C87.4893 13.835 87.7843 14.56 87.7843 15.54V21H86.2243L85.7893 19.89H85.7293C85.4993 20.18 85.2593 20.42 85.0093 20.61C84.7693 20.8 84.4893 20.935 84.1693 21.015C83.8593 21.105 83.4743 21.15 83.0143 21.15C82.5343 21.15 82.0993 21.06 81.7093 20.88C81.3293 20.69 81.0293 20.405 80.8093 20.025C80.5893 19.635 80.4793 19.145 80.4793 18.555C80.4793 17.685 80.7843 17.045 81.3943 16.635C82.0043 16.215 82.9193 15.985 84.1393 15.945L85.5643 15.9V15.54C85.5643 15.11 85.4493 14.795 85.2193 14.595C84.9993 14.395 84.6893 14.295 84.2893 14.295C83.8893 14.295 83.4993 14.355 83.1193 14.475C82.7393 14.585 82.3593 14.725 81.9793 14.895L81.2443 13.38C81.6843 13.15 82.1693 12.97 82.6993 12.84C83.2393 12.71 83.7993 12.645 84.3793 12.645ZM84.6943 17.235C83.9743 17.255 83.4743 17.385 83.1943 17.625C82.9143 17.865 82.7743 18.18 82.7743 18.57C82.7743 18.91 82.8743 19.155 83.0743 19.305C83.2743 19.445 83.5343 19.515 83.8543 19.515C84.3343 19.515 84.7393 19.375 85.0693 19.095C85.3993 18.805 85.5643 18.4 85.5643 17.88V17.205L84.6943 17.235Z" fill="white"/>
<path d="M95 0H5C2.23858 0 0 2.23858 0 5V27C0 29.7614 2.23858 32 5 32H95C97.7614 32 100 29.7614 100 27V5C100 2.23858 97.7614 0 95 0Z" fill="url(#paint0_linear_36_2)"/>
<g clip-path="url(#clip0_36_2)">
<path d="M7.75162 32C12.0288 32 15.5001 29.6107 15.5001 26.6667V21.3334H7.75162C3.47448 21.3334 0.00317383 23.7227 0.00317383 26.6667C0.00317383 29.6107 3.47448 32 7.75162 32Z" fill="#0ACF83"/>
<path d="M0.00317383 16C0.00317383 13.056 3.47448 10.6666 7.75162 10.6666H15.5001V21.3333H7.75162C3.47448 21.3333 0.00317383 18.944 0.00317383 16Z" fill="#A259FF"/>
<path d="M0.00317383 5.33333C0.00317383 2.38933 3.47448 0 7.75162 0H15.5001V10.6667H7.75162C3.47448 10.6667 0.00317383 8.27733 0.00317383 5.33333Z" fill="#F24E1E"/>
<path d="M15.5 0H23.2485C27.5256 0 30.9969 2.38933 30.9969 5.33333C30.9969 8.27733 27.5256 10.6667 23.2485 10.6667H15.5V0Z" fill="#FF7262"/>
<path d="M30.9969 16C30.9969 18.944 27.5256 21.3333 23.2485 21.3333C18.9713 21.3333 15.5 18.944 15.5 16C15.5 13.056 18.9713 10.6666 23.2485 10.6666C27.5256 10.6666 30.9969 13.056 30.9969 16Z" fill="#1ABCFE"/>
</g>
<defs>
<linearGradient id="paint0_linear_36_2" x1="0" y1="0" x2="0" y2="32" gradientUnits="userSpaceOnUse">
<stop stop-color="#BBBBBB" stop-opacity="0.1"/>
<stop offset="1" stop-opacity="0.1"/>
</linearGradient>
<clipPath id="clip0_36_2">
<rect width="31" height="32" fill="white"/>
</clipPath>
</defs>
</svg>
