<svg width="111" height="32" viewBox="0 0 111 32" fill="none" xmlns="http://www.w3.org/2000/svg">
<path d="M106 0H31V32H106C108.761 32 111 29.7614 111 27V5C111 2.23858 108.761 0 106 0Z" fill="#0F1418"/>
<path d="M50.0189 20L47.4389 11.6H47.3789C47.3889 11.8 47.4039 12.1 47.4239 12.5C47.4439 12.9 47.4639 13.33 47.4839 13.79C47.5039 14.24 47.5139 14.65 47.5139 15.02V20H45.4889V9.29H48.5789L51.1139 17.48H51.1589L53.8439 9.29H56.9339V20H54.8189V14.93C54.8189 14.59 54.8239 14.2 54.8339 13.76C54.8539 13.32 54.8689 12.905 54.8789 12.515C54.8989 12.115 54.9139 11.815 54.9239 11.615H54.8639L52.1039 20H50.0189ZM62.9993 11.645C64.0993 11.645 64.9393 11.885 65.5193 12.365C66.1093 12.835 66.4043 13.56 66.4043 14.54V20H64.8443L64.4093 18.89H64.3493C64.1193 19.18 63.8793 19.42 63.6293 19.61C63.3893 19.8 63.1093 19.935 62.7893 20.015C62.4793 20.105 62.0943 20.15 61.6343 20.15C61.1543 20.15 60.7193 20.06 60.3293 19.88C59.9493 19.69 59.6493 19.405 59.4293 19.025C59.2093 18.635 59.0993 18.145 59.0993 17.555C59.0993 16.685 59.4043 16.045 60.0143 15.635C60.6243 15.215 61.5393 14.985 62.7593 14.945L64.1843 14.9V14.54C64.1843 14.11 64.0693 13.795 63.8393 13.595C63.6193 13.395 63.3093 13.295 62.9093 13.295C62.5093 13.295 62.1193 13.355 61.7393 13.475C61.3593 13.585 60.9793 13.725 60.5993 13.895L59.8643 12.38C60.3043 12.15 60.7893 11.97 61.3193 11.84C61.8593 11.71 62.4193 11.645 62.9993 11.645ZM63.3143 16.235C62.5943 16.255 62.0943 16.385 61.8143 16.625C61.5343 16.865 61.3943 17.18 61.3943 17.57C61.3943 17.91 61.4943 18.155 61.6943 18.305C61.8943 18.445 62.1543 18.515 62.4743 18.515C62.9543 18.515 63.3593 18.375 63.6893 18.095C64.0193 17.805 64.1843 17.4 64.1843 16.88V16.205L63.3143 16.235ZM72.322 18.365C72.572 18.365 72.812 18.34 73.042 18.29C73.272 18.24 73.502 18.18 73.732 18.11V19.775C73.492 19.875 73.192 19.96 72.832 20.03C72.482 20.11 72.097 20.15 71.677 20.15C71.187 20.15 70.747 20.07 70.357 19.91C69.977 19.75 69.672 19.475 69.442 19.085C69.222 18.685 69.112 18.135 69.112 17.435V13.49H68.047V12.545L69.277 11.795L69.922 10.07H71.347V11.81H73.642V13.49H71.347V17.435C71.347 17.745 71.437 17.98 71.617 18.14C71.797 18.29 72.032 18.365 72.322 18.365ZM77.7909 20H75.5559V8.6H77.7909V20ZM83.6662 11.645C84.7662 11.645 85.6062 11.885 86.1862 12.365C86.7762 12.835 87.0712 13.56 87.0712 14.54V20H85.5112L85.0762 18.89H85.0162C84.7862 19.18 84.5462 19.42 84.2962 19.61C84.0562 19.8 83.7762 19.935 83.4562 20.015C83.1462 20.105 82.7612 20.15 82.3012 20.15C81.8212 20.15 81.3862 20.06 80.9962 19.88C80.6162 19.69 80.3162 19.405 80.0962 19.025C79.8762 18.635 79.7662 18.145 79.7662 17.555C79.7662 16.685 80.0712 16.045 80.6812 15.635C81.2912 15.215 82.2062 14.985 83.4262 14.945L84.8512 14.9V14.54C84.8512 14.11 84.7362 13.795 84.5062 13.595C84.2862 13.395 83.9762 13.295 83.5762 13.295C83.1762 13.295 82.7862 13.355 82.4062 13.475C82.0262 13.585 81.6462 13.725 81.2662 13.895L80.5312 12.38C80.9712 12.15 81.4562 11.97 81.9862 11.84C82.5262 11.71 83.0862 11.645 83.6662 11.645ZM83.9812 16.235C83.2612 16.255 82.7612 16.385 82.4812 16.625C82.2012 16.865 82.0612 17.18 82.0612 17.57C82.0612 17.91 82.1612 18.155 82.3612 18.305C82.5612 18.445 82.8212 18.515 83.1412 18.515C83.6212 18.515 84.0262 18.375 84.3562 18.095C84.6862 17.805 84.8512 17.4 84.8512 16.88V16.205L83.9812 16.235ZM91.7739 11.255C91.7739 11.565 91.7639 11.87 91.7439 12.17C91.7239 12.47 91.7039 12.705 91.6839 12.875H91.7739C91.9939 12.535 92.2889 12.25 92.6589 12.02C93.0289 11.78 93.5089 11.66 94.0989 11.66C95.0189 11.66 95.7639 12.02 96.3339 12.74C96.9039 13.45 97.1889 14.5 97.1889 15.89C97.1889 16.82 97.0539 17.605 96.7839 18.245C96.5239 18.875 96.1589 19.35 95.6889 19.67C95.2189 19.99 94.6689 20.15 94.0389 20.15C93.4389 20.15 92.9639 20.045 92.6139 19.835C92.2739 19.615 91.9939 19.37 91.7739 19.1H91.6239L91.2489 20H89.5389V8.6H91.7739V11.255ZM93.3789 13.445C92.9889 13.445 92.6789 13.525 92.4489 13.685C92.2189 13.845 92.0489 14.09 91.9389 14.42C91.8389 14.74 91.7839 15.145 91.7739 15.635V15.875C91.7739 16.665 91.8889 17.275 92.1189 17.705C92.3589 18.125 92.7889 18.335 93.4089 18.335C93.8689 18.335 94.2339 18.125 94.5039 17.705C94.7739 17.275 94.9089 16.66 94.9089 15.86C94.9089 15.06 94.7689 14.46 94.4889 14.06C94.2189 13.65 93.8489 13.445 93.3789 13.445Z" fill="white"/>
<path d="M106 0H5C2.23858 0 0 2.23858 0 5V27C0 29.7614 2.23857 32 5 32H106C108.761 32 111 29.7614 111 27V5C111 2.23858 108.761 0 106 0Z" fill="url(#paint0_linear_24_77)"/>
<rect width="31" height="32" fill="white"/>
<path d="M13.5625 29.5C13.3668 29.5 13.1866 29.377 13.1125 29.184C12.1486 26.6735 10.3545 22 9.02147 22C8.39857 22 7.78244 22.412 7.77663 22.416C7.60903 22.532 7.38864 22.528 7.22493 22.4055L1.17024 17.9055C1.02783 17.7995 0.951785 17.6215 0.972129 17.441C0.992472 17.2605 1.1063 17.106 1.26905 17.037L9.24477 13.658C9.60078 13.1155 10.9827 11.1275 12.4804 10.533C12.7066 10.443 12.8955 10.37 13.0563 10.308C13.8667 9.9945 13.8667 9.9945 14.4867 9.393L14.6238 9.26C15.4661 8.445 17.0732 5.8835 17.5702 5.0505C17.6274 4.954 17.6884 4.848 17.7528 4.736C18.2939 3.792 19.0345 2.5 20.1621 2.5C21.4554 2.5 22.1422 3.8755 22.9066 5.6745C23.6089 7.328 25.4849 12.8035 26.2521 15.153C28.0976 20.8065 29.9629 24.7405 29.9818 24.7795C30.0763 24.978 30.0332 25.2175 29.8753 25.368C29.7178 25.5185 29.4834 25.544 29.2984 25.4295C29.2591 25.4055 28.3209 24.8185 26.7825 23.2285C25.6413 22.0495 24.7113 21.5 23.8555 21.5C22.3495 21.5 21.2858 22.736 19.9388 24.3015L19.8584 24.395C19.6985 24.5805 19.5227 24.7935 19.3309 25.025C17.994 26.6405 15.9742 29.0825 13.6443 29.4935C13.6167 29.498 13.5891 29.5 13.5625 29.5ZM9.02147 21C10.8103 21 12.2251 24.186 13.8594 28.4175C15.7029 27.87 17.4278 25.785 18.5942 24.3755C18.7903 24.1385 18.971 23.92 19.1343 23.7305L19.2147 23.637C20.6634 21.9535 21.9146 20.5 23.8555 20.5C25.3231 20.5 26.5568 21.5805 27.4679 22.5215C27.7571 22.8205 28.0235 23.0815 28.2652 23.308C27.5357 21.591 26.4299 18.8285 25.3343 15.472C24.5423 13.046 22.6823 7.636 22.0197 6.0755C21.3096 4.4055 20.8034 3.5 20.1621 3.5C19.5867 3.5 18.9604 4.5925 18.5859 5.2455C18.5186 5.363 18.4547 5.474 18.3946 5.5745C18.3748 5.608 16.3995 8.9125 15.2864 9.99L15.1503 10.122C14.4106 10.84 14.3617 10.8715 13.3968 11.2445C13.2384 11.306 13.052 11.378 12.8282 11.467C11.6584 11.9315 10.3714 13.693 9.97424 14.3325C9.92047 14.419 9.84249 14.4865 9.75046 14.5255L2.44414 17.6205L7.53928 21.407C7.86672 21.235 8.42327 21 9.02147 21Z" fill="url(#paint1_linear_24_77)"/>
<path d="M7.71414 22.4525L7.30096 21.548C7.331 21.5335 10.3002 20.0505 12.6107 16.354C14.8054 12.8425 15.8894 10.1005 16.4716 8.6275C16.6199 8.2525 16.7332 7.9675 16.8199 7.7825C17.033 7.327 17.2389 6.779 17.4569 6.1985C18.1398 4.38 18.8465 2.5 20.1621 2.5V3.5C19.5096 3.5 18.8451 5.2685 18.3602 6.56C18.135 7.1595 17.9219 7.726 17.6923 8.2175C17.6114 8.39 17.5072 8.656 17.3687 9.006C16.7744 10.509 15.6685 13.3065 13.4249 16.8965C10.9561 20.846 7.8454 22.3885 7.71414 22.4525Z" fill="url(#paint2_linear_24_77)"/>
<path d="M12.6664 17.0875L9.27576 14.4625L9.85701 13.6625L13.2476 16.2875L12.6664 17.0875Z" fill="url(#paint3_linear_24_77)"/>
<path d="M18.49 22.973C20.0008 21.2175 21.4292 19.558 23.7344 19.5015C23.7344 19.5015 22.0996 12.0625 20.707 5.9375C20.4241 4.693 20.3113 4.5 20.1936 4.5C20.1136 4.5 20.0187 4.6825 19.9436 5.103C19.5411 7.3485 17.6385 15.711 16.1054 19.75C15.5198 21.293 14.4726 22.2005 13.5625 22.625C13.1459 22.8195 12.5453 23 12.5453 23C13.1755 24.1395 13.7741 25.54 14.3903 27.101C15.6913 26.3445 16.9638 24.806 17.8574 23.726C18.058 23.4835 18.243 23.2605 18.4106 23.0655L18.49 22.973Z" fill="url(#paint4_linear_24_77)"/>
<defs>
<linearGradient id="paint0_linear_24_77" x1="0" y1="0" x2="0" y2="32" gradientUnits="userSpaceOnUse">
<stop stop-color="#BBBBBB" stop-opacity="0.1"/>
<stop offset="1" stop-opacity="0.1"/>
</linearGradient>
<linearGradient id="paint1_linear_24_77" x1="15.5" y1="2.5835" x2="15.5" y2="29.5" gradientUnits="userSpaceOnUse">
<stop stop-color="#1A6DFF"/>
<stop offset="1" stop-color="#C822FF"/>
</linearGradient>
<linearGradient id="paint2_linear_24_77" x1="13.7315" y1="2.5835" x2="13.7315" y2="29.5" gradientUnits="userSpaceOnUse">
<stop stop-color="#1A6DFF"/>
<stop offset="1" stop-color="#C822FF"/>
</linearGradient>
<linearGradient id="paint3_linear_24_77" x1="11.2617" y1="2.58348" x2="11.2617" y2="29.5" gradientUnits="userSpaceOnUse">
<stop stop-color="#1A6DFF"/>
<stop offset="1" stop-color="#C822FF"/>
</linearGradient>
<linearGradient id="paint4_linear_24_77" x1="18.1398" y1="2.218" x2="18.1398" y2="29.7345" gradientUnits="userSpaceOnUse">
<stop stop-color="#6DC7FF"/>
<stop offset="1" stop-color="#E6ABFF"/>
</linearGradient>
</defs>
</svg>
