<svg width="90" height="32" viewBox="0 0 90 32" fill="none" xmlns="http://www.w3.org/2000/svg">
<path d="M85 0H31V32H85C87.7614 32 90 29.7614 90 27V5C90 2.23858 87.7614 0 85 0Z" fill="#0F1418"/>
<path d="M5 0.5H30.5V31.5H5C2.51472 31.5 0.5 29.4853 0.5 27V5C0.5 2.51472 2.51472 0.5 5 0.5Z" fill="white" stroke="#1C2125"/>
<path fill-rule="evenodd" clip-rule="evenodd" d="M24.6421 9.03599L17.0652 4.53837C16.1609 4.00153 15.0462 4.00153 14.1419 4.53837L6.56504 9.03599C5.66097 9.57283 5.10376 10.5647 5.10376 11.6384V20.6337C5.10376 21.7071 5.66097 22.6995 6.56531 23.2364L14.1421 27.7332C14.5943 28.0017 15.0986 28.1356 15.6037 28.1356C16.1085 28.1356 16.6128 28.0017 17.065 27.7332L24.6418 23.2364C25.5461 22.6995 26.1036 21.7071 26.1036 20.6337V11.6384C26.1036 10.5647 25.5461 9.57283 24.6421 9.03599Z" fill="#FEFEFE"/>
<path fill-rule="evenodd" clip-rule="evenodd" d="M14.4069 27.2729L6.83003 22.776C6.08894 22.336 5.62857 21.5153 5.62857 20.6337V11.6387C5.62857 10.7571 6.08894 9.93641 6.82977 9.49667L14.4069 4.99905C14.7701 4.78342 15.1839 4.66938 15.6036 4.66938C16.0229 4.66938 16.4367 4.78342 16.8003 4.99905L24.3771 9.49667C25.0015 9.86735 25.4227 10.5092 25.5412 11.2292C25.2899 10.6928 24.7232 10.5471 24.0628 10.9328L16.8947 15.3603C16.001 15.8829 15.3419 16.4692 15.3414 17.5468V26.3794C15.3408 27.0247 15.6014 27.4427 16.0018 27.5639C15.8703 27.5866 15.7377 27.6025 15.6036 27.6025C15.1839 27.6025 14.7701 27.4885 14.4069 27.2729ZM24.6419 9.03604L17.0651 4.53868C16.6129 4.27013 16.1081 4.13599 15.6036 4.13599C15.0987 4.13599 14.5939 4.27013 14.1417 4.53868L6.56492 9.03604C5.66085 9.57287 5.10364 10.5651 5.10364 11.6387V20.6337C5.10364 21.7071 5.66085 22.6996 6.56519 23.2364L14.142 27.7335C14.5944 28.0018 15.0987 28.1359 15.6036 28.1359C16.1084 28.1359 16.6127 28.0018 17.0648 27.7335L24.6419 23.2364C25.5463 22.6996 26.1035 21.7071 26.1035 20.6337V11.6387C26.1035 10.5651 25.5463 9.57287 24.6419 9.03604Z" fill="#3E474A"/>
<path fill-rule="evenodd" clip-rule="evenodd" d="M22.6558 21.5032L20.7691 22.6324C20.719 22.6615 20.6823 22.6943 20.682 22.7544V23.2481C20.682 23.3084 20.7225 23.3336 20.7725 23.3042L22.6883 22.1398C22.7383 22.1107 22.746 22.0549 22.7463 21.9948V21.5593C22.7463 21.4992 22.7058 21.4741 22.6558 21.5032Z" fill="#47B353"/>
<path fill-rule="evenodd" clip-rule="evenodd" d="M18.6381 17.3475C18.6992 17.3166 18.7495 17.3547 18.7503 17.4346L18.7567 18.0873C19.03 17.9786 19.2673 17.9495 19.4824 17.9992C19.529 18.0116 19.5496 18.0751 19.5306 18.1505L19.3869 18.7289C19.3758 18.7726 19.3512 18.8168 19.3215 18.8443C19.3091 18.8564 19.2964 18.866 19.2837 18.8723C19.2644 18.8821 19.2453 18.8853 19.2271 18.8816C19.1289 18.8593 18.8956 18.8083 18.5283 18.9943C18.1431 19.1893 18.0084 19.524 18.0111 19.7724C18.0142 20.069 18.1664 20.159 18.6918 20.168C19.3919 20.1796 19.6943 20.4855 19.7017 21.1906C19.7089 21.883 19.3393 22.6265 18.7739 23.0821L18.7863 23.7282C18.7871 23.806 18.7365 23.8951 18.6754 23.9261L18.2928 24.1465C18.2315 24.1774 18.1812 24.1393 18.1804 24.0616L18.1738 23.426C17.846 23.5623 17.5139 23.5951 17.3017 23.5099C17.2618 23.4943 17.2446 23.4353 17.2604 23.3681L17.3991 22.7839C17.4102 22.7379 17.4345 22.6918 17.4676 22.6624C17.4793 22.6511 17.4914 22.6423 17.5036 22.6363C17.5256 22.6251 17.547 22.6228 17.5652 22.6296C17.7938 22.7066 18.0862 22.6706 18.3675 22.5283C18.7246 22.3476 18.9636 21.9833 18.9599 21.6213C18.9564 21.293 18.7786 21.1564 18.3463 21.1533C17.796 21.1549 17.2829 21.0464 17.2745 20.2362C17.2676 19.5692 17.6145 18.8752 18.1635 18.4363L18.1566 17.7841C18.1558 17.7039 18.2047 17.6158 18.2677 17.5841L18.6381 17.3475Z" fill="#FEFEFE"/>
<path d="M54.8707 20H48.4057V18.68L52.2007 13.52H48.6307V11.81H54.7357V13.265L51.0457 18.29H54.8707V20ZM62.3899 17.57C62.3899 18.12 62.2599 18.59 61.9999 18.98C61.7399 19.36 61.3499 19.65 60.8299 19.85C60.3099 20.05 59.6649 20.15 58.8949 20.15C58.3249 20.15 57.8349 20.11 57.4249 20.03C57.0149 19.96 56.6049 19.84 56.1949 19.67V17.825C56.6349 18.025 57.1099 18.19 57.6199 18.32C58.1299 18.45 58.5799 18.515 58.9699 18.515C59.4099 18.515 59.7199 18.45 59.8999 18.32C60.0899 18.19 60.1849 18.02 60.1849 17.81C60.1849 17.67 60.1449 17.545 60.0649 17.435C59.9949 17.325 59.8349 17.2 59.5849 17.06C59.3349 16.92 58.9449 16.74 58.4149 16.52C57.9049 16.3 57.4849 16.085 57.1549 15.875C56.8249 15.655 56.5799 15.395 56.4199 15.095C56.2599 14.785 56.1799 14.4 56.1799 13.94C56.1799 13.18 56.4749 12.61 57.0649 12.23C57.6549 11.85 58.4399 11.66 59.4199 11.66C59.9299 11.66 60.4149 11.71 60.8749 11.81C61.3349 11.91 61.8099 12.075 62.2999 12.305L61.6249 13.91C61.3549 13.79 61.0949 13.685 60.8449 13.595C60.5949 13.505 60.3499 13.435 60.1099 13.385C59.8799 13.335 59.6399 13.31 59.3899 13.31C59.0599 13.31 58.8099 13.355 58.6399 13.445C58.4799 13.535 58.3999 13.67 58.3999 13.85C58.3999 13.98 58.4399 14.1 58.5199 14.21C58.6099 14.31 58.7749 14.42 59.0149 14.54C59.2649 14.66 59.6299 14.82 60.1099 15.02C60.5799 15.21 60.9849 15.41 61.3249 15.62C61.6649 15.82 61.9249 16.075 62.1049 16.385C62.2949 16.685 62.3899 17.08 62.3899 17.57ZM66.5459 10.925C66.5459 11.325 66.5309 11.71 66.5009 12.08C66.4809 12.45 66.4609 12.71 66.4409 12.86H66.5609C66.7409 12.58 66.9509 12.355 67.1909 12.185C67.4309 12.005 67.6959 11.875 67.9859 11.795C68.2859 11.705 68.6009 11.66 68.9309 11.66C69.5209 11.66 70.0359 11.765 70.4759 11.975C70.9159 12.185 71.2559 12.51 71.4959 12.95C71.7459 13.39 71.8709 13.96 71.8709 14.66V20H69.6359V15.215C69.6359 14.625 69.5259 14.185 69.3059 13.895C69.0959 13.595 68.7659 13.445 68.3159 13.445C67.8659 13.445 67.5109 13.55 67.2509 13.76C67.0009 13.97 66.8209 14.275 66.7109 14.675C66.6009 15.075 66.5459 15.565 66.5459 16.145V20H64.3109V8.6H66.5459V10.925Z" fill="white"/>
<path d="M85 0H5C2.23858 0 0 2.23858 0 5V27C0 29.7614 2.23858 32 5 32H85C87.7614 32 90 29.7614 90 27V5C90 2.23858 87.7614 0 85 0Z" fill="url(#paint0_linear_24_38)"/>
<defs>
<linearGradient id="paint0_linear_24_38" x1="0" y1="0" x2="0" y2="32" gradientUnits="userSpaceOnUse">
<stop stop-color="#BBBBBB" stop-opacity="0.1"/>
<stop offset="1" stop-opacity="0.1"/>
</linearGradient>
</defs>
</svg>
